<svg width="2309" height="2434" viewBox="0 0 2309 2434" fill="none" xmlns="http://www.w3.org/2000/svg">
<path d="M1308.26 73.6191H178.173C156.663 73.6191 139.226 91.056 139.226 112.565V1688.7C139.226 1710.21 156.663 1727.65 178.173 1727.65H1308.26C1329.77 1727.65 1347.21 1710.21 1347.21 1688.7V112.565C1347.21 91.056 1329.77 73.6191 1308.26 73.6191Z" fill="#F5F5F5"/>
<path d="M2225.67 172.175L2227.88 183.643L2205.16 306.702C2197.13 312.607 2187.97 316.809 2178.25 319.051C2168.53 321.292 2158.45 321.526 2148.64 319.738L2019.9 295.938C2019.9 295.938 1999.4 291.34 2005.13 264.781C2005.13 264.781 2006.11 250.771 2018.11 249.852C2018.11 249.852 1993.18 239.682 1995.94 220.48C1998.7 201.277 2012.87 201.493 2012.87 201.493C2012.87 201.493 1989.5 195.597 1991.93 173.96C1994.37 152.324 2006.97 152.324 2006.97 152.324C2006.97 152.324 1979.93 145.724 1986.58 121.761C1987.35 118.578 1988.75 115.579 1990.69 112.94C1992.63 110.301 1995.07 108.073 1997.88 106.387C2000.69 104.701 2003.8 103.59 2007.05 103.119C2010.29 102.647 2013.59 102.825 2016.76 103.641L2108.34 120.571L2188.61 135.393C2197.75 137.134 2206.16 141.566 2212.76 148.12C2219.36 154.673 2223.86 163.05 2225.67 172.175Z" fill="#EBEBEB"/>
<path d="M2202.73 140.694C2202.73 140.694 2174.55 115.162 2164.87 87.4129C2160.37 73.5785 2158.11 59.1176 2158.16 44.572C2158.16 43.4901 2160 33.7535 2161.35 25.8561C2161.87 22.7309 2161.16 19.5272 2159.38 16.9089C2157.59 14.2906 2154.87 12.4585 2151.78 11.7922C2142.06 10.3936 2132.17 12.5974 2123.97 17.9882C2115.77 23.379 2109.83 31.584 2107.26 41.056C2096.44 77.9468 2105.69 103.1 2106.01 114.297L2106.28 125.548L2202.73 140.694Z" fill="#EBEBEB"/>
<path d="M2185.28 325.197L2275.17 341.81L2308.93 159.097L2219.04 142.485L2185.28 325.197Z" fill="#EBEBEB"/>
<path d="M2185.31 325.094C2185.31 325.094 2192.51 284.146 2201.81 233.732C2211.11 183.318 2218.96 142.371 2218.96 142.425C2218.96 142.479 2211.76 183.373 2202.41 233.84C2193.05 284.308 2185.48 325.148 2185.31 325.094Z" fill="#E0E0E0"/>
<path d="M2275.21 341.754C2275.21 341.754 2282.41 300.752 2291.77 250.339C2301.12 199.925 2308.81 159.031 2308.97 159.031C2309.13 159.031 2301.77 200.033 2292.47 250.447C2283.17 300.861 2275.43 341.754 2275.21 341.754Z" fill="#E0E0E0"/>
<path d="M2243.08 190.134C2242.5 193.459 2242.91 196.883 2244.27 199.974C2245.62 203.065 2247.87 205.685 2250.71 207.503C2253.56 209.322 2256.88 210.257 2260.25 210.191C2263.63 210.125 2266.91 209.061 2269.68 207.133C2272.45 205.205 2274.59 202.499 2275.82 199.357C2277.06 196.215 2277.34 192.778 2276.62 189.479C2275.91 186.179 2274.23 183.165 2271.8 180.818C2269.38 178.47 2266.31 176.893 2262.99 176.286C2260.77 175.881 2258.5 175.918 2256.29 176.396C2254.09 176.874 2252.01 177.782 2250.16 179.069C2248.31 180.356 2246.73 181.996 2245.51 183.895C2244.3 185.794 2243.47 187.914 2243.08 190.134Z" fill="white"/>
<path d="M2087.03 116.785C2087.03 116.785 2096.93 118.246 2108.99 120.463C2121.05 122.681 2130.9 124.683 2130.63 124.845C2130.36 125.007 2120.73 123.384 2108.66 121.167C2096.6 118.949 2087.03 116.785 2087.03 116.785Z" fill="#E0E0E0"/>
<path d="M2010.65 202.034C2010.65 202.034 2016.98 202.846 2024.71 204.252C2029.41 205.01 2034.07 206.003 2038.67 207.227C2038.67 207.227 2032.34 206.416 2024.61 204.955C2019.91 204.229 2015.25 203.254 2010.65 202.034Z" fill="#E0E0E0"/>
<path d="M2005.08 151.512C2005.08 151.512 2014 152.81 2024.98 154.811C2035.96 156.813 2044.84 158.652 2044.78 158.868C2044.73 159.085 2035.86 157.57 2024.88 155.515C2013.9 153.459 2005.02 151.728 2005.08 151.512Z" fill="#E0E0E0"/>
<path d="M2012.27 249.04C2012.27 249.04 2021.2 250.338 2032.18 252.34C2043.16 254.341 2052.03 256.18 2051.98 256.343C2051.92 256.505 2043.05 255.098 2032.07 253.043C2021.09 250.987 2012.22 249.202 2012.27 249.04Z" fill="#E0E0E0"/>
<path d="M2239.3 151.512C2239.3 151.512 2251.95 153.513 2267.42 156.38C2282.89 159.247 2295.44 161.789 2295.44 161.789C2295.44 161.789 2282.79 159.842 2267.32 156.975C2251.85 154.108 2239.3 151.728 2239.3 151.512Z" fill="white"/>
<path d="M2000.32 183.21C2000.12 182.895 1999.97 182.547 1999.89 182.183C1999.61 181.208 1999.41 180.214 1999.29 179.208C1999.15 177.714 1999.15 176.211 1999.29 174.718C1999.49 172.877 1999.89 171.064 2000.48 169.309C2001.1 167.565 2001.92 165.896 2002.91 164.332C2003.72 163.074 2004.66 161.913 2005.73 160.87C2006.43 160.142 2007.21 159.49 2008.05 158.923L2008.97 158.328C2008.97 158.328 2007.78 159.356 2006.11 161.195C2005.11 162.275 2004.22 163.453 2003.46 164.711C2002.52 166.224 2001.75 167.839 2001.18 169.525C2000.58 171.279 2000.16 173.092 1999.94 174.934C1999.81 176.392 1999.81 177.858 1999.94 179.316C1999.99 181.696 2000.43 183.156 2000.32 183.21Z" fill="white"/>
<path d="M1995.56 134.473C1994.78 133.856 1994.17 133.057 1993.77 132.147C1992.64 130.037 1992.06 127.673 1992.1 125.278C1992.18 122.887 1992.83 120.551 1993.99 118.462C1994.44 117.585 1995.09 116.826 1995.88 116.244C1995.88 116.244 1995.23 117.164 1994.48 118.732C1993.45 120.774 1992.9 123.018 1992.85 125.301C1992.8 127.584 1993.27 129.849 1994.21 131.931C1994.7 132.755 1995.15 133.603 1995.56 134.473Z" fill="white"/>
<path d="M2007.03 235.788C2006.01 235.244 2005.14 234.465 2004.48 233.516C2002.79 231.316 2001.9 228.609 2001.94 225.835C2002.01 223.077 2002.98 220.416 2004.7 218.262C2006.05 216.639 2007.24 215.99 2007.3 216.098C2006.52 216.862 2005.8 217.675 2005.13 218.533C2003.58 220.673 2002.75 223.247 2002.75 225.889C2002.75 228.531 2003.58 231.105 2005.13 233.246C2006.05 234.76 2007.08 235.788 2007.03 235.788Z" fill="white"/>
<path d="M2017.3 282.361C2016.55 281.686 2015.96 280.855 2015.57 279.927C2014.5 277.718 2013.94 275.295 2013.94 272.841C2013.94 270.386 2014.5 267.963 2015.57 265.754C2015.98 264.837 2016.57 264.01 2017.3 263.32C2017.3 263.32 2016.71 264.348 2016 265.971C2015.09 268.147 2014.63 270.482 2014.63 272.841C2014.63 275.199 2015.09 277.534 2016 279.71C2016.71 281.387 2017.41 282.307 2017.3 282.361Z" fill="white"/>
<path d="M2108.23 84.0053C2107.97 83.3602 2107.77 82.6896 2107.64 82.0039C2107.39 81.2057 2107.19 80.3927 2107.04 79.5697C2107.04 78.5961 2106.61 77.5142 2106.45 76.2701C2106.01 73.4409 2105.78 70.5852 2105.74 67.7236C2105.69 64.1063 2105.91 60.4902 2106.39 56.9051C2106.93 53.4257 2107.73 49.9907 2108.77 46.6276C2109.62 43.869 2110.67 41.1754 2111.91 38.5679C2112.4 37.4861 2112.94 36.5124 2113.37 35.647L2114.61 33.4833C2114.97 32.8618 2115.37 32.2654 2115.8 31.6982C2115.58 32.3652 2115.27 33.0012 2114.88 33.5915L2113.75 35.8092C2113.32 36.6747 2112.83 37.6484 2112.34 38.7843C2111.37 41.0021 2110.34 43.7608 2109.37 46.7899C2108.42 50.1523 2107.66 53.5655 2107.1 57.0133C2106.63 60.4742 2106.4 63.9616 2106.39 67.4531C2106.41 70.2919 2106.59 73.1273 2106.93 75.9456C2106.93 77.1897 2107.26 78.2715 2107.42 79.1911C2107.58 80.1106 2107.74 80.9761 2107.91 81.6252C2108.11 82.4029 2108.22 83.2018 2108.23 84.0053Z" fill="white"/>
<path d="M2086.43 1297.56L2092.55 1304.54L2125.65 1397.96C2122.46 1405.2 2117.82 1411.72 2112.01 1417.11C2106.21 1422.5 2099.36 1426.64 2091.9 1429.28L1994.21 1463.68C1994.21 1463.68 1978.36 1468.65 1971.76 1448.21C1971.76 1448.21 1966.89 1438.2 1974.79 1432.79C1974.79 1432.79 1953.64 1435.71 1947.74 1421.43C1941.84 1407.15 1951.85 1401.74 1951.85 1401.74C1951.85 1401.74 1933.46 1407.15 1926.59 1390.92C1919.72 1374.7 1928.32 1370.1 1928.32 1370.1C1928.32 1370.1 1907.06 1376.32 1902.25 1357.22C1901.52 1354.73 1901.28 1352.12 1901.57 1349.54C1901.85 1346.96 1902.65 1344.47 1903.91 1342.2C1905.16 1339.93 1906.86 1337.93 1908.9 1336.32C1910.94 1334.71 1913.27 1333.53 1915.77 1332.83L1985.23 1308.22L2046.13 1286.58C2053.17 1284.11 2060.8 1283.83 2067.99 1285.8C2075.19 1287.76 2081.62 1291.86 2086.43 1297.56Z" fill="#EBEBEB"/>
<path d="M2058.47 1285.17C2058.47 1285.17 2029.04 1278.84 2011.24 1263.54C2002.65 1255.84 1995.35 1246.82 1989.61 1236.82L1984.2 1222.7C1983.33 1220.34 1981.58 1218.41 1979.32 1217.31C1977.07 1216.22 1974.47 1216.03 1972.08 1216.8C1964.86 1219.73 1958.96 1225.19 1955.48 1232.16C1952.01 1239.14 1951.2 1247.14 1953.2 1254.67C1960.51 1284.2 1976.68 1297.94 1981.33 1305.4L1985.98 1312.98L2058.47 1285.17Z" fill="#EBEBEB"/>
<path d="M2119.29 1418.57L2187.51 1394.38L2138.37 1255.76L2070.15 1279.94L2119.29 1418.57Z" fill="#EBEBEB"/>
<path d="M2119.32 1418.4C2119.32 1418.4 2108.07 1387.46 2094.49 1349.16C2080.92 1310.87 2070.04 1279.76 2070.2 1279.76C2070.37 1279.76 2081.46 1310.71 2095.03 1349C2108.61 1387.3 2119.48 1418.35 2119.32 1418.4Z" fill="#E0E0E0"/>
<path d="M2187.53 1394.22C2187.53 1394.22 2176.28 1363.28 2162.7 1324.99C2149.13 1286.69 2138.25 1255.64 2138.41 1255.59C2138.58 1255.53 2149.67 1286.53 2163.24 1324.82C2176.82 1363.12 2187.69 1394.17 2187.53 1394.22Z" fill="#E0E0E0"/>
<path d="M2105.36 1302.97C2106.27 1305.49 2107.89 1307.68 2110.04 1309.27C2112.18 1310.86 2114.75 1311.78 2117.42 1311.92C2120.09 1312.05 2122.74 1311.39 2125.03 1310.02C2127.33 1308.65 2129.16 1306.63 2130.31 1304.21C2131.46 1301.8 2131.86 1299.1 2131.48 1296.45C2131.09 1293.81 2129.93 1291.34 2128.14 1289.36C2126.35 1287.37 2124.01 1285.96 2121.42 1285.3C2118.83 1284.64 2116.11 1284.77 2113.59 1285.66C2110.21 1286.87 2107.44 1289.37 2105.9 1292.62C2104.36 1295.86 2104.17 1299.58 2105.36 1302.97Z" fill="white"/>
<path d="M1969.43 1314.33C1969.43 1314.33 1976.79 1311.41 1985.98 1308.16C1995.18 1304.92 2002.64 1302.38 2002.7 1302.75C2002.75 1303.13 1995.34 1305.68 1986.15 1308.92C1976.95 1312.17 1969.49 1314.44 1969.43 1314.33Z" fill="#E0E0E0"/>
<path d="M1950.88 1403.09C1950.88 1403.09 1955.53 1401.15 1961.43 1399.09C1964.96 1397.71 1968.57 1396.54 1972.24 1395.58C1968.8 1397.11 1965.28 1398.46 1961.7 1399.63C1958.15 1400.98 1954.54 1402.13 1950.88 1403.09Z" fill="#E0E0E0"/>
<path d="M1926.86 1370.69C1926.86 1370.69 1933.51 1368.04 1941.84 1365.28C1950.17 1362.52 1956.94 1359.87 1956.99 1360.2C1957.04 1360.52 1950.34 1362.85 1942.01 1365.61C1933.68 1368.37 1927.13 1370.86 1926.86 1370.69Z" fill="#E0E0E0"/>
<path d="M1970.57 1434.68C1970.57 1434.68 1977.22 1432.03 1985.55 1429.27C1993.88 1426.52 2000.64 1423.87 2000.7 1424.24C2000.75 1424.62 1994.04 1426.89 1985.71 1429.65C1977.38 1432.41 1970.62 1434.85 1970.57 1434.68Z" fill="#E0E0E0"/>
<path d="M2087.68 1278.03C2087.68 1278.03 2097.09 1274.36 2108.88 1270.19C2120.67 1266.03 2130.19 1262.78 2130.52 1262.94C2130.84 1263.1 2121.11 1266.57 2109.31 1270.73C2097.52 1274.9 2087.73 1278.14 2087.68 1278.03Z" fill="white"/>
<path d="M1936.33 1394.28L1935.62 1393.74C1935.05 1393.18 1934.53 1392.59 1934.06 1391.95C1933.35 1390.99 1932.75 1389.96 1932.27 1388.87C1931.66 1387.54 1931.21 1386.14 1930.92 1384.7C1930.65 1383.28 1930.55 1381.83 1930.59 1380.38C1930.68 1379.19 1930.88 1378.01 1931.19 1376.86C1931.38 1376.08 1931.65 1375.31 1932 1374.59C1932 1374.1 1932.38 1373.83 1932.43 1373.83C1932.49 1373.83 1932 1375.02 1931.57 1376.91C1931.32 1378.05 1931.18 1379.21 1931.13 1380.38C1931.11 1381.79 1931.22 1383.2 1931.46 1384.59C1931.75 1385.98 1932.17 1387.34 1932.7 1388.65C1933.19 1389.72 1933.75 1390.75 1934.38 1391.73C1935.52 1393.36 1936.38 1394.22 1936.33 1394.28Z" fill="white"/>
<path d="M1913.77 1362.74C1913.01 1362.62 1912.29 1362.33 1911.66 1361.88C1910.06 1360.87 1908.74 1359.47 1907.82 1357.82C1906.89 1356.17 1906.4 1354.3 1906.41 1352.41C1906.35 1351.63 1906.48 1350.85 1906.79 1350.14C1906.79 1350.14 1906.79 1351 1906.79 1352.41C1906.93 1354.21 1907.45 1355.96 1908.31 1357.55C1909.19 1359.12 1910.41 1360.49 1911.88 1361.55C1913.01 1362.36 1913.82 1362.69 1913.77 1362.74Z" fill="white"/>
<path d="M1961.7 1427.6C1960.78 1427.61 1959.87 1427.41 1959.05 1427C1957.02 1426.17 1955.32 1424.68 1954.23 1422.78C1953.19 1420.85 1952.81 1418.63 1953.15 1416.45C1953.24 1415.56 1953.56 1414.71 1954.07 1413.97C1954.07 1413.97 1953.74 1414.94 1953.58 1416.51C1953.34 1418.59 1953.76 1420.69 1954.77 1422.51C1955.8 1424.32 1957.35 1425.77 1959.21 1426.68C1960.67 1427.33 1961.7 1427.49 1961.7 1427.6Z" fill="white"/>
<path d="M1987.23 1455.56C1986.45 1455.39 1985.71 1455.05 1985.06 1454.59C1983.44 1453.51 1982.08 1452.07 1981.12 1450.37C1980.14 1448.72 1979.57 1446.87 1979.44 1444.96C1979.25 1444.18 1979.25 1443.36 1979.44 1442.58C1979.44 1442.58 1979.44 1443.5 1979.44 1444.91C1979.67 1446.81 1980.27 1448.65 1981.22 1450.32C1982.18 1451.92 1983.43 1453.33 1984.9 1454.48C1985.7 1454.79 1986.48 1455.15 1987.23 1455.56Z" fill="white"/>
<path d="M1971.11 1283.6L1969.86 1282.41C1969.39 1281.97 1968.94 1281.5 1968.51 1281.01C1967.97 1280.41 1967.38 1279.76 1966.78 1279.01C1965.38 1277.29 1964.1 1275.48 1962.94 1273.6C1961.52 1271.2 1960.28 1268.71 1959.21 1266.13C1958.19 1263.53 1957.37 1260.86 1956.77 1258.13C1956.26 1255.9 1955.92 1253.64 1955.75 1251.37C1955.75 1250.45 1955.75 1249.53 1955.75 1248.77C1955.75 1248.01 1955.75 1247.36 1955.75 1246.82C1955.7 1246.26 1955.7 1245.7 1955.75 1245.15C1955.83 1245.7 1955.83 1246.27 1955.75 1246.82C1955.75 1247.36 1955.75 1248.01 1955.75 1248.77C1955.75 1249.53 1955.75 1250.39 1955.75 1251.37C1955.75 1253.26 1956.34 1255.53 1956.88 1258.02C1958.69 1265.6 1962.04 1272.73 1966.73 1278.95C1967.32 1279.76 1967.86 1280.41 1968.35 1281.01L1969.65 1282.52C1970.17 1282.83 1970.66 1283.19 1971.11 1283.6Z" fill="white"/>
<path d="M1241.89 1962.62H978.519C938.756 1962.62 906.522 1994.86 906.522 2034.62V2297.99C906.522 2337.76 938.756 2369.99 978.519 2369.99H1241.89C1281.66 2369.99 1313.89 2337.76 1313.89 2297.99V2034.62C1313.89 1994.86 1281.66 1962.62 1241.89 1962.62Z" fill="#E0E0E0"/>
<path d="M1168.71 1962.62H905.332C865.57 1962.62 833.336 1994.86 833.336 2034.62V2297.99C833.336 2337.76 865.57 2369.99 905.332 2369.99H1168.71C1208.47 2369.99 1240.7 2337.76 1240.7 2297.99V2034.62C1240.7 1994.86 1208.47 1962.62 1168.71 1962.62Z" fill="#EBEBEB"/>
<path d="M896.407 2172.18L937.409 2131.12L1016.55 2201.49L1148.75 2068.81L1186.83 2109.81L1010.7 2280.63L896.407 2172.18Z" fill="white"/>
<path d="M301.232 2050.04H129.165C89.4025 2050.04 57.1686 2082.27 57.1686 2122.03V2294.1C57.1686 2333.86 89.4025 2366.1 129.165 2366.1H301.232C340.995 2366.1 373.229 2333.86 373.229 2294.1V2122.03C373.229 2082.27 340.995 2050.04 301.232 2050.04Z" fill="#E0E0E0"/>
<path d="M244.489 2050.04H72.4226C32.66 2050.04 0.426025 2082.27 0.426025 2122.03V2294.1C0.426025 2333.86 32.66 2366.1 72.4226 2366.1H244.489C284.252 2366.1 316.486 2333.86 316.486 2294.1V2122.03C316.486 2082.27 284.252 2050.04 244.489 2050.04Z" fill="#EBEBEB"/>
<path d="M49.3253 2212.64L81.1855 2180.78L142.58 2235.36L245.084 2132.42L274.673 2164.28L138.036 2296.75L49.3253 2212.64Z" fill="white"/>
<path d="M2234.7 2356.79C2234.7 2357.55 1747.87 2358.2 1147.99 2358.2C548.108 2358.2 61.1714 2357.55 61.1714 2356.79C61.1714 2356.03 547.675 2355.38 1147.99 2355.38C1748.3 2355.38 2234.7 2356.2 2234.7 2356.79Z" fill="#263238"/>
<path d="M2016.87 2201.82C2016.87 2201.82 1994.31 2046.84 1996.21 1956.62C1998.1 1866.39 1996.21 1764.97 1996.21 1764.97H2006.59C2006.59 1764.97 1999.56 1944.02 2007.24 2051.98C2014.92 2159.95 2035.04 2201.82 2035.04 2201.82H2016.98" fill="#263238"/>
<path d="M2084.05 1590.58C2082.43 1585.08 2079.12 1580.24 2074.59 1576.73C2067.99 1572.56 2059.33 1574.3 2051.98 1576.73C2020.6 1587.82 1992.75 1646.35 1980.09 1677.12L2021.74 1817.76C2096.98 1747.93 2110.02 1656.41 2084.05 1590.58Z" fill="#455A64"/>
<path d="M2072.15 1582.68C2072.02 1583.31 2071.82 1583.93 2071.56 1584.52L2069.5 1589.6C2067.66 1594.04 2065.12 1600.42 2062.04 1608.43C2055.92 1624.66 2048.08 1646.67 2041.1 1671.82C2034.13 1696.98 2029.37 1720.07 2026.39 1736.73C2024.88 1745.17 2023.79 1751.99 2023.09 1756.69C2022.71 1758.91 2022.44 1760.7 2022.17 1762.1C2022.1 1762.75 2021.96 1763.38 2021.74 1764C2021.68 1763.35 2021.68 1762.7 2021.74 1762.05C2021.74 1760.59 2022.06 1758.8 2022.28 1756.64C2022.82 1751.88 2023.74 1745.01 2025.09 1736.52C2028.62 1714.49 2033.37 1692.67 2039.32 1671.17C2045.36 1649.68 2052.59 1628.53 2060.96 1607.83C2064.2 1599.88 2066.91 1593.55 2068.96 1589.22C2069.88 1587.17 2070.64 1585.55 2071.29 1584.19C2071.52 1583.66 2071.81 1583.15 2072.15 1582.68Z" fill="#263238"/>
<path d="M2003.24 1851.41C1984.27 1840.61 1968.4 1825.12 1957.15 1806.42C1945.89 1787.72 1939.64 1766.45 1938.98 1744.63C1937.52 1713.47 1947.09 1682.91 1957.91 1653.65C1958.57 1651 1960.14 1648.66 1962.35 1647.05C1964.14 1646.37 1966.07 1646.17 1967.97 1646.45C1969.86 1646.73 1971.65 1647.5 1973.16 1648.67C2001.51 1664.9 2018.71 1695.68 2027.9 1727.05C2034.44 1747.84 2036.61 1769.75 2034.29 1791.42C2030.71 1814.22 2019.88 1835.26 2003.4 1851.41" fill="#455A64"/>
<path d="M2003.24 1851.41C2003.17 1850.78 2003.17 1850.15 2003.24 1849.52C2003.24 1848.11 2003.24 1846.32 2003.24 1844.11C2003.24 1839.46 2003.24 1832.69 2002.64 1824.31C2001.54 1802.55 1999.12 1780.87 1995.4 1759.4C1991.07 1734.25 1985.82 1711.74 1981.93 1695.46L1977.33 1676.15C1976.84 1674.04 1976.41 1672.31 1976.14 1670.74C1975.89 1670.26 1975.69 1669.75 1975.54 1669.23C1975.82 1669.8 1976.04 1670.4 1976.19 1671.01C1976.57 1672.36 1977.06 1674.1 1977.71 1676.15C1979.01 1680.7 1980.74 1686.97 1983.12 1695.3C1987.28 1711.53 1992.75 1734.03 1997.13 1759.29C2000.85 1780.75 2003.11 1802.44 2003.89 1824.2C2003.89 1832.53 2003.89 1839.35 2003.89 1844L2003.62 1849.41C2003.57 1850.09 2003.44 1850.76 2003.24 1851.41Z" fill="#263238"/>
<g opacity="0.3">
<path d="M2003.24 1851.41C1984.27 1840.61 1968.4 1825.12 1957.15 1806.42C1945.89 1787.72 1939.64 1766.45 1938.98 1744.63C1937.52 1713.47 1947.09 1682.91 1957.91 1653.65C1958.57 1651 1960.14 1648.66 1962.35 1647.05C1964.14 1646.37 1966.07 1646.16 1967.97 1646.45C1969.86 1646.73 1971.65 1647.5 1973.16 1648.67C2001.51 1664.9 2018.71 1695.68 2027.9 1727.05C2034.44 1747.84 2036.61 1769.75 2034.29 1791.42C2030.71 1814.22 2019.88 1835.26 2003.4 1851.41" fill="black"/>
</g>
<path d="M2047.32 2088.55C2085.73 2097.04 2117.64 2124.14 2154.48 2137.23C2179.04 2145.94 2206.79 2149.02 2226.37 2166.17C2221.66 2154.33 2210.52 2146.43 2199.7 2139.67C2169.11 2120.56 2136.44 2104.99 2102.34 2093.26C2084.86 2087.25 2065.93 2082.44 2048.24 2087.14" fill="#455A64"/>
<path d="M1991.77 2122.84C1943.63 2122.03 1892.95 2081.03 1845.02 2078.6C1895.16 2062.37 1966.94 2075.62 1991.77 2122.84Z" fill="#455A64"/>
<path d="M2010.54 2007.3C2035.35 1999.1 2061.81 1997.24 2087.51 2001.89C2113.08 2006.58 2138.22 2013.41 2162.65 2022.29C2160.16 2005.57 2146.42 1993.02 2133.93 1981.93C2124.65 1973.25 2114.56 1965.48 2103.8 1958.73C2092.96 1951.94 2080.4 1948.39 2067.61 1948.5C2059.94 1949 2052.44 1951.04 2045.57 1954.5C2038.7 1957.95 2032.6 1962.76 2027.63 1968.63C2017.92 1979.25 2011.92 1992.75 2010.54 2007.09" fill="#455A64"/>
<path d="M1911.72 1954.18C1881.42 1928.27 1835.5 1930.82 1795.63 1931.74C1859.63 1962.23 1919.98 1999.85 1975.54 2043.87C1977.27 2015.69 1950.01 1986.86 1911.72 1954.18Z" fill="#455A64"/>
<g opacity="0.3">
<path d="M1911.72 1954.19C1881.42 1928.27 1835.5 1930.82 1795.63 1931.74C1859.63 1962.23 1919.98 1999.85 1975.54 2043.87C1977.27 2015.69 1950.01 1986.86 1911.72 1954.19Z" fill="black"/>
</g>
<path d="M2024.23 1918.43C2039.02 1908.18 2054.61 1899.14 2070.85 1891.38C2086.76 1884.13 2101.69 1872.61 2117.05 1864.34C2137.06 1853.52 2154.37 1838.48 2172.71 1825.07C2191.05 1811.65 2211.17 1799.53 2233.62 1795.96C2215.14 1792.69 2196.14 1793.8 2178.17 1799.21C2160.27 1804.6 2142.82 1811.38 2125.97 1819.49C2102.34 1830.31 2078.32 1841.13 2058.95 1858.33C2039.59 1875.53 2022.17 1892.68 2024.23 1918.54" fill="#455A64"/>
<path d="M2153.62 2122.84L2152.1 2122.19L2147.88 2119.98C2144.26 2118.08 2139.06 2115.22 2132.52 2111.92C2129.27 2110.19 2125.65 2108.4 2121.7 2106.51C2117.75 2104.61 2113.64 2102.72 2109.21 2100.77C2099.63 2096.5 2089.72 2093.05 2079.56 2090.44C2069.48 2087.67 2058.88 2087.41 2048.68 2089.68C2044.22 2090.65 2039.85 2091.96 2035.59 2093.58C2026.56 2097.21 2018.42 2102.74 2011.73 2109.81C2008.97 2112.78 2007.62 2114.62 2007.46 2114.51C2007.71 2114.02 2007.99 2113.55 2008.32 2113.11C2009.23 2111.81 2010.21 2110.57 2011.24 2109.37C2015.06 2104.93 2019.48 2101.05 2024.39 2097.85C2027.8 2095.6 2031.42 2093.68 2035.21 2092.12C2039.51 2090.39 2043.94 2088.99 2048.46 2087.95C2058.9 2085.53 2069.77 2085.75 2080.1 2088.6C2090.37 2091.23 2100.38 2094.76 2110.02 2099.15C2114.45 2101.15 2118.67 2103.1 2122.51 2105.1C2126.35 2107.1 2129.98 2108.83 2133.33 2110.51C2139.82 2113.97 2144.96 2116.95 2148.48 2119.11L2152.53 2121.54C2153.18 2122.46 2153.67 2122.79 2153.62 2122.84Z" fill="#263238"/>
<path d="M1955.8 2098.99C1956.85 2099.1 1957.88 2099.4 1958.83 2099.85C1961.51 2100.82 1964.13 2101.96 1966.67 2103.26C1983.61 2111.88 1997.61 2125.32 2006.92 2141.88C2008.31 2144.38 2009.54 2146.96 2010.6 2149.62C2011.07 2150.56 2011.42 2151.56 2011.62 2152.59C2011.35 2152.59 2009.57 2148.64 2005.84 2142.53C2000.99 2134.61 1995.15 2127.34 1988.47 2120.9C1981.74 2114.54 1974.21 2109.09 1966.08 2104.67C1959.86 2100.88 1955.69 2099.26 1955.8 2098.99Z" fill="#263238"/>
<path d="M1849.29 1951.75L1851.35 1952.34L1857.08 1954.4L1866.22 1957.75C1869.79 1959.11 1873.63 1961.05 1877.96 1963.16C1900.55 1973.63 1921.63 1987.08 1940.65 2003.14C1951.12 2011.96 1960.96 2021.48 1970.13 2031.64C1977.5 2040.04 1984.41 2048.81 1990.85 2057.93C1996.26 2065.72 2000.53 2072.21 2003.4 2076.65L2006.7 2082.06C2007.09 2082.64 2007.43 2083.26 2007.73 2083.9C2007.23 2083.4 2006.77 2082.86 2006.38 2082.27C2005.57 2081.14 2004.32 2079.46 2002.81 2077.24C1999.78 2072.86 1995.5 2066.43 1989.88 2058.85C1984.25 2051.28 1977.22 2042.3 1968.94 2032.89C1959.86 2022.76 1950.12 2013.24 1939.79 2004.38C1920.85 1988.44 1899.99 1974.94 1877.69 1964.19C1873.36 1962.24 1869.58 1960.19 1866.06 1958.78L1857.08 1955.16L1851.13 1952.67C1850.48 1952.44 1849.87 1952.13 1849.29 1951.75Z" fill="#263238"/>
<path d="M2082.75 1980.26C2081.46 1980.24 2080.17 1980.08 2078.91 1979.77L2074.53 1978.96C2072.8 1978.63 2070.8 1978.58 2068.58 1978.36C2057.17 1977.39 2045.71 1979.66 2035.53 1984.91C2029.94 1987.82 2024.85 1991.6 2020.44 1996.11C2016.76 1999.7 2013.51 2003.72 2010.76 2008.06C2008.26 2012.1 2006.05 2016.31 2004.16 2020.66C2004.3 2019.38 2004.63 2018.12 2005.13 2016.93C2006.35 2013.62 2007.89 2010.43 2009.73 2007.41C2012.41 2002.89 2015.62 1998.71 2019.3 1994.97C2023.77 1990.29 2028.98 1986.38 2034.72 1983.39C2045.16 1977.94 2057 1975.78 2068.69 1977.17C2070.91 1977.5 2072.96 1977.55 2074.69 1977.98L2079.08 1979.12C2080.34 1979.36 2081.57 1979.74 2082.75 1980.26Z" fill="#263238"/>
<path d="M2131.17 1830.15C2130.61 1830.59 2129.99 1830.96 2129.33 1831.23L2123.92 1834.15C2119.27 1836.7 2112.5 1840.43 2104.34 1845.24C2096.17 1850.06 2086.65 1856.06 2076.48 1863.36C2065.36 1871.14 2054.93 1879.86 2045.32 1889.44C2040.37 1894.35 2036.1 1899.9 2032.61 1905.93C2029.42 1911.99 2026.44 1917.83 2023.63 1923.46C2018.66 1933.38 2014.2 1943.54 2010.27 1953.91C2007.67 1960.99 2005.5 1968.21 2003.78 1975.55C2002.54 1980.69 2002.1 1983.61 2001.94 1983.56C2001.78 1983.5 2001.94 1982.85 2001.94 1981.45C2001.94 1980.04 2002.43 1977.99 2002.97 1975.39C2004.44 1968.04 2006.45 1960.81 2008.97 1953.75C2012.73 1943.26 2017.1 1933 2022.06 1923.03C2024.82 1917.35 2027.8 1911.45 2030.93 1905.39C2034.49 1899.2 2038.85 1893.5 2043.92 1888.46C2053.61 1878.81 2064.14 1870.05 2075.4 1862.28C2085.68 1855.03 2095.36 1849.14 2103.58 1844.38C2111.8 1839.62 2118.67 1836.16 2123.43 1833.56L2128.84 1830.96C2129.58 1830.6 2130.36 1830.33 2131.17 1830.15Z" fill="#263238"/>
<path d="M1996.15 1975.93C1995.71 1974.61 1995.39 1973.25 1995.18 1971.87C1994.64 1968.9 1993.94 1965.16 1993.07 1960.73C1990.79 1948.51 1987.76 1936.44 1983.98 1924.6C1980.08 1912.8 1975.5 1901.24 1970.24 1889.98L1965.54 1879.65C1964.89 1878.42 1964.38 1877.14 1964.02 1875.8C1964.87 1876.9 1965.58 1878.1 1966.13 1879.37C1967.43 1881.7 1969.22 1885.16 1971.54 1889.44C1982.88 1911.78 1990.64 1935.76 1994.53 1960.51C1995.29 1965.27 1995.83 1969.11 1996.1 1971.76C1996.25 1973.15 1996.27 1974.54 1996.15 1975.93Z" fill="#263238"/>
<path d="M1992.69 1866.39C1991.16 1848.16 1985.81 1830.45 1977 1814.41C1965.11 1792.37 1948.54 1773.2 1928.44 1758.25C1908.35 1743.3 1885.23 1732.93 1860.71 1727.86L1968.4 1888.35L1982.31 1917.02C1991.09 1901.69 1994.73 1883.95 1992.69 1866.39Z" fill="#455A64"/>
<path d="M2147.12 2182.67H1896.73V2227.02H2147.12V2182.67Z" fill="#407BFF"/>
<path d="M1915.45 2218.26L1936.76 2355.93H2102.98L2128.41 2218.26H1915.45Z" fill="#407BFF"/>
<path d="M2147.02 2227.08C2147.02 2227.57 2090.49 2228 2020.87 2228C1951.26 2228 1894.73 2227.57 1894.73 2227.08C1894.73 2226.59 1951.2 2226.21 2020.87 2226.21C2090.54 2226.21 2147.02 2226.38 2147.02 2227.08Z" fill="#263238"/>
<path d="M591.544 1990.64H369.442C329.68 1990.64 297.446 2022.88 297.446 2062.64V2284.74C297.446 2324.5 329.68 2356.74 369.442 2356.74H591.544C631.307 2356.74 663.541 2324.5 663.541 2284.74V2062.64C663.541 2022.88 631.307 1990.64 591.544 1990.64Z" fill="#407BFF"/>
<g opacity="0.3">
<path d="M591.544 1990.64H369.442C329.68 1990.64 297.446 2022.88 297.446 2062.64V2284.74C297.446 2324.5 329.68 2356.74 369.442 2356.74H591.544C631.307 2356.74 663.541 2324.5 663.541 2284.74V2062.64C663.541 2022.88 631.307 1990.64 591.544 1990.64Z" fill="black"/>
</g>
<path d="M525.822 1990.64H303.72C263.958 1990.64 231.724 2022.88 231.724 2062.64V2284.74C231.724 2324.5 263.958 2356.74 303.72 2356.74H525.822C565.585 2356.74 597.819 2324.5 597.819 2284.74V2062.64C597.819 2022.88 565.585 1990.64 525.822 1990.64Z" fill="#407BFF"/>
<path d="M288.358 2178.99L325.249 2142.1L396.38 2205.33L515.112 2086.12L549.352 2122.95L391.079 2276.47L288.358 2178.99Z" fill="white"/>
<path d="M783.787 2122.57H638.658C614.072 2122.57 594.141 2142.5 594.141 2167.09V2312.22C594.141 2336.81 614.072 2356.74 638.658 2356.74H783.787C808.374 2356.74 828.305 2336.81 828.305 2312.22V2167.09C828.305 2142.5 808.374 2122.57 783.787 2122.57Z" fill="#263238"/>
<path d="M741.758 2122.57H596.629C572.042 2122.57 552.111 2142.5 552.111 2167.09V2312.22C552.111 2336.81 572.042 2356.74 596.629 2356.74H741.758C766.344 2356.74 786.276 2336.81 786.276 2312.22V2167.09C786.276 2142.5 766.344 2122.57 741.758 2122.57Z" fill="#455A64"/>
<path d="M588.353 2243.04L611.937 2219.45L657.428 2259.91L733.428 2183.64L755.335 2207.23L654.075 2305.4L588.353 2243.04Z" fill="white"/>
<path d="M1362.63 1.35254H232.535C211.026 1.35254 193.589 18.7894 193.589 40.2988V1616.43C193.589 1637.94 211.026 1655.38 232.535 1655.38H1362.63C1384.14 1655.38 1401.57 1637.94 1401.57 1616.43V40.2988C1401.57 18.7894 1384.14 1.35254 1362.63 1.35254Z" fill="white"/>
<path d="M1362.63 1655.38C1367.5 1655.29 1372.32 1654.32 1376.85 1652.51C1382.44 1650.27 1387.41 1646.73 1391.35 1642.18C1396.87 1635.99 1400.28 1628.2 1401.09 1619.95C1401.36 1582.09 1401.09 1526.69 1401.09 1455.13C1401.09 1312 1400.82 1104.88 1400.65 848.975C1400.65 720.993 1400.65 580.841 1400.65 430.357C1400.65 355.133 1400.65 277.384 1400.65 197.112V44.3015C1401.39 34.0478 1398.05 23.9175 1391.35 16.1196C1388.09 12.2233 1384.06 9.03374 1379.52 6.74579C1374.98 4.45784 1370.03 3.11962 1364.95 2.81294C1354.62 2.81294 1343.96 2.81294 1333.42 2.81294H232.535C226.643 2.83179 220.837 4.22541 215.578 6.88292C210.319 9.54044 205.753 13.3885 202.244 18.121C198.679 22.8913 196.338 28.4633 195.428 34.3486C194.838 40.3155 194.658 46.3157 194.887 52.3072V268.243C194.887 363.337 194.887 456.97 194.887 549.143C194.887 733.056 194.887 910.911 194.887 1080.11C194.887 1249.31 194.887 1410.07 194.887 1560.66V1616.6C194.973 1625.62 198.249 1634.32 204.137 1641.15C209.961 1647.92 218.024 1652.38 226.855 1653.7C231.29 1654.21 235.755 1654.39 240.216 1654.24H333.363H534.207L1140.36 1654.68L1305.18 1654.95H1140.36L534.207 1655.43H240.054C235.486 1655.59 230.913 1655.43 226.369 1654.95C216.959 1653.48 208.378 1648.71 202.164 1641.5C195.949 1634.28 192.507 1625.09 192.453 1615.57C192.453 1597.07 192.453 1578.42 192.453 1559.64C192.453 1409.1 192.453 1248.34 192.453 1079.08C192.453 909.829 192.453 732.245 192.453 548.115V51.8744C192.223 45.7376 192.422 39.5922 193.048 33.4831C194.05 27.2252 196.556 21.304 200.35 16.2278C204.117 11.1767 209.015 7.07811 214.651 4.26016C220.287 1.4422 226.504 -0.0167592 232.806 0.000145239H1333.69C1344.51 0.000145239 1354.73 0.000145239 1365.39 0.000145239C1370.8 0.352559 1376.08 1.79423 1380.93 4.23876C1385.77 6.68329 1390.07 10.0804 1393.57 14.2264C1400.49 22.5685 1403.88 33.2797 1403.03 44.0852V75.134C1403.03 116.352 1403.03 156.993 1403.03 197.058C1403.03 277.222 1403.03 354.97 1403.03 430.303C1403.03 580.787 1403.03 720.939 1403.03 848.921C1403.03 1104.83 1402.65 1311.95 1402.55 1455.08C1402.55 1526.69 1402.55 1582.19 1402.11 1619.95C1401.28 1628.33 1397.78 1636.22 1392.11 1642.45C1388.08 1646.95 1383.03 1650.42 1377.39 1652.57C1373.93 1653.94 1370.29 1654.78 1366.58 1655.06L1362.63 1655.38Z" fill="#263238"/>
<path d="M1180.66 493.32H645.149C626.329 493.32 611.071 508.578 611.071 527.398V530.698C611.071 549.519 626.329 564.776 645.149 564.776H1180.66C1199.48 564.776 1214.74 549.519 1214.74 530.698V527.398C1214.74 508.578 1199.48 493.32 1180.66 493.32Z" fill="#E0E0E0"/>
<path d="M518.141 450.695H408.226C392.871 450.695 380.423 463.143 380.423 478.499V588.414C380.423 603.769 392.871 616.217 408.226 616.217H518.141C533.497 616.217 545.945 603.769 545.945 588.414V478.499C545.945 463.143 533.497 450.695 518.141 450.695Z" fill="#407BFF"/>
<path d="M406.008 535.836L422.723 519.175L454.854 547.79L508.567 493.86L524.037 510.521L452.473 579.921L406.008 535.836Z" fill="white"/>
<path d="M1180.66 750.095H645.149C626.329 750.095 611.071 765.352 611.071 784.173V787.472C611.071 806.293 626.329 821.55 645.149 821.55H1180.66C1199.48 821.55 1214.74 806.293 1214.74 787.472V784.173C1214.74 765.352 1199.48 750.095 1180.66 750.095Z" fill="#E0E0E0"/>
<path d="M518.141 707.524H408.226C392.871 707.524 380.423 719.972 380.423 735.328V845.243C380.423 860.598 392.871 873.046 408.226 873.046H518.141C533.497 873.046 545.945 860.598 545.945 845.243V735.328C545.945 719.972 533.497 707.524 518.141 707.524Z" fill="#407BFF"/>
<path d="M406.008 792.666L422.723 776.005L454.854 804.566L508.567 750.69L524.037 767.351L452.473 836.751L406.008 792.666Z" fill="white"/>
<path d="M1180.66 1006.92H645.149C626.329 1006.92 611.071 1022.18 611.071 1041V1044.3C611.071 1063.12 626.329 1078.38 645.149 1078.38H1180.66C1199.48 1078.38 1214.74 1063.12 1214.74 1044.3V1041C1214.74 1022.18 1199.48 1006.92 1180.66 1006.92Z" fill="#E0E0E0"/>
<path d="M518.141 964.299H408.226C392.871 964.299 380.423 976.747 380.423 992.102V1102.02C380.423 1117.37 392.871 1129.82 408.226 1129.82H518.141C533.497 1129.82 545.945 1117.37 545.945 1102.02V992.102C545.945 976.747 533.497 964.299 518.141 964.299Z" fill="#407BFF"/>
<path d="M406.008 1049.44L422.723 1032.78L454.854 1061.39L508.567 1007.46L524.037 1024.13L452.473 1093.53L406.008 1049.44Z" fill="white"/>
<path d="M1180.66 1263.7H645.149C626.329 1263.7 611.071 1278.96 611.071 1297.78V1301.08C611.071 1319.9 626.329 1335.15 645.149 1335.15H1180.66C1199.48 1335.15 1214.74 1319.9 1214.74 1301.08V1297.78C1214.74 1278.96 1199.48 1263.7 1180.66 1263.7Z" fill="#E0E0E0"/>
<path d="M518.141 1221.13H408.226C392.871 1221.13 380.423 1233.58 380.423 1248.93V1358.85C380.423 1374.2 392.871 1386.65 408.226 1386.65H518.141C533.497 1386.65 545.945 1374.2 545.945 1358.85V1248.93C545.945 1233.58 533.497 1221.13 518.141 1221.13Z" fill="#407BFF"/>
<path d="M406.008 1306.27L422.723 1289.61L454.854 1318.17L508.567 1264.24L524.037 1280.95L452.473 1350.35L406.008 1306.27Z" fill="white"/>
<path d="M531.881 275.599H505.808L500.94 287.608H483.144L510.19 225.889H527.391L554.708 287.608H536.695L531.881 275.599ZM526.796 262.834L518.844 243.036L510.893 262.834H526.796Z" fill="#263238"/>
<path d="M559.846 225.889H589.002C609.449 225.889 623.458 237.789 623.458 256.775C623.458 275.762 609.449 287.608 589.002 287.608H559.846V225.889ZM588.299 273.652C592.789 273.652 597.095 271.868 600.271 268.693C603.446 265.518 605.229 261.212 605.229 256.721C605.229 252.231 603.446 247.924 600.271 244.749C597.095 241.574 592.789 239.79 588.299 239.79H577.48V273.652H588.299Z" fill="#263238"/>
<path d="M693.129 225.889L666.516 287.608H649.315L623.242 225.889H642.066L658.835 266.079L675.928 225.889H693.129Z" fill="#263238"/>
<path d="M735.97 275.599H709.789L704.975 287.608H687.125L714.171 225.889H731.426L758.743 287.608H740.568L735.97 275.599ZM730.561 262.779L722.609 242.982L715.199 262.834L730.561 262.779Z" fill="#263238"/>
<path d="M822.571 225.889V287.608H808.237L781.191 254.72V287.608H763.881V225.889H778.27L805.316 258.777V225.889H822.571Z" fill="#263238"/>
<path d="M848.049 239.736H829.117V225.889H884.399V239.736H865.521V287.608H848.049V239.736Z" fill="#263238"/>
<path d="M929.133 275.599H903.06L898.192 287.608H880.396L907.442 225.889H924.643L951.96 287.608H933.785L929.133 275.599ZM924.048 262.834L916.097 243.036L908.199 262.834H924.048Z" fill="#263238"/>
<path d="M997.559 255.423H1012.98V281.008C1005.31 286.148 996.291 288.88 987.065 288.851C967.43 288.851 953.042 275.545 953.042 256.775C953.042 238.005 967.43 224.969 987.39 224.969C992.454 224.688 997.516 225.554 1002.2 227.502C1006.88 229.45 1011.07 232.43 1014.44 236.22L1003.35 246.281C1001.51 244.101 999.216 242.355 996.625 241.167C994.035 239.979 991.213 239.38 988.364 239.411C983.687 239.411 979.202 241.269 975.895 244.576C972.588 247.883 970.73 252.368 970.73 257.045C970.73 261.722 972.588 266.207 975.895 269.514C979.202 272.821 983.687 274.679 988.364 274.679C991.632 274.696 994.863 273.995 997.83 272.624L997.559 255.423Z" fill="#263238"/>
<path d="M1073.61 274.139V287.608H1024.06V225.889H1072.75V239.412H1041.37V249.797H1068.74V262.834H1041.37V274.139H1073.61Z" fill="#263238"/>
<path d="M1078.97 282.036L1084.7 269.216C1090.81 273.068 1097.87 275.164 1105.09 275.274C1112.29 275.274 1115.16 273.219 1115.16 270.244C1115.16 260.453 1080.05 267.593 1080.05 244.658C1080.05 233.84 1089.03 224.698 1107.37 224.698C1115.17 224.586 1122.87 226.446 1129.76 230.107L1124.35 243.035C1119.11 240.081 1113.22 238.448 1107.2 238.275C1099.9 238.275 1097.25 240.764 1097.25 243.684C1097.25 253.151 1132.25 246.065 1132.25 268.837C1132.25 279.656 1123.27 288.743 1104.93 288.743C1095.82 288.982 1086.82 286.658 1078.97 282.036Z" fill="#263238"/>
<path d="M1614.26 2165.74L1609.61 2287.82C1609.61 2287.82 1732.13 2333.59 1733.54 2356.2L1496.4 2355.71L1495.86 2165.14L1614.26 2165.74Z" fill="#263238"/>
<path d="M1536.32 2277.38C1534.08 2278.07 1532.17 2279.55 1530.93 2281.54C1529.7 2283.52 1529.23 2285.89 1529.61 2288.2C1530.2 2290.5 1531.65 2292.49 1533.67 2293.75C1535.68 2295.01 1538.1 2295.44 1540.43 2294.96C1542.84 2294.23 1544.89 2292.63 1546.19 2290.48C1547.49 2288.32 1547.94 2285.75 1547.46 2283.28C1546.58 2280.95 1544.84 2279.05 1542.59 2277.97C1540.34 2276.89 1537.77 2276.72 1535.4 2277.49" fill="#E0E0E0"/>
<path d="M1496.4 2355.71L1497.1 2336.51L1724.29 2344.19C1724.29 2344.19 1735.1 2348.79 1733.64 2356.2L1496.4 2355.71Z" fill="#455A64"/>
<path d="M1613.45 2286.63C1613.45 2287.77 1607.61 2288.31 1601.93 2292.04C1596.25 2295.78 1593.17 2300.59 1592.08 2300.1C1591 2299.62 1592.79 2292.96 1599.77 2288.64C1606.74 2284.31 1613.72 2285.55 1613.45 2286.63Z" fill="white"/>
<path d="M1638.28 2296.97C1638.55 2298.1 1633.57 2300.05 1629.62 2304.92C1625.68 2309.79 1624.54 2315.03 1623.35 2314.98C1622.16 2314.92 1621.51 2308.38 1626.49 2302.38C1631.46 2296.37 1638.28 2295.88 1638.28 2296.97Z" fill="white"/>
<path d="M1652.34 2326.77C1651.32 2326.77 1649.69 2321.36 1652.72 2314.87C1655.75 2308.38 1661.11 2306.05 1661.59 2307.03C1662.08 2308 1658.73 2311.35 1656.18 2316.6C1653.64 2321.85 1653.53 2326.66 1652.34 2326.77Z" fill="white"/>
<path d="M1611.45 2258.83C1610.96 2259.91 1605.61 2258.29 1599.06 2258.83C1592.52 2259.37 1587.43 2261.32 1586.84 2260.34C1586.24 2259.37 1591.17 2254.94 1598.85 2254.94C1606.53 2254.94 1611.99 2257.8 1611.45 2258.83Z" fill="white"/>
<path d="M1324 2149.08L1311.19 2296.7L1334.61 2415.7C1335.01 2417.74 1334.99 2419.84 1334.54 2421.87C1334.1 2423.9 1333.24 2425.82 1332.02 2427.5C1330.8 2429.19 1329.25 2430.6 1327.46 2431.66C1325.68 2432.72 1323.69 2433.4 1321.62 2433.66C1319.23 2433.97 1316.79 2433.7 1314.52 2432.87C1312.26 2432.04 1310.22 2430.68 1308.59 2428.9C1287.49 2405.85 1210.14 2320.71 1211.71 2309.89C1213.49 2297.45 1214.96 2153.62 1214.96 2153.62L1324 2149.08Z" fill="#263238"/>
<path d="M1321.62 2433.76L1212.36 2300.16L1211.93 2306.43C1211.59 2311.83 1213.16 2317.17 1216.36 2321.52C1225.07 2333.1 1249.68 2364.8 1308.32 2429C1310 2430.84 1312.11 2432.24 1314.46 2433.07C1316.81 2433.9 1319.32 2434.14 1321.79 2433.76H1321.62Z" fill="#455A64"/>
<g opacity="0.6">
<path d="M1245.68 2254.5C1247.4 2255.96 1248.53 2258 1248.85 2260.23C1249.17 2262.47 1248.66 2264.74 1247.41 2266.62C1246.02 2268.4 1244 2269.58 1241.77 2269.92C1239.54 2270.26 1237.26 2269.74 1235.4 2268.46C1233.58 2266.9 1232.4 2264.73 1232.08 2262.35C1231.76 2259.98 1232.32 2257.57 1233.67 2255.58C1235.31 2253.88 1237.54 2252.88 1239.9 2252.79C1242.26 2252.7 1244.56 2253.53 1246.33 2255.1" fill="white"/>
</g>
<path d="M1292.04 2367.01C1295.88 2362.58 1300.52 2358.91 1305.72 2356.2C1311.26 2354.36 1317.1 2353.62 1322.92 2354.03C1322.92 2353.65 1321.25 2352.41 1317.84 2351.71C1313.33 2350.91 1308.69 2351.42 1304.47 2353.18C1300.24 2354.93 1296.6 2357.85 1293.98 2361.61C1292.04 2364.85 1291.71 2367.01 1292.04 2367.01Z" fill="white"/>
<path d="M1301.29 2387.57C1305.67 2385.52 1310.17 2383.72 1314.76 2382.16C1319.59 2381.59 1324.44 2381.28 1329.31 2381.24C1327.12 2379.69 1324.6 2378.67 1321.95 2378.29C1319.29 2377.9 1316.59 2378.15 1314.05 2379.02C1305.18 2380.92 1300.53 2387.14 1301.29 2387.57Z" fill="white"/>
<path d="M1274.13 2340.56C1274.73 2341.32 1282.46 2334.34 1294.31 2330.66C1306.15 2326.99 1316.43 2327.96 1316.54 2326.99C1316.65 2326.01 1305.99 2323.42 1293.33 2327.58C1285.59 2329.48 1278.78 2334.08 1274.13 2340.56Z" fill="white"/>
<path d="M1274.29 2295.45C1274.62 2296.37 1282.95 2293.5 1293.61 2293.77C1304.26 2294.04 1312.48 2297.18 1312.86 2296.26C1307.11 2292.66 1300.48 2290.68 1293.69 2290.53C1286.9 2290.39 1280.2 2292.09 1274.29 2295.45Z" fill="white"/>
<path d="M1276.94 2252.12C1283.5 2250.44 1290.25 2249.67 1297.01 2249.85C1308.21 2250.83 1315.73 2256.83 1316.27 2256.02C1316.81 2255.21 1315.03 2253.75 1311.78 2251.58C1307.42 2248.81 1302.48 2247.1 1297.34 2246.61C1292.21 2246.07 1287.04 2246.77 1282.25 2248.66C1278.57 2250.18 1276.73 2251.8 1276.94 2252.12Z" fill="white"/>
<path d="M1297.28 2241.58C1297.88 2239.84 1298.09 2237.99 1297.88 2236.17C1297.7 2231.02 1296.51 2225.97 1294.36 2221.29C1293.1 2217.71 1290.68 2214.65 1287.49 2212.58C1286.38 2212.02 1285.12 2211.8 1283.89 2211.97C1282.65 2212.13 1281.49 2212.67 1280.57 2213.5C1278.88 2215.28 1277.9 2217.6 1277.81 2220.05C1277.88 2225.01 1279.65 2229.8 1282.83 2233.61C1286.01 2237.42 1290.41 2240.03 1295.28 2240.98C1300.13 2241.79 1305.1 2241.14 1309.58 2239.12C1314.06 2237.1 1317.84 2233.79 1320.43 2229.62C1321.09 2228.56 1321.5 2227.38 1321.65 2226.15C1321.8 2224.91 1321.68 2223.66 1321.3 2222.48C1320.8 2221.33 1319.96 2220.36 1318.88 2219.72C1317.8 2219.08 1316.55 2218.8 1315.3 2218.91C1311.61 2219.47 1308.14 2221.01 1305.23 2223.35C1301.01 2226.28 1297.35 2229.94 1294.42 2234.17C1293.21 2235.6 1292.33 2237.28 1291.82 2239.09C1296.03 2233.79 1300.99 2229.12 1306.53 2225.24C1309.12 2223.31 1312.15 2222.06 1315.35 2221.62C1316.03 2221.53 1316.72 2221.66 1317.32 2222.01C1317.92 2222.35 1318.38 2222.88 1318.65 2223.51C1318.84 2224.3 1318.86 2225.12 1318.72 2225.92C1318.58 2226.72 1318.28 2227.48 1317.84 2228.16C1315.49 2231.7 1312.16 2234.49 1308.27 2236.2C1304.38 2237.91 1300.08 2238.46 1295.88 2237.79C1291.74 2237 1288 2234.83 1285.26 2231.64C1282.52 2228.44 1280.94 2224.41 1280.79 2220.21C1280.8 2218.52 1281.42 2216.89 1282.52 2215.61C1283.01 2215.11 1283.65 2214.78 1284.34 2214.68C1285.03 2214.57 1285.74 2214.69 1286.36 2215.02C1289.03 2216.77 1291.11 2219.3 1292.31 2222.27C1295.1 2228.36 1296.78 2234.9 1297.28 2241.58Z" fill="white"/>
<path d="M1728.45 1136.26C1739.9 1186.85 1743.76 1238.86 1739.92 1290.58C1737.54 1323.47 1626.65 2231.24 1626.65 2231.24H1477.14L1519.17 1378.05L1506.94 1380.7C1506.94 1380.7 1425.32 1744.58 1418.67 1803.48C1412.72 1856.44 1343.86 2241.2 1343.86 2241.2L1207.44 2242.6L1250.71 1734.14L1301.5 1245.85L1321.03 1103.48L1728.45 1136.26Z" fill="#263238"/>
<path d="M1513.76 1320.17C1513.76 1320.17 1514.03 1320.6 1514.73 1321.2C1515.81 1322 1517.05 1322.57 1518.36 1322.88C1520.82 1323.4 1523.37 1323.38 1525.82 1322.79C1528.27 1322.21 1530.56 1321.1 1532.53 1319.52C1535.35 1317.11 1537.66 1314.16 1539.33 1310.85C1540.99 1307.53 1541.97 1303.91 1542.21 1300.21C1543.29 1292.1 1543.46 1283.39 1544.05 1274.14C1545.08 1255.64 1545.84 1238.92 1546.22 1226.81C1546.67 1220.27 1546.67 1213.71 1546.22 1207.17C1545 1213.62 1544.3 1220.15 1544.11 1226.7C1543.19 1238.82 1542.1 1255.48 1541.08 1273.98C1540.48 1283.17 1540.37 1292.1 1539.51 1299.83C1539.19 1306.7 1536.22 1313.17 1531.23 1317.9C1529.51 1319.39 1527.49 1320.5 1525.31 1321.17C1523.13 1321.84 1520.84 1322.05 1518.57 1321.79C1516.92 1321.41 1515.31 1320.86 1513.76 1320.17Z" fill="#455A64"/>
<path d="M1293.98 1232.38C1295.27 1233.13 1296.68 1233.64 1298.15 1233.89C1302.07 1234.91 1306.07 1235.58 1310.1 1235.9C1323.52 1237.04 1337.02 1235.03 1349.51 1230.01C1362.01 1225 1373.15 1217.12 1382.05 1207.01C1384.72 1203.97 1387.15 1200.71 1389.29 1197.27C1390.19 1196.04 1390.88 1194.67 1391.35 1193.22C1390.92 1193.22 1387.56 1198.3 1380.53 1205.55C1371.49 1214.98 1360.54 1222.38 1348.41 1227.25C1336.29 1232.12 1323.27 1234.35 1310.21 1233.79C1300.04 1233.46 1293.98 1231.89 1293.98 1232.38Z" fill="#455A64"/>
<path d="M1668.9 1194.41C1668.85 1199.49 1669.62 1204.55 1671.17 1209.39C1677.48 1233.35 1691.56 1254.54 1711.2 1269.65C1715.09 1272.95 1719.47 1275.63 1724.18 1277.6C1724.83 1276.79 1704.22 1265.05 1688.64 1241.25C1673.06 1217.45 1669.87 1194.08 1668.9 1194.41Z" fill="#455A64"/>
<path d="M2125.6 937.578L2159.89 948.396L2222.2 913.939L2257.58 1012.44L2172.76 1032.62L2108.5 1025.53L2125.6 937.578Z" fill="#AE7461"/>
<path d="M1726.72 542.165C1726.72 542.165 1761.77 563.207 1790.82 634.717C1847.83 775.356 1883.7 851.085 1883.7 851.085L2145.28 933.575L2124.35 1038.51C2124.35 1038.51 1858.98 1001.51 1823.44 988.208C1774.75 969.979 1738.73 874.074 1738.73 874.074L1726.72 542.165Z" fill="#E0E0E0"/>
<path d="M1654.56 227.079C1661.28 227.326 1667.86 225.118 1673.06 220.867C1678.27 216.616 1681.75 210.613 1682.85 203.983C1683.95 197.352 1682.6 190.548 1679.04 184.842C1675.49 179.137 1669.98 174.922 1663.54 172.987C1667.54 168.459 1670.01 162.787 1670.6 156.775C1671.19 150.763 1669.87 144.719 1666.82 139.501C1663.78 134.283 1659.17 130.158 1653.65 127.711C1648.12 125.264 1641.97 124.621 1636.06 125.872C1635.51 119.951 1633.44 114.273 1630.05 109.392C1626.65 104.511 1622.05 100.594 1616.68 98.0219C1611.32 95.4501 1605.39 94.312 1599.45 94.7184C1593.52 95.1248 1587.8 97.062 1582.84 100.341C1575.87 95.2479 1567.41 92.6257 1558.78 92.8903C1550.16 93.1549 1541.87 96.291 1535.23 101.801C1529.42 101.077 1523.52 102.234 1518.4 105.102C1513.29 107.97 1509.22 112.399 1506.81 117.742C1504.39 123.084 1503.74 129.06 1504.97 134.796C1506.19 140.531 1509.21 145.725 1513.6 149.619" fill="#263238"/>
<path d="M1530.69 129.172H1536.75C1566.16 127.686 1595.06 137.338 1617.68 156.205C1640.29 175.072 1654.97 201.768 1658.78 230.973C1666.14 287.337 1673.55 349.651 1674.68 379.997C1677.06 442.852 1614.7 455.726 1614.7 455.726L1623.78 530.913L1471.08 533.78L1444.04 260.724C1435.11 195.543 1465.51 136.258 1530.69 129.172Z" fill="#AE7461"/>
<path d="M1615.24 455.402C1586.15 456.803 1557.26 449.858 1531.99 435.388C1531.99 435.388 1553.63 479.635 1615.99 470.872L1615.24 455.402Z" fill="#6F4439"/>
<path d="M1636.17 288.689C1636.32 291.022 1635.55 293.321 1634.02 295.091C1632.49 296.862 1630.33 297.962 1628 298.155C1625.74 298.398 1623.47 297.731 1621.69 296.301C1619.92 294.871 1618.78 292.795 1618.54 290.528C1618.41 288.193 1619.2 285.902 1620.74 284.137C1622.27 282.371 1624.43 281.269 1626.76 281.062C1627.88 280.942 1629.01 281.045 1630.09 281.364C1631.17 281.682 1632.17 282.211 1633.05 282.92C1633.92 283.629 1634.65 284.503 1635.18 285.493C1635.72 286.483 1636.06 287.569 1636.17 288.689Z" fill="#263238"/>
<path d="M1646.83 262.131C1645.74 263.375 1638.71 258.669 1629.03 259.155C1619.35 259.642 1612.8 264.835 1611.45 263.753C1610.1 262.671 1611.94 261.049 1614.91 258.669C1618.95 255.57 1623.84 253.794 1628.92 253.584C1633.94 253.315 1638.92 254.64 1643.15 257.37C1646.23 259.534 1647.31 261.59 1646.83 262.131Z" fill="#263238"/>
<path d="M1548.22 291.124C1548.3 292.301 1548.16 293.484 1547.79 294.604C1547.41 295.724 1546.82 296.76 1546.05 297.65C1545.27 298.54 1544.33 299.268 1543.27 299.792C1542.22 300.315 1541.06 300.623 1539.89 300.699C1538.75 300.849 1537.6 300.77 1536.49 300.465C1535.39 300.161 1534.35 299.637 1533.46 298.926C1532.56 298.214 1531.81 297.329 1531.26 296.323C1530.71 295.318 1530.37 294.212 1530.26 293.072C1530.12 290.742 1530.9 288.45 1532.42 286.683C1533.95 284.916 1536.1 283.812 1538.43 283.605C1539.57 283.431 1540.73 283.489 1541.85 283.776C1542.96 284.062 1544.01 284.573 1544.93 285.275C1545.84 285.978 1546.6 286.858 1547.17 287.863C1547.73 288.868 1548.09 289.978 1548.22 291.124Z" fill="#263238"/>
<path d="M1552 268.675C1550.92 269.865 1543.89 265.159 1534.26 265.7C1524.63 266.241 1517.76 271.11 1516.63 270.244C1515.49 269.379 1517.11 267.594 1520.09 265.159C1524.12 262.06 1529.02 260.284 1534.1 260.075C1539.13 259.81 1544.11 261.155 1548.32 263.915C1551.41 266.025 1552.49 268.243 1552 268.675Z" fill="#263238"/>
<path d="M1590.57 338.563C1595.59 336.717 1600.83 335.5 1606.15 334.939C1608.58 334.56 1610.91 333.965 1611.23 332.288C1611.3 329.727 1610.6 327.204 1609.23 325.04C1606.58 319.198 1603.82 313.032 1601.01 306.649C1589.54 280.414 1581.1 258.777 1582.19 258.344C1583.27 257.912 1593.38 278.791 1604.85 305.026C1607.61 311.463 1610.26 317.629 1612.75 323.525C1614.46 326.424 1615.09 329.834 1614.53 333.154C1614.22 334.042 1613.71 334.847 1613.03 335.503C1612.35 336.16 1611.54 336.652 1610.64 336.94C1609.29 337.388 1607.89 337.661 1606.47 337.752C1601.23 338.699 1595.88 338.972 1590.57 338.563Z" fill="#263238"/>
<path d="M1558.55 231.081C1557.36 233.624 1548.97 231.352 1538.75 231.514C1528.53 231.676 1520.09 233.84 1519.01 231.514C1518.57 230.324 1520.25 227.998 1523.82 226.105C1528.44 223.482 1533.66 222.103 1538.97 222.102C1544.19 222.022 1549.34 223.328 1553.9 225.889C1557.41 227.62 1559.03 229.891 1558.55 231.081Z" fill="#263238"/>
<path d="M1645.58 222.318C1643.63 224.59 1635.58 222.697 1625.95 223.076C1616.32 223.454 1608.37 225.456 1606.37 223.076C1605.5 221.994 1606.64 219.722 1610.1 217.666C1614.86 214.822 1620.29 213.309 1625.84 213.285C1631.35 213.032 1636.83 214.285 1641.69 216.909C1644.93 218.965 1646.12 221.182 1645.58 222.318Z" fill="#263238"/>
<path d="M1651.32 202.196C1651.32 202.196 1632.76 163.683 1613.45 155.461C1589.92 145.508 1581.32 171.201 1559.36 166.279C1537.4 161.357 1514.68 151.674 1493.15 169.687C1469.62 189.43 1481.74 201.817 1481.57 229.783C1481.09 343.106 1462.05 376.102 1453.5 323.146C1452.58 317.358 1436.14 313.518 1432.51 289.014C1427.86 257.208 1424.67 218.694 1430.67 195.435C1435.76 176.016 1445.98 162.276 1464.81 146.752C1494.5 122.248 1536.86 119.706 1565.8 121.112C1594.74 122.519 1651.48 152.81 1651.32 202.196Z" fill="#263238"/>
<path d="M1457.13 321.144C1456.93 318.84 1456.27 316.599 1455.19 314.556C1454.11 312.513 1452.62 310.712 1450.82 309.26C1449.02 307.809 1446.94 306.738 1444.72 306.112C1442.49 305.487 1440.16 305.319 1437.87 305.62C1426.18 307.297 1413.53 314.599 1415.47 338.778C1418.99 381.673 1461.29 369.286 1461.29 368.096C1461.29 366.906 1458.75 339.049 1457.13 321.144Z" fill="#AE7461"/>
<path d="M1450.85 352.68C1450.85 352.68 1450.15 353.275 1448.96 353.978C1447.28 354.817 1445.36 355.009 1443.55 354.519C1438.84 353.221 1434.46 346.351 1433.6 338.67C1433.2 335.017 1433.62 331.32 1434.84 327.852C1435.13 326.477 1435.75 325.194 1436.64 324.111C1437.54 323.027 1438.68 322.177 1439.98 321.631C1440.82 321.343 1441.74 321.352 1442.57 321.657C1443.41 321.962 1444.12 322.545 1444.58 323.308C1445.23 324.498 1445.01 325.364 1445.28 325.418C1445.55 325.472 1446.14 324.606 1445.66 322.875C1445.28 321.851 1444.6 320.965 1443.71 320.333C1443.1 319.926 1442.4 319.649 1441.68 319.519C1440.95 319.388 1440.21 319.408 1439.49 319.576C1437.76 320.068 1436.18 320.999 1434.91 322.278C1433.64 323.557 1432.72 325.141 1432.24 326.878C1430.72 330.743 1430.17 334.92 1430.62 339.049C1431.59 347.65 1436.68 355.277 1443.06 356.683C1444.24 356.927 1445.45 356.898 1446.62 356.598C1447.78 356.298 1448.86 355.735 1449.77 354.952C1450.85 353.762 1450.85 352.788 1450.85 352.68Z" fill="#6F4439"/>
<path d="M1453.83 237.897C1459.32 241.907 1465.74 244.474 1472.49 245.362C1475.88 245.698 1479.28 244.784 1482.05 242.793C1484.82 240.801 1486.76 237.868 1487.53 234.543C1487.9 231.514 1486.98 228.106 1488.82 225.672C1490.66 223.238 1495.42 223.455 1499.05 223.671C1511.6 224.374 1525.5 209.823 1528.04 197.544C1529.8 199.774 1532.35 201.253 1535.16 201.684C1537.97 202.116 1540.83 201.468 1543.19 199.87C1547.02 197.242 1550.37 193.965 1553.08 190.188C1554.65 187.77 1556.77 185.768 1559.28 184.354C1561.78 182.941 1564.6 182.158 1567.47 182.074C1570.54 182.959 1573.7 183.486 1576.89 183.643C1582.29 182.886 1584.94 176.124 1585.54 170.498C1586.13 164.873 1586.46 158.274 1590.95 155.028C1595.44 151.783 1601.06 153.297 1606.31 153.838C1611.56 154.379 1618.16 152.81 1619.24 147.618C1619.4 146.246 1619.28 144.856 1618.88 143.534C1618.48 142.212 1617.81 140.987 1616.91 139.936C1613.16 134.932 1607.83 131.335 1601.79 129.726C1595.75 128.117 1589.34 128.589 1583.59 131.065C1581.03 124.09 1576.47 118.022 1570.49 113.618C1564.5 109.215 1557.35 106.67 1549.93 106.301C1542.51 105.932 1535.14 107.755 1528.75 111.543C1522.35 115.331 1517.22 120.916 1513.98 127.603C1509.21 123.701 1503.57 121.005 1497.53 119.744C1491.5 118.484 1485.25 118.696 1479.32 120.362C1473.39 122.029 1467.94 125.101 1463.45 129.318C1458.95 133.535 1455.54 138.773 1453.5 144.588C1448.17 143.479 1442.63 143.959 1437.57 145.969C1432.51 147.979 1428.15 151.43 1425.04 155.894C1421.92 160.358 1420.18 165.639 1420.04 171.082C1419.9 176.524 1421.36 181.889 1424.24 186.51C1420.35 188.681 1417.08 191.807 1414.73 195.592C1412.38 199.377 1411.04 203.698 1410.82 208.147C1410.82 217.018 1420.18 225.456 1428.67 222.697C1427.76 224.509 1427.22 226.481 1427.07 228.503C1426.93 230.524 1427.18 232.555 1427.82 234.479C1428.46 236.402 1429.47 238.182 1430.79 239.715C1432.12 241.248 1433.73 242.505 1435.54 243.415C1437.35 244.324 1439.33 244.867 1441.35 245.014C1443.37 245.161 1445.4 244.908 1447.32 244.27C1449.25 243.633 1451.03 242.622 1452.56 241.296C1454.09 239.971 1455.35 238.356 1456.26 236.545" fill="#263238"/>
<path d="M1587.43 143.831C1587.43 143.831 1587.43 144.102 1587.43 144.642C1587.43 145.183 1587.43 145.941 1587.43 146.968C1586.98 149.888 1586.07 152.718 1584.73 155.353C1582.59 159.609 1579.5 163.312 1575.7 166.171C1570.71 169.995 1564.61 172.068 1558.33 172.067L1559.03 170.877C1560.51 174.725 1560.41 179 1558.76 182.777C1557 186.68 1554.71 190.32 1551.95 193.596C1550.61 195.558 1549.07 197.372 1547.35 199.005C1545.41 200.5 1543.12 201.486 1540.7 201.872C1538.18 202.362 1535.59 202.229 1533.13 201.484C1530.68 200.739 1528.45 199.405 1526.63 197.599L1528.2 197.058C1527.83 201.51 1526.53 205.835 1524.38 209.756C1522.24 213.677 1519.3 217.108 1515.76 219.83C1511.83 223.083 1506.95 224.98 1501.86 225.24C1497.09 225.255 1492.36 224.469 1487.85 222.914L1488.93 222.319C1486.88 227.545 1483.55 232.175 1479.25 235.788C1477.3 237.634 1474.96 239.024 1472.41 239.857C1469.85 240.69 1467.15 240.944 1464.48 240.602C1459.96 239.849 1455.76 237.804 1452.38 234.713C1449 231.621 1446.59 227.617 1445.44 223.184L1446.42 223.617C1442.03 226.243 1436.86 227.257 1431.81 226.484C1428.02 225.994 1424.4 224.603 1421.26 222.427C1419.29 221.052 1417.57 219.35 1416.18 217.396C1415.68 216.735 1415.28 216.006 1414.99 215.233C1416.81 217.815 1419.08 220.05 1421.7 221.832C1424.76 223.838 1428.27 225.081 1431.92 225.456C1436.72 226.1 1441.6 225.048 1445.71 222.481L1446.52 221.994V222.914C1447.65 227.073 1449.95 230.818 1453.16 233.697C1456.36 236.576 1460.33 238.467 1464.59 239.141C1467.02 239.447 1469.5 239.197 1471.82 238.41C1474.14 237.623 1476.26 236.32 1478 234.598C1482.01 231.054 1485.07 226.576 1486.93 221.561L1487.2 220.75H1488.07C1492.38 222.264 1496.91 223.032 1501.48 223.022C1506.18 222.801 1510.68 221.054 1514.3 218.045C1517.68 215.472 1520.49 212.215 1522.53 208.487C1524.57 204.76 1525.8 200.644 1526.15 196.409V194.407L1527.61 195.868C1529.21 197.461 1531.17 198.638 1533.33 199.298C1535.49 199.958 1537.78 200.08 1539.99 199.654C1542.15 199.325 1544.2 198.471 1545.94 197.166C1547.53 195.695 1548.97 194.064 1550.22 192.298C1552.95 189.163 1555.21 185.646 1556.93 181.858C1557.71 180.172 1558.15 178.346 1558.22 176.487C1558.28 174.628 1557.97 172.776 1557.3 171.039L1556.93 170.012H1558.01C1564 170.074 1569.85 168.175 1574.67 164.602C1578.46 162.019 1581.62 158.618 1583.92 154.649C1585.7 151.273 1586.89 147.613 1587.43 143.831Z" fill="#455A64"/>
<path d="M1590.14 371.667C1589.81 370.044 1579.32 372.803 1569.58 365.825C1559.85 358.847 1558.01 347.379 1556.55 347.704C1555.09 348.029 1555.14 350.679 1556.28 355.439C1557.81 361.568 1561.45 366.965 1566.55 370.693C1571.47 374.269 1577.57 375.801 1583.59 374.966C1588.08 374.209 1590.35 372.37 1590.14 371.667Z" fill="#263238"/>
<path d="M1845.07 768.811C1844.1 765.403 1788.17 613.188 1770.37 579.868C1749.01 540.002 1704.11 522.368 1676.25 520.366C1648.4 518.365 1350.35 542.436 1350.35 542.436C1350.35 542.436 1261.31 562.342 1249.95 638.936C1236.86 727.106 1225.45 928.924 1225.45 928.924L1361.11 859.361L1378.69 815.114L1659.43 877.753L1727.96 776.709L1845.07 768.811Z" fill="#E0E0E0"/>
<path d="M1330.66 551.361L1447.06 500.028L1460.1 449.83L1596.03 514.091L1624.49 482.61L1636.44 518.094L1666.19 527.831L1735.81 650.241V911.073L1749.87 1136.1L1734.56 1171.58L1609.88 1189.97C1596.25 1191.97 1582.4 1191.97 1568.77 1189.97L1315.62 1148.7L1309.13 1074.21L1336.18 869.26L1330.66 551.361Z" fill="#E0E0E0"/>
<path d="M1460.1 449.83C1460.1 449.83 1475.3 454.212 1514.19 475.037C1552.44 495.43 1595.87 514.091 1595.87 514.091L1592.57 575.432L1447.93 502.84" fill="#E0E0E0"/>
<path d="M1624.49 482.609L1596.03 514.091L1611.23 579.867L1636.6 520.42" fill="#E0E0E0"/>
<g opacity="0.3">
<path d="M1596.57 520.853C1597.82 521.827 1605.72 596.582 1605.72 596.582L1460.75 508.953L1592.73 575.216L1596.57 520.853Z" fill="black"/>
</g>
<path d="M1595.6 800.671C1593.38 743.334 1602.42 597.069 1602.42 597.069L1621.35 593.985C1645.46 698.119 1661.73 803.913 1670.03 910.478C1675.44 980.798 1675.44 1062.75 1675.44 1062.75L1637.58 1144.21L1595.6 1063.07C1595.6 1063.07 1598.25 870.396 1595.6 800.671Z" fill="#455A64"/>
<path d="M1322 560.34C1321.73 560.61 1325.9 563.856 1331.79 569.914C1347.11 585.774 1357.75 605.562 1362.52 627.089C1364.3 635.311 1364.74 640.558 1365.06 640.504C1365.26 639.286 1365.26 638.044 1365.06 636.826C1364.86 633.467 1364.45 630.125 1363.82 626.819C1361.89 615.839 1358.24 605.232 1353 595.391C1347.71 585.562 1340.92 576.618 1332.88 568.886C1330.47 566.544 1327.91 564.375 1325.19 562.395C1324.21 561.591 1323.14 560.901 1322 560.34Z" fill="#263238"/>
<path d="M1595.6 543.409L1608.53 538.379L1620.81 559.421L1623.03 593.986L1605.72 596.798L1592.73 575.432L1595.6 543.409Z" fill="#455A64"/>
<path d="M1735.59 646.292C1735.05 646.292 1734.56 721.155 1734.56 813.436C1734.56 905.717 1735.05 980.635 1735.59 980.635C1736.13 980.635 1736.62 905.826 1736.62 813.436C1736.62 721.047 1736.13 646.292 1735.59 646.292Z" fill="#263238"/>
<path d="M1594.68 513.551C1596.92 517.836 1599.38 522.006 1602.04 526.046C1607.96 536.045 1613.38 546.335 1618.27 556.878C1618.75 557.906 1619.24 558.88 1619.67 559.854L1620.59 561.801L1621.51 559.854C1626.23 549.92 1630.26 539.673 1633.57 529.183C1634.82 525.235 1635.74 521.989 1636.28 519.717C1636.72 518.578 1636.94 517.367 1636.93 516.147C1636.66 516.147 1635.14 520.961 1632.28 528.751C1628.59 539.035 1624.38 549.127 1619.67 558.988H1621.51L1620.1 556.013C1615.13 545.396 1609.44 535.13 1603.07 525.289C1600.58 521.556 1598.47 518.581 1596.95 516.526C1595.44 514.47 1594.79 513.443 1594.68 513.551Z" fill="#263238"/>
<path d="M1447.06 500.027C1447.68 500.497 1448.36 500.897 1449.07 501.217L1454.91 504.301L1476.54 515.498C1494.77 524.964 1519.82 538.487 1547.41 553.362C1564.23 562.341 1580.18 570.672 1594.09 577.595L1595.38 578.244V576.568C1595.38 558.555 1595.71 543.409 1595.82 532.428C1595.82 527.019 1595.82 523.125 1595.82 519.987C1595.92 518.511 1595.92 517.028 1595.82 515.552C1595.56 517.017 1595.44 518.501 1595.44 519.987C1595.44 523.071 1595.17 527.236 1594.95 532.374C1594.68 543.193 1594.3 558.555 1593.82 576.514L1595.11 575.756C1581.32 568.67 1565.42 560.286 1548.54 551.307C1520.9 536.54 1495.8 523.233 1477.41 514.037C1468.21 509.493 1460.7 505.869 1455.5 503.219L1449.44 500.514C1448.68 500.236 1447.88 500.072 1447.06 500.027Z" fill="#263238"/>
<path d="M1718.12 547.358C1717.8 547.358 1720.07 551.361 1723.04 558.177C1726.81 566.72 1729.59 575.668 1731.32 584.844C1732.98 594.049 1733.56 603.416 1733.05 612.755C1732.67 619.95 1731.91 624.331 1732.24 624.385C1732.69 623.426 1733 622.405 1733.16 621.356C1733.74 618.551 1734.18 615.716 1734.46 612.864C1736.4 593.844 1732.87 574.666 1724.29 557.582C1723.04 554.994 1721.61 552.5 1720.01 550.117C1718.88 548.17 1718.23 547.25 1718.12 547.358Z" fill="#263238"/>
<path d="M1608.91 599.016C1608.91 599.502 1612.48 597.934 1616.21 595.554C1619.94 593.174 1622.81 590.902 1622.48 590.415C1619.8 590.988 1617.28 592.172 1615.13 593.877C1611.4 596.257 1608.58 598.529 1608.91 599.016Z" fill="#263238"/>
<path d="M1602.69 590.577C1606.19 585.043 1609.12 579.172 1611.45 573.052C1614.39 567.252 1616.76 561.184 1618.54 554.931C1614.97 560.419 1612.02 566.277 1609.72 572.402C1606.75 578.201 1604.4 584.292 1602.69 590.577Z" fill="#263238"/>
<path d="M1306.8 564.234C1306.8 564.234 1261.96 596.69 1256.34 614.378C1250.71 632.066 1226.91 922.107 1222.69 956.618C1218.47 991.129 1214.25 1055.55 1240.92 1076.59C1267.59 1097.64 1325.03 1113.43 1325.03 1113.43L1378.1 1003.89L1349.97 944.988L1378.1 724.834L1306.8 564.234Z" fill="#E0E0E0"/>
<path d="M1312.21 1109.54C1313.17 1109.44 1314.13 1109.44 1315.08 1109.54C1317.85 1109.52 1320.61 1109.34 1323.36 1109C1333.64 1108.05 1343.52 1104.47 1352.02 1098.61C1364.72 1089.19 1374.27 1076.14 1379.4 1061.18C1386.32 1042.28 1389.84 1022.3 1389.78 1002.16L1390.05 1002.92L1348.83 945.854L1348.51 945.421V944.881C1348.51 943.42 1348.89 941.797 1349.1 940.229C1357 878.51 1364.2 822.578 1369.44 781.847C1372.04 761.779 1374.15 745.443 1375.66 733.867C1376.37 728.458 1376.91 724.023 1377.34 720.777C1377.77 717.532 1377.93 716.233 1377.99 716.233C1378.08 716.625 1378.08 717.032 1377.99 717.423C1377.99 718.181 1377.99 719.371 1377.99 720.831C1377.66 724.077 1377.29 728.458 1376.8 733.976C1375.66 745.335 1373.82 761.779 1371.39 782.063C1366.63 822.687 1359.76 878.726 1351.86 940.607C1351.86 942.176 1351.48 943.745 1351.27 945.205V944.231L1392.32 1001.35V1001.73V1002.11C1392.31 1022.55 1388.65 1042.83 1381.5 1061.99C1376.06 1077.22 1366.1 1090.43 1352.94 1099.85C1347.99 1103.24 1342.51 1105.78 1336.72 1107.37L1333.04 1108.4L1329.58 1109C1327.58 1109.4 1325.55 1109.63 1323.52 1109.7C1320.75 1109.94 1317.96 1109.94 1315.19 1109.7C1314.19 1109.75 1313.2 1109.69 1312.21 1109.54Z" fill="#263238"/>
<path d="M1258.01 965.165C1261.47 961.761 1265.45 958.931 1269.8 956.781C1290.31 945.309 1313.95 940.703 1337.26 943.636C1342.09 944.022 1346.83 945.153 1351.32 946.99C1318.97 941.452 1285.72 947.914 1257.8 965.165H1258.01Z" fill="#263238"/>
<path d="M1609.99 676.53C1609.99 676.53 1612.59 686.159 1616.64 703.144C1625.86 689.911 1637.63 678.656 1651.26 670.039C1651.26 670.039 1720.5 601.234 1742.62 528.913C1758.85 476.39 1754.69 418.187 1754.69 418.187C1754.04 415.428 1748.63 390.762 1744.25 370.586C1742.52 362.636 1743.92 354.325 1748.18 347.389C1752.43 340.454 1759.2 335.431 1767.07 333.37C1801.31 324.121 1894.41 306.108 1916.04 368.53C1947.9 461.839 1896.35 562.612 1896.95 591.444C1896.95 596.853 1896.95 601.342 1896.95 604.912C1924.26 598.584 1945.63 594.094 1945.63 594.527L2124.89 552.714C2124.89 552.714 2184.12 534.755 2204.46 595.5C2224.8 656.246 2155.78 676.639 2155.78 676.639C2155.78 676.639 2188.23 675.178 2197 730.406C2205.76 785.634 2146.53 803.539 2146.53 803.539C2146.53 803.539 2182.82 801.213 2192.24 850.166C2201.38 897.821 2142.15 926.544 2138.96 928.058C2143.66 926.881 2148.43 925.978 2153.24 925.354C2149.71 926.65 2146.09 927.698 2142.42 928.491C2170.06 932.007 2174.06 964.895 2174.06 964.895C2191.86 1032.35 2139.93 1046.52 2139.93 1046.52L1812.46 1122.9C1779.84 1130.5 1745.78 1129.27 1713.79 1119.33C1716.93 1133.28 1718.61 1140.96 1718.5 1140.96L1489.85 1194.35C1489.36 1194.35 1464.7 1090.55 1434.73 962.353C1404.76 834.155 1380.91 729.757 1381.4 729.757L1609.99 676.53Z" fill="#407BFF"/>
<g opacity="0.3">
<path d="M1609.99 676.529C1609.99 676.529 1612.59 686.158 1616.64 703.143C1625.86 689.91 1637.63 678.655 1651.26 670.038C1651.26 670.038 1720.5 601.233 1742.62 528.912C1758.85 476.389 1754.69 418.186 1754.69 418.186C1754.04 415.427 1748.63 390.761 1744.25 370.585C1742.52 362.635 1743.92 354.324 1748.18 347.388C1752.43 340.453 1759.2 335.43 1767.07 333.369C1801.31 324.12 1894.41 306.107 1916.04 368.529C1947.9 461.838 1896.35 562.611 1896.95 591.443C1896.95 596.852 1896.95 601.341 1896.95 604.912C1924.26 598.583 1945.63 594.093 1945.63 594.526L2124.89 552.713C2124.89 552.713 2184.12 534.754 2204.46 595.499C2224.8 656.245 2155.78 676.638 2155.78 676.638C2155.78 676.638 2188.23 675.177 2197 730.405C2205.76 785.633 2146.53 803.538 2146.53 803.538C2146.53 803.538 2182.82 801.212 2192.24 850.165C2201.38 897.82 2142.15 926.543 2138.96 928.057C2143.66 926.88 2148.43 925.977 2153.24 925.353C2149.71 926.649 2146.09 927.698 2142.42 928.49C2170.06 932.006 2174.06 964.894 2174.06 964.894C2191.86 1032.35 2139.93 1046.52 2139.93 1046.52L1812.46 1122.9C1779.84 1130.5 1745.78 1129.27 1713.79 1119.33C1716.93 1133.28 1718.61 1140.96 1718.5 1140.96L1489.85 1194.35C1489.36 1194.35 1464.7 1090.55 1434.73 962.352C1404.76 834.154 1380.91 729.756 1381.4 729.756L1609.99 676.529Z" fill="black"/>
</g>
<path d="M1654.18 741.657L1649.75 771.407L1722.88 1084.33C1744.29 1098.55 1768.38 1108.24 1793.68 1112.79C1818.97 1117.35 1844.93 1116.69 1869.96 1110.84L2197.32 1034.4C2197.32 1034.4 2249.25 1020.23 2231.45 952.778C2231.45 952.778 2227.18 916.969 2196.29 915.995C2196.29 915.995 2259.04 887.002 2249.68 838.049C2240.32 789.095 2204.03 791.476 2204.03 791.476C2204.03 791.476 2263.26 773.517 2254.44 718.289C2245.63 663.061 2213.22 664.521 2213.22 664.521C2213.22 664.521 2282.19 644.345 2261.91 583.383C2241.62 522.422 2182.34 540.597 2182.34 540.597L1949.74 594.689L1745.71 642.344C1722.23 647.763 1700.93 660.141 1684.6 677.861C1668.27 695.58 1657.67 717.815 1654.18 741.657Z" fill="#407BFF"/>
<path d="M1708.6 658.192C1708.6 658.192 1777.84 589.387 1799.96 517.066C1816.19 464.543 1812.02 406.394 1812.02 406.394C1811.37 403.581 1805.97 378.915 1801.58 358.739C1799.85 350.789 1801.26 342.478 1805.52 335.542C1809.77 328.607 1816.54 323.584 1824.41 321.523C1858.81 312.219 1920.86 329.312 1942.22 391.843C1974.08 485.098 1953.64 550.711 1954.18 579.542L1954.72 608.373L1708.6 658.192Z" fill="#407BFF"/>
<path d="M1667.53 664.438L1438.92 717.846L1547.44 1182.32L1776.04 1128.91L1667.53 664.438Z" fill="#407BFF"/>
<path d="M1776 1129.12C1776.48 1129.12 1752.63 1024.94 1722.66 896.522C1692.7 768.107 1668.03 664.359 1667.54 664.467C1667.06 664.575 1690.91 768.648 1720.88 897.063C1750.85 1025.48 1775.4 1129.23 1776 1129.12Z" fill="#263238"/>
<path d="M1547.41 1182.4C1547.89 1182.4 1523.98 1078.22 1494.02 949.803C1464.05 821.389 1439.38 717.64 1438.9 717.748C1438.41 717.856 1462.26 821.929 1492.23 950.344C1522.2 1078.76 1546.86 1182.4 1547.41 1182.4Z" fill="#263238"/>
<path d="M1611.67 789.799C1613.64 798.257 1613.06 807.11 1610.01 815.24C1606.95 823.37 1601.55 830.411 1594.49 835.474C1587.44 840.536 1579.04 843.392 1570.36 843.682C1561.68 843.971 1553.1 841.68 1545.72 837.098C1538.35 832.517 1532.49 825.85 1528.9 817.942C1525.31 810.033 1524.14 801.238 1525.55 792.667C1526.96 784.096 1530.87 776.135 1536.81 769.79C1542.74 763.445 1550.42 759 1558.87 757.019C1570.22 754.375 1582.15 756.341 1592.05 762.487C1601.95 768.633 1609 778.456 1611.67 789.799Z" fill="white"/>
<path d="M2003.02 582.626C2003.02 582.139 1977.87 587.549 1947.15 594.743C1916.42 601.937 1891.54 608.104 1891.65 608.59C1891.76 609.077 1916.8 603.668 1947.52 596.528C1978.25 589.388 2003.13 583.113 2003.02 582.626Z" fill="#263238"/>
<path d="M2209.11 792.557C2209.11 792.07 2192.89 795.424 2173.3 799.967C2161.32 802.404 2149.48 805.473 2137.82 809.163C2137.82 809.65 2154.05 806.296 2173.63 801.752C2185.6 799.286 2197.45 796.217 2209.11 792.557Z" fill="#263238"/>
<path d="M2217.44 662.304C2217.44 661.817 2194.62 666.739 2166.71 673.122C2138.79 679.505 2116.29 685.293 2116.4 685.834C2116.51 686.375 2139.23 681.398 2167.14 675.015C2195.05 668.632 2217.55 663.115 2217.44 662.304Z" fill="#263238"/>
<path d="M2210.68 913.237C2210.68 912.75 2187.86 917.618 2159.94 924.055C2132.03 930.492 2109.53 936.226 2109.64 936.713C2109.75 937.199 2132.46 932.331 2160.38 925.894C2188.29 919.457 2210.79 913.724 2210.68 913.237Z" fill="#263238"/>
<g opacity="0.3">
<path d="M1826.36 344.512C1823.11 348.12 1820.9 352.535 1819.95 357.294C1818.99 362.052 1819.34 366.979 1820.95 371.558C1824.37 380.671 1828.55 389.483 1833.44 397.901C1842.83 417.461 1845.53 439.565 1841.12 460.81C1839.77 467.247 1837.99 474.657 1842.1 479.796C1847.94 487.044 1859.68 483.042 1867.09 477.362C1880.88 466.291 1891.25 451.536 1896.99 434.81C1902.74 418.084 1903.62 400.072 1899.54 382.863C1896.33 368.211 1888.2 355.099 1876.5 345.702C1864.55 336.831 1846.21 328.825 1825.93 344.35" fill="white"/>
</g>
<g opacity="0.3">
<path d="M2203.65 548.872C2195.5 547.941 2187.25 548.809 2179.47 551.414L2041.32 586.466C2026.28 590.306 1998.05 593.714 1997.72 609.076C1994.69 617.461 2001.08 626.981 2009.3 630.389C2017.86 633.15 2027.01 633.487 2035.75 631.362C2054.19 628.441 2072.42 624.114 2090.65 619.787C2127.22 611.024 2163.89 602.044 2198.84 587.331C2204.09 585.431 2208.99 582.671 2213.33 579.163C2215.5 577.387 2217.24 575.149 2218.43 572.613C2219.62 570.076 2220.22 567.306 2220.2 564.504C2219.46 560.481 2217.45 556.799 2214.48 553.989C2211.5 551.18 2207.71 549.388 2203.65 548.872Z" fill="white"/>
</g>
<path d="M1616.7 690.161C1616.7 689.675 1584.24 696.761 1545.13 705.956C1506.02 715.152 1473.89 722.995 1474 723.482C1474.11 723.969 1506.13 716.937 1545.57 707.741C1585 698.546 1616.81 690.919 1616.7 690.161Z" fill="white"/>
<path d="M2233.45 743.009C2233.89 742.159 2234.18 741.246 2234.32 740.304C2234.99 737.793 2235.39 735.218 2235.51 732.623C2235.78 728.779 2235.65 724.919 2235.13 721.101C2234.4 716.421 2233.17 711.833 2231.45 707.416C2229.66 703.025 2227.37 698.852 2224.64 694.975C2222.39 691.824 2219.82 688.922 2216.96 686.32C2215.06 684.554 2212.99 682.978 2210.79 681.614C2210.05 681.023 2209.2 680.565 2208.3 680.262C2208.3 680.586 2211.49 682.75 2216.09 687.294C2218.74 689.946 2221.13 692.844 2223.23 695.948C2225.8 699.755 2227.98 703.815 2229.72 708.065C2231.38 712.354 2232.63 716.792 2233.45 721.318C2234.03 725.04 2234.28 728.804 2234.21 732.569C2234.05 738.843 2233.08 742.9 2233.45 743.009Z" fill="white"/>
<path d="M2239.78 617.461C2241.67 615.758 2243.15 613.65 2244.11 611.295C2246.76 605.755 2247.91 599.621 2247.46 593.499C2247.14 587.384 2245.28 581.449 2242.06 576.243C2240.78 574.085 2239.05 572.237 2236.97 570.834C2236.7 570.834 2238.7 573.106 2240.92 577.055C2243.8 582.163 2245.49 587.86 2245.84 593.715C2246.23 599.561 2245.3 605.419 2243.14 610.862C2241.24 614.919 2239.51 617.245 2239.78 617.461Z" fill="white"/>
<path d="M2222.53 878.24C2225.01 876.729 2227.11 874.653 2228.64 872.181C2232.78 866.366 2234.81 859.306 2234.37 852.179C2233.94 845.052 2231.08 838.289 2226.26 833.019C2224.45 830.699 2222.11 828.845 2219.45 827.609C2219.45 827.609 2222.04 829.719 2225.29 833.722C2229.51 838.996 2232.04 845.427 2232.54 852.167C2232.88 858.927 2231.14 865.63 2227.56 871.37C2224.85 875.859 2222.26 878.023 2222.53 878.24Z" fill="white"/>
<path d="M2201.76 999.405C2203.55 997.541 2204.95 995.333 2205.87 992.914C2208.42 987.151 2209.6 980.878 2209.33 974.583C2209.06 968.287 2207.34 962.14 2204.3 956.618C2203.18 954.287 2201.6 952.207 2199.65 950.506C2199.38 950.506 2201.16 952.994 2203.16 957.213C2205.73 962.681 2207.2 968.598 2207.49 974.631C2207.74 980.673 2206.78 986.704 2204.68 992.373C2203.05 996.755 2201.49 999.243 2201.76 999.405Z" fill="white"/>
<path d="M1944.77 501.542C1945.37 499.782 1945.83 497.972 1946.12 496.133C1946.5 494.456 1946.93 492.346 1947.31 489.858C1947.69 487.37 1948.17 484.449 1948.39 481.42C1949.19 474.092 1949.46 466.717 1949.2 459.35C1948.66 441.228 1945.21 423.311 1938.98 406.286C1936.44 399.358 1933.42 392.616 1929.94 386.109C1928.54 383.243 1927.02 380.7 1925.78 378.699C1924.53 376.697 1923.34 374.75 1922.32 373.29C1921.39 371.724 1920.3 370.256 1919.07 368.908C1919.82 370.566 1920.71 372.158 1921.72 373.668C1922.64 375.183 1923.72 377.022 1924.86 379.077C1926 381.133 1927.51 383.729 1928.81 386.596C1932.05 393.146 1934.91 399.884 1937.35 406.773C1940.29 415.223 1942.66 423.861 1944.44 432.629C1946.05 441.441 1947.08 450.349 1947.52 459.296C1947.82 466.51 1947.68 473.736 1947.09 480.933C1947.09 484.07 1946.55 486.883 1946.28 489.317C1946.01 491.751 1945.68 493.915 1945.41 495.646C1944.98 497.581 1944.76 499.559 1944.77 501.542Z" fill="white"/>
<path d="M1422.78 1049.6C1422.78 1049.6 1440.74 1035.65 1454.1 1035.11C1467.46 1034.56 1484.82 1039.7 1488.28 1037.97C1491.74 1036.24 1499.91 1028.61 1505.11 1035.05C1510.3 1041.49 1516.73 1064.64 1488.88 1071.02H1469.73C1469.73 1071.02 1472.05 1090.17 1476.71 1097.69C1481.36 1105.21 1546.32 1187 1546.32 1187C1546.32 1187 1554.44 1195.16 1550.38 1203.22C1546.32 1211.28 1528.74 1206.69 1528.74 1206.69C1528.74 1206.69 1516.57 1217.5 1502.67 1212.47C1495.76 1210.15 1489.14 1207.04 1482.93 1203.22C1478.43 1206.66 1472.93 1208.52 1467.27 1208.52C1461.61 1208.52 1456.11 1206.66 1451.61 1203.22C1435.38 1191.05 1381.29 1123.17 1381.29 1123.17L1400.65 1047.44L1422.78 1049.6Z" fill="#AE7461"/>
<path d="M1366.41 1004.71L1422.78 1049.6L1381.4 1123.22L1298.85 1093.25C1298.85 1093.25 1301.23 1006.27 1366.41 1004.71Z" fill="#AE7461"/>
<path d="M2245.57 904.42C2245.57 904.42 2243.79 884.243 2232.48 888.192C2221.18 892.141 2216.25 916.103 2216.25 916.103L2245.57 904.42Z" fill="#AE7461"/>
<path d="M2205.16 924.325C2205.16 924.325 2224.8 902.364 2252.06 904.149C2279.32 905.934 2262.18 929.086 2262.18 929.086C2262.18 929.086 2282.41 941.527 2267.59 959.377L2265.21 964.137C2265.21 964.137 2282.41 970.628 2264.61 989.02C2266.41 992.312 2267.15 996.081 2266.73 999.81C2266.3 1003.54 2264.73 1007.04 2262.23 1009.85C2253.31 1018.72 2231.07 1006.87 2231.07 1006.87C2231.07 1006.87 2210.57 1011.63 2208.79 1003.3C2208.08 1000.51 2208.14 997.574 2208.98 994.817C2209.82 992.061 2211.4 989.588 2213.55 987.667C2215.33 986.477 2226.04 982.258 2226.04 982.258C2226.04 982.258 2202.3 985.233 2201.7 979.283C2201.11 973.333 2198.73 966.788 2216.52 960.892L2226.04 958.349C2226.04 958.349 2201.38 959.107 2201.22 952.94C2201.05 946.774 2199.92 944.61 2208.79 940.499C2214.39 937.895 2219.82 934.913 2225.02 931.574C2225.02 931.574 2201.65 936.821 2205.16 924.325Z" fill="#AE7461"/>
<path d="M2200.84 947.531C2209.73 940.936 2219.66 935.855 2230.21 932.493C2240.96 929.855 2252.07 928.978 2263.1 929.897C2260.02 928.622 2256.74 927.925 2253.41 927.841C2237.21 926.447 2221.06 931.004 2207.98 940.661C2205.17 942.456 2202.74 944.791 2200.84 947.531Z" fill="#6F4439"/>
<path d="M2203.54 981.446C2203.54 981.446 2203 980.689 2202.41 979.337C2201.72 977.339 2201.72 975.168 2202.41 973.17C2203.32 970.143 2205.22 967.512 2207.82 965.705C2211.11 963.539 2214.78 962.016 2218.63 961.216C2228.94 959.344 2239.34 958.079 2249.79 957.429C2246.76 956.588 2243.62 956.241 2240.49 956.401C2232.95 956.339 2225.44 957.156 2218.09 958.836C2213.91 959.713 2209.95 961.444 2206.46 963.92C2203.55 966.073 2201.52 969.204 2200.73 972.737C2200.39 973.905 2200.29 975.128 2200.43 976.334C2200.57 977.541 2200.95 978.709 2201.54 979.769C2202.73 981.23 2203.49 981.554 2203.54 981.446Z" fill="#6F4439"/>
<path d="M2213.55 1007.57C2213.55 1007.57 2212.68 1007.03 2211.49 1005.9C2210.48 1004.92 2209.69 1003.74 2209.17 1002.44C2208.64 1001.14 2208.4 999.741 2208.45 998.338C2208.5 996.935 2208.85 995.559 2209.46 994.298C2210.08 993.037 2210.96 991.921 2212.03 991.021C2215.6 988.613 2219.53 986.788 2223.66 985.612C2231.49 983.991 2239.51 983.572 2247.46 984.368C2250.84 984.807 2254.27 984.624 2257.58 983.827C2254.27 983.208 2250.93 982.811 2247.57 982.637C2239.4 981.311 2231.05 981.531 2222.96 983.286C2218.52 984.556 2214.32 986.587 2210.57 989.29C2208.88 990.694 2207.65 992.581 2207.06 994.699C2206.69 996.484 2206.69 998.324 2207.06 1000.11C2207.27 1001.41 2207.74 1002.66 2208.43 1003.79C2209.13 1004.91 2210.04 1005.88 2211.11 1006.65C2212.47 1007.68 2213.55 1007.68 2213.55 1007.57Z" fill="#6F4439"/>
<path d="M2204.84 925.299C2204.84 925.299 2205.33 924.542 2206.57 923.406C2208.29 921.85 2210.1 920.387 2211.98 919.025C2218.12 914.443 2224.9 910.797 2232.1 908.206C2239.24 905.496 2246.88 904.389 2254.5 904.961C2257.59 905.66 2260.64 906.527 2263.64 907.557C2261.21 905.258 2258.13 903.766 2254.82 903.284C2246.92 902.12 2238.85 903.014 2231.4 905.88C2213.55 912.263 2203.38 924.488 2204.84 925.299Z" fill="#6F4439"/>
</svg>
