<svg width="298" height="287" viewBox="0 0 298 287" fill="none" xmlns="http://www.w3.org/2000/svg">
<path d="M257.108 245.333H282.096V237.38H257.108V245.333Z" fill="#EBEBEB"/>
<path d="M196.288 166.88H221.276V158.928H196.288V166.88Z" fill="#EBEBEB"/>
<path d="M271.045 255.354L283.624 255.148L289.842 255.062H296.033L295.706 255.382V247.43L296.061 247.785L283.567 247.742L277.32 247.678L271.073 247.6L271.244 247.43L271.045 255.354ZM271.045 255.354L270.881 247.401V247.238H271.052L277.299 247.159L283.546 247.096L296.04 247.046H296.395V247.401V255.354V255.681H296.075H289.771L283.496 255.595L271.045 255.354Z" fill="#EBEBEB"/>
<path d="M112.427 61.4788L125.006 61.2727L131.225 61.1874L137.415 61.1519L137.095 61.4788V53.5262L137.45 53.8816L124.956 53.8318L118.709 53.775L112.463 53.6968L112.633 53.5262L112.427 61.4788ZM112.427 61.4788L112.264 53.5262V53.3628H112.434L118.681 53.2846L124.928 53.2277L137.422 53.178H137.777V53.5333V61.4859V61.8128H137.45L131.146 61.7773L124.871 61.692L112.427 61.4788Z" fill="#EBEBEB"/>
<path d="M126.371 71.5208L138.95 71.3147L145.161 71.2294H151.351L151.031 71.5563L150.996 63.6037L151.351 63.9591L138.865 63.9093L132.618 63.8525L126.371 63.7743L126.534 63.6037L126.371 71.5208ZM126.371 71.5208L126.2 63.5682V63.4047H126.378L132.625 63.3266L138.872 63.2697L151.358 63.22H151.721V63.5753V71.5279V71.8548H151.394L145.097 71.8193L138.815 71.734L126.371 71.5208Z" fill="#EBEBEB"/>
<path d="M140.25 61.4788H165.238V53.5262H140.25V61.4788Z" fill="#EBEBEB"/>
<path d="M2.03633 255.361H27.024V247.408H2.03633V255.361Z" fill="#EBEBEB"/>
<path d="M15.9729 9.78357L40.9605 9.78357V1.831L15.9729 1.831V9.78357Z" fill="#EBEBEB"/>
<path d="M2.03632 19.8042L14.6154 19.5981L20.8339 19.5129H27.024L26.6971 19.8327V11.8801L27.0524 12.2355L14.5586 12.1857L8.31877 12.1004L2.07185 12.0222L2.20688 11.8233L2.03632 19.8042ZM2.03632 19.8042L1.86575 11.8233V11.6598H2.03632L8.31877 11.61L14.5657 11.5461L27.0595 11.4963H27.4149V11.8233V19.7758V20.1027H27.0951H20.7913L14.5159 20.0175L2.03632 19.8042Z" fill="#EBEBEB"/>
<path d="M257.108 9.77641L269.687 9.57032L275.906 9.48503H282.096L281.769 9.80484V1.85228L282.124 2.20762L269.631 2.15787L263.384 2.10102L257.137 2.02284L257.307 1.85228L257.108 9.77641ZM257.108 9.77641L256.938 1.82385V1.66039H257.108L263.355 1.58222L269.602 1.51825L282.096 1.46851H282.451V1.82385L282.416 9.77641V10.1033H282.096H275.792L269.517 10.018L257.108 9.77641Z" fill="#EBEBEB"/>
<path d="M194.355 0.558838V139.142H284.42V0.558838H194.355ZM281.094 135.809H197.674V3.88484H281.094V135.809Z" fill="#EBEBEB"/>
<path d="M281.094 3.88489H197.674V135.809H281.094V3.88489Z" fill="white"/>
<path d="M197.674 71.5065L281.094 71.5065V68.1805L197.674 68.1805V71.5065Z" fill="#EBEBEB"/>
<path d="M188.236 148.666H290.539V139.128H188.236V148.666Z" fill="#DBDBDB"/>
<path d="M197.674 3.88489H281.094V89.2311H197.674V3.88489ZM278.017 6.96215H200.751V86.1538H278.017V6.96215Z" fill="#DBDBDB"/>
<path d="M254.472 3.88489H252.809V86.1609H254.472V3.88489Z" fill="#DBDBDB"/>
<path d="M225.959 3.88489H224.296V86.1609H225.959V3.88489Z" fill="#DBDBDB"/>
<path d="M13.656 0.558838V139.142H103.721V0.558838H13.656ZM100.402 135.809H16.982V3.88484H100.402V135.809Z" fill="#EBEBEB"/>
<path d="M100.402 3.88489H16.982V135.809H100.402V3.88489Z" fill="white"/>
<path d="M16.982 71.5065L100.402 71.5065V68.1805L16.982 68.1805V71.5065Z" fill="#EBEBEB"/>
<path d="M7.5299 148.666H109.833V139.128H7.5299V148.666Z" fill="#DBDBDB"/>
<path d="M16.9749 3.88489H100.395V89.2311H16.9749V3.88489ZM97.2823 6.96215H20.0522V86.1538H97.3179L97.2823 6.96215Z" fill="#DBDBDB"/>
<path d="M73.7729 3.88489H72.1099V86.1609H73.7729V3.88489Z" fill="#DBDBDB"/>
<path d="M45.2673 3.88489H43.6043V86.1609H45.2673V3.88489Z" fill="#DBDBDB"/>
<path d="M0.821045 286.119L37.8762 285.949L74.9313 285.885L149.034 285.764L223.138 285.885L260.193 285.942L297.248 286.119L260.193 286.29L223.138 286.354L149.034 286.475L74.9313 286.354L37.8762 286.29L0.821045 286.119Z" fill="#263238"/>
<path d="M296.807 181.741H206.628V194.54H296.807V181.741Z" fill="#455A64"/>
<path d="M294.661 194.54H208.782V198.698H294.661V194.54Z" fill="#455A64"/>
<path d="M294.661 194.54H208.782V195.919H294.661V194.54Z" fill="#263238"/>
<path d="M209.627 286.474H206.195L216.187 198.691H224.95L209.627 286.474Z" fill="#455A64"/>
<path d="M224.95 198.698L223.926 204.568H215.519L216.187 198.698H224.95Z" fill="#263238"/>
<path d="M293.815 286.474H297.248L287.256 198.691H278.486L293.815 286.474Z" fill="#455A64"/>
<path d="M278.486 198.698L279.516 204.568H287.916L287.248 198.698H278.486Z" fill="#263238"/>
<path d="M273.824 233.607C273.13 236.141 272.671 238.734 272.452 241.353C272.523 241.481 272.509 241.957 272.452 241.829C272.452 242.256 271.791 242.178 271.791 241.758C271.791 241.481 271.791 241.211 271.791 240.941C270.277 239.065 268.081 237.878 266.305 236.243C264.875 234.962 263.833 233.305 263.298 231.46C261.827 226.379 263.206 220.999 261.436 215.939C259.908 211.575 257.172 207.78 254.848 203.857C252.404 199.671 250.584 195.279 250.414 190.354C250.271 186.602 250.719 181.599 253.576 178.792C256.604 175.807 260.363 178.045 262.68 180.703C269.403 188.421 272.516 198.172 273.774 208.143C274.485 213.658 275.195 219.215 275.018 224.787C274.915 227.759 274.515 230.714 273.824 233.607Z" fill="#FF8A00"/>
<path d="M272.488 243.379C272.852 238.171 272.791 232.942 272.303 227.744C272.303 227.744 272.303 227.708 272.303 227.687C272.388 223.458 272.722 219.251 272.559 215.015C272.354 210.441 271.731 205.895 270.697 201.434C270.699 201.428 270.701 201.42 270.7 201.413C270.699 201.406 270.697 201.4 270.693 201.394C270.689 201.388 270.684 201.383 270.678 201.379C270.672 201.376 270.665 201.374 270.658 201.374C270.65 201.374 270.643 201.376 270.637 201.379C270.631 201.383 270.626 201.388 270.622 201.394C270.618 201.4 270.616 201.406 270.615 201.413C270.614 201.42 270.616 201.428 270.618 201.434C271.439 205.819 271.931 210.259 272.09 214.717C272.175 217.086 272.156 219.474 272.033 221.88C271.99 222.655 271.919 223.437 271.862 224.219C270.106 212.354 265.818 201.006 259.29 190.944C259.205 190.809 258.956 190.944 259.041 191.101C263.715 198.752 267.177 207.08 269.304 215.79C266.07 209.799 261.181 204.874 257.556 199.117C257.556 199.117 257.485 199.117 257.506 199.153C260.761 205.549 266.134 210.616 269.588 216.92C270.178 219.493 270.668 222.094 271.009 224.702C271.493 228.288 271.754 231.9 271.791 235.518C269.822 231.837 267.776 228.319 266.162 224.425C266.12 224.318 265.971 224.389 266.006 224.496C267.378 228.54 269.218 232.896 271.798 236.343C271.798 238.901 271.734 241.467 271.585 244.018C271.187 250.848 270.021 257.578 269.453 264.387C269.448 264.428 269.46 264.47 269.486 264.502C269.512 264.535 269.55 264.556 269.591 264.561C269.633 264.565 269.675 264.553 269.707 264.527C269.74 264.501 269.761 264.464 269.766 264.422C271.145 257.477 272.054 250.446 272.488 243.379Z" fill="#263238"/>
<path d="M265.239 190.738C265.239 190.688 265.139 190.738 265.16 190.774C266.404 194.22 267.115 197.71 268.003 201.242C268.009 201.276 268.028 201.306 268.056 201.326C268.084 201.346 268.118 201.354 268.152 201.349C268.186 201.343 268.217 201.324 268.237 201.296C268.257 201.268 268.265 201.233 268.259 201.199C267.904 197.618 266.624 194.043 265.239 190.738Z" fill="#263238"/>
<path d="M296.892 205.186C296.073 207.209 295.123 209.177 294.05 211.078C291.804 215.15 289.466 218.895 289.075 223.636C289.003 225.759 288.701 227.868 288.172 229.925C287.583 231.681 286.737 233.341 285.664 234.85C283.233 238.404 280.191 241.453 277.931 245.127C275.588 248.964 273.857 253.144 272.8 257.514C272.743 257.749 272.367 257.685 272.424 257.45C272.424 257.45 272.424 257.415 272.424 257.393C272.42 257.385 272.419 257.377 272.419 257.368C272.419 257.36 272.42 257.351 272.424 257.344C272.068 247.167 272.878 236.904 275.977 227.154C277.347 222.865 278.995 218.67 280.909 214.596C282.572 211.042 284.64 207.66 287.561 205.023C289.459 203.317 293.566 200.048 296.267 201.789C297.504 202.614 297.404 203.914 296.892 205.186Z" fill="#FF8A00"/>
<path d="M286.666 228.262C284.873 231.225 282.898 234.073 280.753 236.79C279.765 238.077 278.763 239.356 277.782 240.642C277.313 241.254 276.794 241.858 276.361 242.512L277.171 239.242C278.486 234.104 279.751 228.916 281.705 223.97C283.71 219.18 286.071 214.548 288.769 210.111C288.84 209.998 288.648 209.912 288.585 210.026C286.452 213.58 284.249 217.09 282.437 220.821C281.442 222.9 280.571 225.036 279.829 227.218C280.658 222.575 281.819 217.998 283.304 213.523C283.304 213.487 283.262 213.459 283.24 213.523C281.301 218.042 280.085 222.839 279.637 227.736C279.196 229.058 278.789 230.392 278.415 231.738C276.808 237.423 275.401 243.187 274.101 248.965C274.076 245.169 274.404 241.378 275.082 237.643C275.077 237.629 275.068 237.617 275.056 237.608C275.044 237.599 275.029 237.594 275.014 237.594C274.999 237.594 274.984 237.599 274.972 237.608C274.96 237.617 274.951 237.629 274.947 237.643C273.954 241.538 273.623 245.571 273.966 249.576C273.468 251.772 272.992 253.968 272.544 256.171C271.542 260.861 270.313 265.637 269.702 270.385C269.699 270.397 269.699 270.409 269.702 270.421C269.704 270.433 269.709 270.445 269.716 270.455C269.723 270.465 269.732 270.474 269.742 270.481C269.753 270.488 269.764 270.492 269.776 270.495C269.788 270.497 269.801 270.497 269.813 270.495C269.825 270.492 269.837 270.487 269.847 270.48C269.857 270.473 269.866 270.464 269.873 270.454C269.879 270.444 269.884 270.432 269.886 270.42C270.597 267.847 271.009 265.189 271.578 262.603C272.146 260.016 272.743 257.393 273.347 254.785C274.229 250.997 275.16 247.216 276.098 243.414C276.73 242.035 277.953 240.806 278.862 239.647C279.864 238.375 280.866 237.096 281.84 235.803C283.671 233.41 285.31 230.877 286.744 228.227C286.787 228.248 286.694 228.205 286.666 228.262Z" fill="#263238"/>
<path d="M287.099 223.906C284.857 226.766 282.916 229.85 281.307 233.109C281.307 233.145 281.357 233.194 281.378 233.152C283.325 230.096 285.244 227.019 287.192 223.963C287.22 223.913 287.135 223.863 287.099 223.906Z" fill="#263238"/>
<path d="M243.769 214.838C245.091 217.112 246.611 219.812 246.029 222.563C245.666 224.29 244.401 225.69 244.174 227.452C243.662 231.34 247.542 233.912 250.343 235.746C257.336 240.337 266.916 244.423 268.188 253.79C268.238 254.117 268.813 254.039 268.771 253.712C268.774 253.691 268.774 253.669 268.771 253.648C268.771 253.648 268.806 253.648 268.806 253.598C269.721 248.869 269.675 244.004 268.671 239.292C267.634 234.467 265.523 230.124 263.035 225.889C258.828 218.711 254.379 211.362 248.019 205.862C246.256 204.348 242.653 201.597 241.246 205.044C239.839 208.491 242.134 212.066 243.769 214.838Z" fill="#FF8A00"/>
<path d="M250.165 230.053C254.799 235.071 262.168 237.871 266.155 243.499C263.929 234.947 259.719 227.039 253.868 220.416C253.851 220.4 253.837 220.38 253.828 220.358C253.819 220.336 253.815 220.312 253.815 220.288C253.815 220.265 253.819 220.241 253.828 220.219C253.837 220.197 253.851 220.177 253.868 220.161C253.884 220.144 253.904 220.13 253.926 220.121C253.948 220.112 253.972 220.108 253.995 220.108C254.019 220.108 254.043 220.112 254.065 220.121C254.087 220.13 254.107 220.144 254.123 220.161C258.388 224.305 261.799 229.245 264.165 234.701C263.063 230.891 261.614 227.189 259.837 223.643C259.827 223.616 259.826 223.586 259.835 223.559C259.845 223.532 259.864 223.508 259.888 223.494C259.913 223.479 259.943 223.474 259.971 223.479C260 223.484 260.025 223.5 260.043 223.522C262.244 227.396 263.817 231.593 264.706 235.959C269.965 248.68 270.448 263.605 269.346 277.015C269.346 277.207 269.041 277.214 269.048 277.015C269.346 266.447 269.176 255.695 266.646 245.369L266.475 244.729C262.14 238.681 254.806 235.874 250.087 230.131C250.037 230.075 250.115 230.004 250.165 230.053Z" fill="#263238"/>
<path d="M249.092 225.739C251.522 227.971 253.917 230.259 256.355 232.484C256.355 232.484 256.355 232.555 256.319 232.534C253.563 230.675 251.082 228.438 248.95 225.889C248.937 225.869 248.932 225.845 248.934 225.822C248.937 225.798 248.947 225.776 248.963 225.759C248.979 225.742 249.001 225.731 249.024 225.727C249.047 225.724 249.071 225.728 249.092 225.739Z" fill="#263238"/>
<path d="M248.708 216.074C250.86 219.6 253.294 222.947 255.985 226.081C256.021 226.123 255.985 226.187 255.921 226.144C252.901 223.271 250.413 219.886 248.573 216.145C248.568 216.128 248.57 216.11 248.577 216.093C248.584 216.077 248.596 216.064 248.612 216.056C248.628 216.047 248.646 216.045 248.663 216.048C248.681 216.051 248.696 216.061 248.708 216.074Z" fill="#263238"/>
<path d="M259.66 286.475H280.966L278.095 257.806H262.943L259.66 286.475Z" fill="#455A64"/>
<path d="M262.403 262.468H278.564L278.095 257.806H262.936L262.403 262.468Z" fill="#263238"/>
<path d="M260.328 259.206H280.298V254.629H260.328V259.206Z" fill="#455A64"/>
<path d="M28.5022 91.0006H24.6645V282.637H28.5022V91.0006Z" fill="#263238"/>
<path d="M92.0253 23.2345L0.821075 114.439L3.53474 117.152L94.739 25.9482L92.0253 23.2345Z" fill="#263238"/>
<path d="M5.77454 282.637V286.475H47.3851V282.637H5.77454Z" fill="#263238"/>
<path d="M95.129 37.3794L107.992 25.2978L95.8823 15.4619L86.2454 24.516L95.129 37.3794Z" fill="#FF8A00"/>
<path opacity="0.1" d="M107.992 25.2978L95.129 37.3794L91.5968 32.2625L102.62 20.9413L107.992 25.2978Z" fill="black"/>
<path d="M93.8 57.5558L128.51 24.9354L111.93 16.0092L85.9185 40.4567L93.8 57.5558Z" fill="#FF8A00"/>
<path opacity="0.6" d="M229.207 160.754C229.207 160.754 216.876 155.069 216.876 147.457C216.876 139.846 232.867 134.942 232.867 128.98C232.867 123.017 225.895 119.527 225.895 119.527C225.895 119.527 236.911 123.294 236.911 130.82C236.911 138.346 226.364 143.456 225.362 148.275C223.955 154.898 229.207 160.754 229.207 160.754Z" fill="#DBDBDB"/>
<path opacity="0.6" d="M228.631 160.754C228.631 160.754 240.969 156.291 240.969 150.3C240.969 144.309 224.936 140.457 224.936 135.781C224.936 131.105 231.915 128.375 231.915 128.375C231.915 128.375 220.892 131.332 220.892 137.252C220.892 143.172 232.973 147.244 233.869 152.048C234.764 156.853 228.631 160.754 228.631 160.754Z" fill="#DBDBDB"/>
<path d="M234.942 179.907H223.209V181.741H234.942V179.907Z" fill="#FF8A00"/>
<path opacity="0.1" d="M234.942 179.907H223.209V181.115H234.942V179.907Z" fill="black"/>
<path d="M248.871 174.982C248.159 176.041 247.157 176.871 245.985 177.376C244.813 177.88 243.52 178.036 242.262 177.825C241.856 177.75 241.459 177.636 241.075 177.484C240.49 177.255 239.933 176.961 239.412 176.61L240.905 174.4C241.182 174.595 241.477 174.764 241.786 174.904C242.639 175.298 243.604 175.371 244.507 175.11C245.409 174.849 246.186 174.271 246.697 173.483C248.303 171.223 248.879 166.063 247.251 164.073C247.144 163.931 246.668 163.697 244.778 164.073C244.43 164.151 244.067 164.237 243.591 164.358C243.243 164.475 242.883 164.554 242.518 164.592L242.468 163.263L242.34 161.941C242.461 161.941 242.653 161.863 242.902 161.792C243.774 161.538 244.665 161.353 245.567 161.238C246.988 161.095 248.41 161.238 249.312 162.361C251.956 165.594 250.883 172.154 248.871 174.982Z" fill="#FF8A00"/>
<path opacity="0.1" d="M240.905 174.385C241.182 174.581 241.477 174.75 241.786 174.89L241.075 177.47C240.49 177.24 239.933 176.947 239.412 176.595L240.905 174.385Z" fill="black"/>
<path opacity="0.1" d="M245.567 161.23L244.778 164.073C244.43 164.151 244.067 164.237 243.591 164.357C243.243 164.475 242.883 164.554 242.518 164.592L242.468 163.263L242.34 161.941C242.461 161.941 242.653 161.863 242.902 161.792C243.774 161.535 244.665 161.348 245.567 161.23Z" fill="black"/>
<path d="M213.472 157.776C213.472 157.776 213.572 158.651 213.771 160.029C213.806 160.235 213.835 160.47 213.87 160.697C214.012 161.643 214.197 162.765 214.403 163.967C214.408 164.038 214.408 164.109 214.403 164.18C214.716 165.907 215.114 167.783 215.533 169.56C215.533 169.638 215.583 169.716 215.597 169.787C215.718 170.263 215.846 170.732 215.974 171.208C216.102 171.685 216.244 172.104 216.379 172.523C216.631 173.297 216.93 174.054 217.274 174.79C219.705 179.822 223.102 180.383 225.206 180.383H232.895C235.027 180.383 238.396 179.822 240.819 174.79L241.04 174.3C241.097 174.179 241.146 174.051 241.196 173.923C241.246 173.795 241.303 173.66 241.352 173.525L241.459 173.241C241.964 171.813 242.384 170.356 242.717 168.877C242.737 168.817 242.753 168.755 242.767 168.693C242.767 168.693 242.767 168.65 242.767 168.622C242.916 167.996 243.051 167.364 243.179 166.738C243.399 165.715 243.598 164.699 243.762 163.739C243.833 163.299 243.911 162.865 243.982 162.453C243.982 162.332 244.017 162.225 244.039 162.112C244.081 161.835 244.131 161.564 244.167 161.301C244.202 161.039 244.238 160.797 244.273 160.591C244.309 160.385 244.337 160.122 244.373 159.88C244.558 158.608 244.65 157.805 244.65 157.805L213.472 157.776Z" fill="#FF8A00"/>
<path opacity="0.1" d="M214.417 164.18C214.73 165.907 215.128 167.783 215.547 169.56C215.746 169.56 215.938 169.624 216.13 169.666C217.07 169.886 217.963 170.271 218.767 170.803C219.556 171.348 220.293 171.964 220.97 172.644C221.625 173.313 222.338 173.922 223.102 174.463C223.864 174.972 224.752 175.259 225.668 175.295C226.114 175.282 226.553 175.177 226.956 174.986C227.36 174.795 227.72 174.523 228.013 174.186C228.661 173.509 229.248 172.777 229.768 171.997C230.303 171.202 230.879 170.436 231.495 169.702C231.817 169.333 232.179 169.002 232.575 168.714C232.802 168.578 233.04 168.462 233.286 168.366C233.531 168.282 233.788 168.239 234.047 168.238C234.558 168.228 235.063 168.353 235.511 168.6C235.939 168.84 236.336 169.134 236.69 169.474C237.401 170.128 238.012 170.896 238.645 171.571C239.203 172.303 239.957 172.862 240.819 173.184C241.037 173.23 241.262 173.23 241.48 173.184C241.985 171.756 242.406 170.299 242.738 168.821C242.49 168.757 242.234 168.693 241.985 168.615C241.066 168.3 240.213 167.818 239.469 167.193C238.739 166.575 238.063 165.895 237.451 165.161C236.861 164.431 236.209 163.754 235.503 163.135C234.791 162.555 233.933 162.182 233.023 162.055C232.578 162.027 232.132 162.091 231.713 162.243C231.294 162.395 230.91 162.63 230.586 162.936C229.875 163.542 229.223 164.213 228.638 164.94C228.013 165.651 227.395 166.362 226.691 167.072C226.336 167.411 225.942 167.707 225.518 167.954C225.291 168.07 225.053 168.165 224.808 168.238C224.551 168.296 224.288 168.315 224.026 168.295C223.517 168.246 223.028 168.07 222.605 167.783C222.2 167.503 221.834 167.171 221.517 166.795C220.863 166.084 220.337 165.281 219.769 164.528C219.285 163.744 218.59 163.111 217.765 162.702C216.905 162.396 215.988 162.879 215.27 163.448C214.993 163.711 214.716 163.91 214.417 164.18Z" fill="black"/>
<path d="M214.417 163.967C214.422 164.038 214.422 164.109 214.417 164.18C214.695 163.938 214.972 163.711 215.256 163.469C215.967 162.901 216.891 162.417 217.751 162.723C218.576 163.132 219.27 163.765 219.755 164.549C220.323 165.303 220.849 166.106 221.503 166.816C221.82 167.192 222.186 167.525 222.59 167.804C223.014 168.092 223.502 168.268 224.012 168.316C224.274 168.336 224.537 168.317 224.793 168.259C225.039 168.187 225.277 168.091 225.504 167.975C225.928 167.728 226.322 167.432 226.677 167.094C227.387 166.426 227.999 165.672 228.624 164.962C229.209 164.234 229.861 163.563 230.571 162.957C230.896 162.652 231.28 162.416 231.699 162.264C232.118 162.113 232.564 162.049 233.009 162.076C233.919 162.203 234.777 162.577 235.489 163.156C236.195 163.775 236.846 164.452 237.437 165.182C238.049 165.917 238.725 166.597 239.455 167.214C240.199 167.839 241.052 168.321 241.971 168.636C242.219 168.714 242.475 168.778 242.724 168.842C242.744 168.781 242.761 168.72 242.774 168.657C242.532 168.586 242.283 168.515 242.063 168.423C240.314 167.719 238.807 166.522 237.728 164.976C237.139 164.214 236.477 163.512 235.752 162.879C234.988 162.248 234.067 161.838 233.087 161.692C232.585 161.653 232.079 161.718 231.603 161.881C231.126 162.045 230.688 162.305 230.315 162.645C229.579 163.264 228.901 163.949 228.29 164.691C227.665 165.402 227.068 166.113 226.4 166.788C225.732 167.463 224.936 168.01 224.061 167.904C223.617 167.841 223.19 167.69 222.805 167.461C222.419 167.231 222.083 166.928 221.816 166.568C221.19 165.857 220.65 165.097 220.06 164.343C219.518 163.52 218.754 162.867 217.857 162.46C217.37 162.311 216.846 162.341 216.379 162.545C215.931 162.734 215.514 162.991 215.142 163.306C214.879 163.526 214.645 163.739 214.417 163.967Z" fill="white"/>
<path d="M215.569 169.595C215.569 169.673 215.618 169.752 215.633 169.823L216.095 169.922C217.902 170.459 219.517 171.502 220.75 172.928C221.395 173.631 222.109 174.267 222.882 174.826C223.704 175.38 224.663 175.697 225.653 175.743C226.156 175.737 226.652 175.626 227.109 175.418C227.567 175.21 227.976 174.909 228.311 174.535C228.987 173.846 229.6 173.099 230.145 172.303C230.658 171.514 231.218 170.757 231.822 170.036C232.419 169.325 233.151 168.678 234.025 168.686C234.93 168.734 235.779 169.135 236.392 169.801C237.103 170.427 237.699 171.152 238.36 171.841C238.975 172.609 239.796 173.186 240.727 173.504C240.931 173.543 241.141 173.543 241.345 173.504L241.452 173.22C241.234 173.266 241.009 173.266 240.791 173.22C239.929 172.897 239.175 172.338 238.616 171.606C237.984 170.896 237.38 170.185 236.662 169.51C236.307 169.17 235.911 168.876 235.482 168.636C235.035 168.388 234.53 168.263 234.018 168.273C233.759 168.274 233.503 168.318 233.258 168.401C233.012 168.497 232.774 168.614 232.547 168.75C232.151 169.037 231.789 169.369 231.467 169.737C230.851 170.471 230.274 171.238 229.74 172.033C229.22 172.813 228.633 173.545 227.984 174.222C227.691 174.559 227.331 174.831 226.928 175.022C226.524 175.212 226.085 175.318 225.639 175.33C224.724 175.295 223.836 175.007 223.074 174.499C222.31 173.958 221.596 173.349 220.942 172.68C220.265 172 219.528 171.384 218.738 170.839C217.934 170.306 217.041 169.921 216.102 169.702C215.96 169.595 215.768 169.595 215.569 169.595Z" fill="white"/>
<path d="M91.3907 242.362L37.1228 286.119H40.1788L102.854 242.362H91.3907Z" fill="#C7C7C7"/>
<path d="M96.4864 242.362L69.6722 286.119H72.7282L105.597 242.362H96.4864Z" fill="#C7C7C7"/>
<path d="M109.634 242.362L136.448 286.119H133.392L100.523 242.362H109.634Z" fill="#C7C7C7"/>
<path d="M114.317 242.362L168.578 286.119H165.522L102.854 242.362H114.317Z" fill="#C7C7C7"/>
<path d="M204.887 226.315V213.516L130.365 210.453L91.007 105.364H0.821045L32.7308 226.315L108.966 247.714H113.742L204.887 226.315Z" fill="#455A64"/>
<path d="M0.821045 105.364H11.1402L44.386 215.612L111.837 234.722L204.887 213.516V226.315L113.742 247.714H108.966L32.7308 226.315L0.821045 105.364Z" fill="#37474F"/>
<path d="M259.688 285.679C257.279 285.735 194.923 266.49 193.012 264.223C192.806 263.974 193.779 254.742 195.392 247.415C195.463 247.06 173.24 217.95 173.24 217.95L213.415 202.315L232.639 242.114L237.614 252.468C237.614 252.468 258.416 273.384 260.264 276.063C262.112 278.742 262.09 285.622 259.688 285.679Z" fill="#EBEBEB"/>
<path d="M261.443 286.034C258.935 286.098 193.836 266.227 191.832 263.896C191.064 263.022 192.23 258.992 195.385 247.415L238.026 252.554C238.026 252.554 260.058 273.234 261.976 276.006C263.895 278.778 263.945 285.963 261.443 286.034Z" fill="#FF8A00"/>
<path d="M261.323 283.141C250.492 279.545 206.465 266.085 195.485 263.313C195.399 263.313 195.378 263.349 195.485 263.384C206.145 267.186 250.279 280.32 261.294 283.283C261.479 283.383 261.529 283.22 261.323 283.141Z" fill="#263238"/>
<path d="M258.551 272.403C257.347 272.001 256.073 271.854 254.809 271.97C253.546 272.086 252.32 272.464 251.21 273.078C249.201 274.166 247.689 275.986 246.988 278.159C246.988 278.223 247.095 278.266 247.123 278.202C249.049 274.116 254.081 271.55 258.494 272.517C258.507 272.517 258.52 272.513 258.531 272.506C258.543 272.499 258.552 272.489 258.558 272.477C258.564 272.466 258.566 272.452 258.565 272.439C258.564 272.426 258.559 272.413 258.551 272.403Z" fill="#263238"/>
<path d="M242.475 256.86C238.126 255.439 232.597 255.439 228.787 258.203C228.638 258.31 228.787 258.516 228.944 258.488C233.375 257.654 237.883 257.295 242.39 257.415C242.457 257.414 242.522 257.389 242.573 257.345C242.624 257.301 242.657 257.24 242.668 257.174C242.678 257.107 242.664 257.039 242.629 256.982C242.594 256.924 242.539 256.881 242.475 256.86Z" fill="#263238"/>
<path d="M245.446 259.198C241.097 257.777 235.567 257.777 231.758 260.549C231.609 260.655 231.758 260.861 231.914 260.833C236.345 259.996 240.853 259.636 245.361 259.76C245.433 259.767 245.506 259.747 245.564 259.702C245.621 259.657 245.66 259.592 245.671 259.52C245.682 259.448 245.664 259.374 245.623 259.314C245.581 259.254 245.518 259.213 245.446 259.198Z" fill="#263238"/>
<path d="M248.417 261.544C244.067 260.122 238.538 260.122 234.729 262.894C234.58 263.001 234.729 263.207 234.885 263.178C239.316 262.341 243.824 261.982 248.331 262.105C248.404 262.113 248.477 262.092 248.534 262.047C248.592 262.002 248.63 261.937 248.641 261.865C248.652 261.793 248.635 261.719 248.593 261.659C248.551 261.6 248.488 261.558 248.417 261.544Z" fill="#263238"/>
<path d="M251.373 263.889C247.024 262.468 241.495 262.468 237.685 265.232C237.536 265.339 237.685 265.552 237.842 265.524C242.272 264.687 246.78 264.327 251.288 264.45C251.36 264.458 251.433 264.437 251.491 264.392C251.549 264.348 251.587 264.283 251.598 264.21C251.609 264.138 251.592 264.064 251.55 264.005C251.508 263.945 251.445 263.903 251.373 263.889Z" fill="#263238"/>
<path d="M250.755 246.641C249.106 244.132 245.78 245.077 243.826 246.562C240.537 249.175 237.994 252.607 236.449 256.512C236.413 256.604 236.449 256.661 236.548 256.683C236.548 257.024 236.832 257.393 237.223 257.272C240.99 256.071 245.169 255.254 248.452 252.93C250.371 251.58 252.318 249.014 250.755 246.641ZM242.561 254.288C240.727 254.927 238.865 255.467 237.053 256.171C238.434 254.191 239.914 252.281 241.487 250.45C242.263 249.576 243.097 248.754 243.982 247.991C245.403 246.84 250.776 244.494 249.76 249.412C249.198 252.077 244.757 253.534 242.561 254.288Z" fill="#263238"/>
<path d="M225.078 254.828C228.702 256.576 232.952 256.69 236.868 257.251C237.273 257.308 237.493 256.889 237.437 256.54C237.455 256.536 237.473 256.527 237.487 256.514C237.502 256.501 237.513 256.485 237.52 256.467C237.527 256.448 237.53 256.429 237.527 256.41C237.525 256.39 237.518 256.372 237.508 256.356C235.349 252.768 232.289 249.808 228.631 247.771C226.464 246.626 223.024 246.25 221.809 248.993C220.643 251.601 222.988 253.811 225.078 254.828ZM223.194 251.537C221.382 246.889 227.103 248.304 228.66 249.206C229.652 249.814 230.601 250.488 231.502 251.225C233.357 252.769 235.134 254.406 236.825 256.128C234.921 255.737 232.995 255.51 231.076 255.183C228.851 254.799 224.225 254.103 223.223 251.537H223.194Z" fill="#263238"/>
<path d="M234.672 243.997L190.382 250.542C190.382 250.542 166.219 206.658 156.454 195.741C155.907 195.112 155.311 194.527 154.67 193.993C153.661 193.536 152.577 193.267 151.472 193.197C138.374 191.605 94.3046 195.891 63.8446 193.908L78.0583 174.897L84.3621 166.461C118.674 162.552 160.782 148.523 179.779 158.054C200.367 168.394 234.672 243.997 234.672 243.997Z" fill="#263238"/>
<path d="M229.122 236.478C221.595 237.451 223.742 237.068 216.223 238.12C212.541 238.631 194.049 241.168 190.695 242.22C190.676 242.22 190.658 242.228 190.645 242.241C190.631 242.254 190.624 242.272 190.624 242.291C190.624 242.31 190.631 242.328 190.645 242.341C190.658 242.355 190.676 242.362 190.695 242.362C194.206 242.362 212.648 239.456 216.315 238.873C223.813 237.686 221.645 237.949 229.107 236.684C229.123 236.689 229.139 236.691 229.155 236.688C229.171 236.686 229.187 236.68 229.2 236.671C229.214 236.662 229.225 236.65 229.233 236.636C229.241 236.622 229.246 236.606 229.247 236.59C229.248 236.574 229.246 236.558 229.239 236.543C229.233 236.527 229.224 236.514 229.212 236.503C229.2 236.492 229.185 236.484 229.17 236.48C229.154 236.476 229.137 236.475 229.122 236.478Z" fill="#37474F"/>
<path d="M190.609 241.602C185.599 233.223 162.779 191.854 158.238 190.234C154.102 188.748 71.385 190.468 70.1626 190.475C70.0773 190.475 70.0702 190.61 70.1626 190.61C79.9558 190.489 155.559 190.219 157.719 191.072C162.203 192.842 189.487 240.82 190.162 241.822C190.332 242.085 190.78 241.886 190.609 241.602Z" fill="#37474F"/>
<path d="M40.6549 176.596C40.6549 176.596 38.0396 201.576 50.6969 213.942C65.8416 228.788 165.828 225.043 181.285 220.033C196.743 215.022 197.254 190.035 180.326 184.242C164.222 178.735 92.7979 175.565 91.1065 174.89C89.415 174.215 84.4616 166.312 84.4616 166.312L40.6549 176.596Z" fill="#263238"/>
<path d="M61.8049 175.892C61.8049 175.771 61.5988 175.814 61.5988 175.927C61.6009 179.164 60.4608 182.297 58.3794 184.775C56.0057 187.519 52.5092 189.04 49.3395 190.653C49.0339 190.809 49.2684 191.285 49.5811 191.193C51.5295 190.592 53.4071 189.782 55.1813 188.777C56.8076 187.91 58.2394 186.72 59.3886 185.28C60.4208 183.969 61.1687 182.457 61.5847 180.84C62.0007 179.224 62.0757 177.539 61.8049 175.892Z" fill="#37474F"/>
<path d="M90.4242 173.333C89.7135 172.431 88.946 171.571 88.2069 170.697C86.4657 168.614 84.7103 166.532 82.8838 164.528C82.7062 164.336 82.3722 164.606 82.5285 164.812C83.758 166.426 85.0656 167.982 86.3449 169.553L88.3277 171.962C89.0201 172.68 89.6391 173.466 90.1755 174.307C90.6587 175.203 90.0262 175.963 89.1023 176.062C88.2819 176.082 87.4847 175.79 86.8708 175.245C85.4494 174.136 84.291 172.552 83.0971 171.201C82.3864 170.377 81.6259 169.545 80.8797 168.735C80.1335 167.925 79.238 167.037 78.4492 166.177C78.3994 166.12 78.2999 166.177 78.3426 166.255C79.0533 167.207 79.6716 168.195 80.368 169.147C81.0645 170.1 81.7894 171.038 82.5001 171.99C83.2108 172.943 83.8717 173.738 84.6321 174.584C85.2337 175.332 85.954 175.975 86.7642 176.489C88.0932 177.271 90.3887 177.434 91.0994 175.721C91.2133 175.299 91.2106 174.855 91.0917 174.434C90.9728 174.014 90.7422 173.633 90.4242 173.333Z" fill="#37474F"/>
<path d="M179.167 220.125C173.83 220.225 168.507 220.537 163.17 220.651C157.833 220.765 152.588 220.793 147.293 220.743C136.666 220.644 126.048 220.232 115.44 219.507C104.723 218.796 93.1675 217.694 82.5285 216.223C77.4329 215.513 72.2733 214.93 67.2346 213.85C62.7017 212.991 58.5093 210.853 55.1529 207.688C48.2593 201 45.58 191.172 44.4926 181.784C44.3434 180.519 44.2226 179.261 44.1231 177.996C44.1231 177.91 43.9809 177.91 43.9881 177.996C44.6135 187.625 46.1201 197.667 52.168 205.407C54.7233 208.785 58.1264 211.428 62.0323 213.068C66.801 214.98 72.0885 215.427 77.1202 216.11C87.7805 217.531 99.4073 218.675 110.153 219.514C120.898 220.352 131.815 220.871 142.66 221.035C153.505 221.198 164.357 221.035 175.188 220.509C176.517 220.445 177.831 220.367 179.153 220.246C179.239 220.246 179.239 220.125 179.167 220.125Z" fill="#37474F"/>
<path d="M193.402 196.822C192.386 192.64 189.837 188.993 186.26 186.602C182.422 183.98 177.831 182.786 173.283 182.125C168.145 181.378 162.935 180.995 157.762 180.497C147.153 179.464 136.536 178.517 125.909 177.654C115.291 176.78 92.4212 175.004 91.1349 174.954C91.0283 174.954 90.9999 175.139 91.1349 175.153C101.383 176.29 110.714 177.285 120.984 178.202C131.253 179.118 141.594 180.121 151.934 181.144C157.07 181.646 162.208 182.163 167.349 182.693C172.103 183.184 177 183.667 181.463 185.536C185.294 187.114 188.74 189.651 190.702 193.353C192.516 197.027 193.054 201.201 192.23 205.215C191.513 208.947 189.794 212.414 187.255 215.243C184.818 218.032 181.571 219.99 177.966 220.843C177.028 221.049 175.898 221.191 175.031 221.369C174.967 221.369 174.896 221.518 174.967 221.518C182.643 221.717 189.742 216.11 192.514 209.095C194.058 205.191 194.368 200.907 193.402 196.822Z" fill="#37474F"/>
<path d="M70.4966 115.214C75.578 135.113 85.6768 158.907 89.8272 162.702C95.0863 167.506 127.245 173.81 128.915 173.973C131.701 174.25 137.443 145.546 134.849 145.645C127.97 145.794 106.777 143.641 105.256 142.156C103.735 140.67 92.9116 127.672 81.8036 113.018C74.178 102.933 67.3483 102.862 70.4966 115.214Z" fill="#EB9481"/>
<path d="M126.335 172.786C126.797 173.006 133.442 176.134 137.486 177.207C140.52 178.01 149.326 180.085 150.541 176.83C151.365 174.613 146.334 172.779 142.809 171.407C140.947 170.697 138.63 168.813 139.149 167.62C140.044 165.487 144.834 167.492 147.997 169.226C154.109 172.587 162.289 178.692 165.899 175.551C167.256 174.357 165.593 172.296 163.177 170.285C167.072 172.601 171.215 174.478 172.778 173.213C173.674 172.502 173.695 171.535 173.162 170.455C174.356 170.818 175.401 170.711 176.112 169.922C177.327 168.593 176.673 166.681 175.259 164.734C175.492 164.704 175.716 164.619 175.91 164.486C176.104 164.352 176.263 164.174 176.374 163.967C178.919 159.873 165.423 148.63 160.825 147.663C147.322 144.821 133.143 145.723 133.143 145.723C127.963 150.073 126.292 172.772 126.335 172.786Z" fill="#EB9481"/>
<path d="M145.808 159.93C149.024 160.364 152.11 161.479 154.862 163.199C158.33 165.367 160.654 167.946 163.575 170.533C163.653 170.604 163.575 170.725 163.476 170.654C162.054 169.425 156.319 164.819 154.834 163.782C152.149 161.857 149.059 160.571 145.801 160.022C145.801 160.022 145.779 159.923 145.808 159.93Z" fill="#263238"/>
<path d="M148.182 154.159C151.735 155.04 155.381 155.936 158.707 157.528C162.338 159.269 165.217 162.183 168.052 164.99C169.749 166.677 171.407 168.397 173.027 170.15C173.098 170.228 173.027 170.349 172.928 170.27C170.047 167.38 167.086 164.571 164.044 161.842C161.235 159.312 157.956 157.358 154.393 156.092C152.353 155.382 150.257 154.806 148.167 154.244L148.182 154.159Z" fill="#263238"/>
<path d="M151.835 149.078C155.288 149.703 158.295 150.236 161.386 151.999C165.465 154.344 169.452 158.352 170.852 159.774C172.395 161.344 173.887 162.972 175.351 164.613C175.415 164.677 175.294 164.784 175.237 164.72C171.884 161.117 168.302 157.735 164.513 154.593C162.728 153.072 160.719 151.835 158.558 150.926C156.373 150.127 154.124 149.518 151.835 149.106C151.835 149.106 151.82 149.078 151.835 149.078Z" fill="#263238"/>
<path d="M132.625 143.719L122.959 177.121C122.959 177.121 94.4538 169.723 89.145 164.265C83.8362 158.807 73.5952 130.223 70.4469 116.322C67.2985 102.421 74.377 102.606 81.1071 111.255C87.8373 119.904 104.474 140.855 105.391 141.296C106.308 141.736 132.625 143.719 132.625 143.719Z" fill="#FF8A00"/>
<path d="M119.896 162.446C121.069 158.516 122.277 154.586 123.301 150.606C123.883 148.346 124.48 146.086 125.042 143.819C125.042 143.733 124.921 143.684 124.892 143.769C123.556 147.671 122.227 151.587 121.076 155.552C119.925 159.518 118.745 163.434 117.643 167.399C117.018 169.645 116.464 171.912 115.98 174.201C115.98 174.243 116.044 174.272 116.059 174.201C117.516 170.363 118.709 166.411 119.896 162.446Z" fill="#263238"/>
<path opacity="0.1" d="M118.852 175.991C110.757 173.71 93.1888 168.408 89.1379 164.251C83.8362 158.793 73.5952 130.209 70.4469 116.315C68.9473 109.642 69.7859 106.202 71.8185 105.406C72.0406 105.512 72.2565 105.631 72.4652 105.761C82.9407 120.139 104.645 154.472 118.852 175.991Z" fill="black"/>
<path d="M37.7767 180.916C37.933 181.08 98.1849 167.875 98.7534 167.179C99.5352 166.191 88.7612 120.878 77.4329 107.353C74.5902 103.971 65.5431 104.205 61.4922 107.616C41.4012 124.531 37.2081 180.334 37.7767 180.916Z" fill="#FF8A00"/>
<path d="M56.7804 110.857C44.7627 120.096 13.0946 157.478 19.7111 166.34C26.3275 175.203 71.7119 172.26 84.9519 168.472C88.8891 167.335 78.7832 142.276 74.5759 141.04C71.0794 140.002 51.436 145.34 51.0807 144.195C50.6756 142.909 55.0321 134.63 62.0466 119.485C70.1484 102.002 62.0892 106.778 56.7804 110.857Z" fill="#EB9481"/>
<path d="M93.0466 138.091C101.802 138.311 104.02 139.718 111.524 135.959C116.435 133.507 120.11 135.596 116.769 140.223C111.311 147.799 99.9474 149.888 95.8041 149.462L93.0466 138.091Z" fill="#EB9481"/>
<path d="M68.9473 142.589C68.9473 142.589 79.4512 138.837 88.8039 138.155C95.2711 137.685 109.463 138.219 120.493 154.138C123.109 157.912 124.153 165.139 117.651 160.534C113.031 157.258 111.084 153.783 108.049 152.368C108.049 152.368 108.291 161.728 104.411 164.201C101.014 166.361 97.468 168.278 93.8 169.936C93.3446 169.335 92.9269 168.706 92.5492 168.053C92.5492 168.053 88.7044 170.015 82.3508 168.337L68.9473 142.589Z" fill="#EB9481"/>
<path d="M95.0223 138.666C97.7372 140.713 103.43 145.141 106.82 150.378C110.586 156.192 116.279 168.423 111.951 171.159C108.781 173.163 106.201 168.686 106.201 168.686C106.201 168.686 107.488 174.236 104.226 175.423C101.255 176.503 99.4641 172.921 99.4641 172.921C99.4641 172.921 99.6631 176.425 96.6214 176.915C92.94 177.505 93.1248 170.071 88.8749 167.442C87.9155 166.852 95.0223 138.666 95.0223 138.666Z" fill="#EB9481"/>
<path d="M100.033 153.335C102.278 155.673 106.002 162.289 106.294 168.565C106.294 168.7 106.201 168.785 106.166 168.657C104.731 163.33 102.655 158.197 99.9829 153.37L100.033 153.335Z" fill="#263238"/>
<path d="M94.269 157.308C95.996 159.525 99.5352 166.546 99.6134 172.879C99.6134 173.028 99.5068 173.099 99.4783 172.971C98.3227 167.576 96.5559 162.331 94.2122 157.336C94.2122 157.336 94.2477 157.279 94.269 157.308Z" fill="#263238"/>
<path d="M108.049 152.283C110.707 153.569 112.313 155.232 114.374 157.258C115.394 158.264 116.469 159.214 117.594 160.101C118.624 160.904 120.152 162.112 121.517 161.344C122.277 160.925 122.433 159.923 122.412 159.155C122.257 157.965 121.917 156.807 121.403 155.723C121.403 155.723 121.453 155.652 121.474 155.723C121.98 156.715 122.385 157.755 122.682 158.828C122.868 159.562 122.831 160.334 122.576 161.046C121.908 162.517 120.06 162.417 118.845 161.756C118.126 161.35 117.45 160.874 116.826 160.335C116.215 159.838 115.625 159.312 115.057 158.764C113.877 157.649 112.761 156.469 111.603 155.339C110.463 154.269 109.257 153.272 107.992 152.354C107.95 152.333 107.999 152.262 108.049 152.283Z" fill="#263238"/>
<path d="M112.271 163.064C111.082 159.401 109.657 155.819 108.007 152.34C108.004 152.336 108.002 152.331 108.001 152.326C108 152.321 108 152.316 108.001 152.311C108.002 152.306 108.004 152.301 108.007 152.297C108.009 152.293 108.013 152.289 108.017 152.286C108.021 152.284 108.026 152.282 108.031 152.281C108.036 152.28 108.041 152.28 108.046 152.281C108.051 152.282 108.056 152.284 108.06 152.287C108.064 152.289 108.068 152.293 108.071 152.297C109.904 154.713 112.491 160.769 113.045 162.659C113.6 164.549 114.126 166.888 113.806 168.821C113.322 171.734 111.297 171.969 110.558 171.99C109.686 172.005 108.835 171.719 108.149 171.18C107.352 170.49 106.706 169.644 106.251 168.693C106.251 168.65 106.287 168.6 106.315 168.65C107.132 169.965 108.625 171.372 110.245 171.429C110.6 171.451 110.957 171.402 111.293 171.287C111.63 171.171 111.94 170.99 112.207 170.754C112.755 170.122 113.057 169.315 113.06 168.479C113.107 166.643 112.84 164.811 112.271 163.064Z" fill="#263238"/>
<path d="M68.9473 141.303L78.0654 173.035C78.0654 173.035 21.3314 176.276 18.1902 165.971C15.049 155.666 42.453 121.908 53.8239 112.669C67 101.931 67.7036 106.437 63.4182 117.182C58.9266 128.432 51.1944 144.494 51.1944 144.494L68.9473 141.303Z" fill="#FF8A00"/>
<path d="M33.2709 149.554C36.1036 148.219 39.0299 147.094 42.0266 146.185C44.9894 145.299 48.0131 144.632 51.0736 144.188C52.8148 143.911 54.5702 143.726 56.3184 143.527C56.3297 143.527 56.3406 143.532 56.3486 143.54C56.3566 143.548 56.3611 143.559 56.3611 143.57C56.3611 143.581 56.3566 143.592 56.3486 143.6C56.3406 143.608 56.3297 143.613 56.3184 143.613C53.2445 144.072 50.1999 144.71 47.2003 145.524C44.2084 146.306 41.2448 147.138 38.2813 148.026C36.6111 148.531 34.9624 149.113 33.3065 149.668C33.2983 149.674 33.2887 149.679 33.2785 149.681C33.2683 149.683 33.2577 149.682 33.2478 149.679C33.2378 149.676 33.2288 149.67 33.2214 149.663C33.214 149.656 33.2085 149.647 33.2054 149.637C33.2023 149.627 33.2017 149.616 33.2036 149.606C33.2054 149.596 33.2098 149.586 33.2163 149.578C33.2227 149.57 33.2311 149.563 33.2406 149.559C33.2501 149.555 33.2605 149.553 33.2709 149.554Z" fill="#263238"/>
<path d="M68.8194 141.168C68.528 141.168 52.7508 143.655 52.2249 143.805C52.3244 143.591 56.3255 136.079 56.9225 134.985C56.9794 134.871 57.0291 134.765 57.0931 134.651C57.4484 134.175 57.8038 133.706 58.152 133.23L59.4455 131.346L58.0667 133.158C57.8535 133.443 57.6545 133.734 57.4555 134.018C57.8535 133.246 58.2444 132.464 58.6282 131.673C59.2536 130.415 59.8363 129.15 60.412 127.871H60.348C59.1683 130.06 57.9246 132.213 56.7377 134.395C55.5509 136.577 51.0523 144.608 51.0878 144.608C51.1233 144.608 68.528 141.516 68.8549 141.438C68.8907 141.433 68.9232 141.414 68.9452 141.386C68.9672 141.357 68.9769 141.321 68.9722 141.285C68.9675 141.249 68.9487 141.217 68.9201 141.195C68.8914 141.173 68.8552 141.163 68.8194 141.168Z" fill="#263238"/>
<path d="M66.6518 160.555C65.6568 157.002 64.6832 153.449 63.5603 149.966C62.9207 147.976 62.2882 145.986 61.6273 144.004C61.6273 143.925 61.4709 143.954 61.4922 144.004C62.3522 147.6 63.2192 151.196 64.2426 154.749C65.266 158.302 66.2467 161.856 67.3127 165.345C67.9168 167.342 68.5849 169.318 69.3098 171.287C69.3098 171.296 69.3135 171.305 69.3202 171.312C69.3268 171.318 69.3359 171.322 69.3453 171.322C69.3547 171.322 69.3638 171.318 69.3704 171.312C69.3771 171.305 69.3808 171.296 69.3808 171.287C68.6417 167.669 67.6539 164.116 66.6518 160.555Z" fill="#263238"/>
<path d="M78.6766 173.618C78.2786 172.623 77.8024 171.201 77.3618 170.221C77.2481 169.965 77.0562 169.979 77.1415 170.221C77.4187 171.109 77.6105 172.09 77.8522 172.999C77.0562 172.999 76.2674 173.035 75.4714 173.07L72.721 173.191C70.9206 173.262 69.1226 173.314 67.3269 173.348C63.6788 173.414 60.0377 173.414 56.4037 173.348C49.1187 173.212 41.8456 172.697 34.6141 171.805C32.5887 171.55 30.5632 171.251 28.5591 170.889C26.5671 170.56 24.5935 170.128 22.6462 169.595C22.5964 169.595 22.568 169.673 22.6462 169.688C24.292 170.331 25.9864 170.842 27.7134 171.216C29.5185 171.606 31.345 171.926 33.1714 172.232C36.8172 172.793 40.4844 173.156 44.1586 173.426C51.4502 173.952 58.7537 174.172 66.069 174.087C68.1158 174.087 70.1626 174.016 72.2093 173.952C73.2398 173.916 74.2774 173.881 75.3079 173.824C76.3384 173.767 78.7619 173.788 78.6766 173.618Z" fill="#263238"/>
<path d="M155.217 177.789H82.628V180.717H155.217V177.789Z" fill="#455A64"/>
<path d="M122.796 177.789H82.628V180.717H122.796V177.789Z" fill="#A6A6A6"/>
<path d="M121.574 180.717H185.194L194.184 137.508H130.564L121.574 180.717Z" fill="#A6A6A6"/>
<path d="M124.459 180.717H188.079L197.07 137.508H133.449L124.459 180.717Z" fill="#C7C7C7"/>
<path d="M156.525 160.079C156.45 160.617 156.492 161.165 156.65 161.684C156.807 162.204 157.075 162.683 157.436 163.089C157.797 163.495 158.242 163.817 158.74 164.033C159.238 164.25 159.777 164.356 160.32 164.343C161.484 164.318 162.6 163.873 163.461 163.089C164.322 162.305 164.87 161.236 165.004 160.079C165.079 159.541 165.036 158.994 164.879 158.474C164.722 157.954 164.453 157.475 164.092 157.069C163.731 156.664 163.286 156.342 162.788 156.125C162.29 155.908 161.751 155.803 161.208 155.815C160.045 155.841 158.93 156.288 158.069 157.071C157.209 157.855 156.66 158.923 156.525 160.079Z" fill="#EBEBEB"/>
<path d="M72.8419 121.844C72.8419 121.844 62.2313 111.319 55.2951 111.475L49.3751 116.649C49.3751 116.649 47.4349 117.267 46.8521 116.038C45.4308 112.996 45.1607 105.676 51.5 100.979C57.2992 96.6718 66.7371 97.0769 74.5973 99.2161C82.1447 101.27 88.6617 106.323 86.3023 111.255C83.9428 116.187 72.8419 121.844 72.8419 121.844Z" fill="#FF8A00"/>
<path opacity="0.1" d="M73.6165 119.535C73.6165 119.535 82.3437 113.416 83.2676 109.741C84.1915 106.067 76.8714 102.507 72.1312 101.092C64.804 98.9033 59.7937 99.3369 55.6433 103.224C51.4929 107.112 73.6165 119.535 73.6165 119.535Z" fill="black"/>
<path d="M73.6165 119.535C73.6165 119.535 65.1736 104.923 54.4635 103.423L55.295 111.475C55.295 111.475 61.6912 111.546 72.8419 121.844L73.6165 119.535Z" fill="#FF8A00"/>
<path d="M52.3812 111.596C54.3324 111.455 56.291 111.736 58.1236 112.421C59.9617 113.048 61.7215 113.885 63.3684 114.915C65.0277 115.927 66.6183 117.048 68.13 118.27L70.3545 120.167L72.4865 122.164L72.7282 122.392L72.9982 122.249C75.0078 121.24 76.9455 120.093 78.7974 118.817C79.731 118.192 80.6258 117.511 81.4767 116.777C82.3362 116.054 83.124 115.249 83.8291 114.375C82.1977 115.885 80.4027 117.208 78.4776 118.319C77.5324 118.895 76.5587 119.435 75.578 119.947C74.5973 120.459 73.6094 120.977 72.6144 121.439L73.119 121.532L70.987 119.464C70.2763 118.803 69.4874 118.163 68.7341 117.523C67.9808 116.884 67.1493 116.315 66.332 115.747C65.5147 115.178 64.6761 114.645 63.7877 114.183C62.0577 113.187 60.2065 112.418 58.2799 111.895C57.8038 111.753 57.3063 111.667 56.8586 111.561C56.4108 111.454 55.8707 111.419 55.3732 111.39C54.3714 111.29 53.3599 111.36 52.3812 111.596Z" fill="#263238"/>
<path d="M49.375 116.649C51.5551 115.177 53.5437 113.439 55.295 111.475C53.1193 112.954 51.1314 114.691 49.375 116.649Z" fill="#263238"/>
<path d="M69.2813 116.912C68.6531 120.255 68.3131 123.646 68.2651 127.047C68.2082 129.42 69.125 137.934 71.7616 137.622C74.3983 137.309 70.1057 131.822 69.3524 127.338C68.5991 122.853 69.8001 119.556 69.9565 116.87L69.2813 116.912Z" fill="#FF8A00"/>
<g opacity="0.1">
<path d="M69.2813 116.912C68.6531 120.255 68.3131 123.646 68.2651 127.047C68.2082 129.42 69.125 137.934 71.7616 137.622C74.3983 137.309 70.1057 131.822 69.3524 127.338C68.5991 122.853 69.8001 119.556 69.9565 116.87L69.2813 116.912Z" fill="black"/>
</g>
<path d="M78.6766 117.381C79.5244 120.63 80.1794 123.926 80.6381 127.253C80.9223 129.385 80.9792 137.145 78.57 137.138C76.1608 137.131 79.4654 131.744 79.6858 127.622C79.9061 123.5 78.4847 119.805 78.0654 117.417L78.6766 117.381Z" fill="#FF8A00"/>
<g opacity="0.1">
<path d="M78.6766 117.381C79.5244 120.63 80.1794 123.926 80.6381 127.253C80.9223 129.385 80.9792 137.145 78.57 137.138C76.1608 137.131 79.4654 131.744 79.6858 127.622C79.9061 123.5 78.4847 119.805 78.0654 117.417L78.6766 117.381Z" fill="black"/>
</g>
<path d="M74.5049 117.9C71.7545 117.715 66.6234 111.973 64.8751 107.41C64.7614 107.098 65.5858 104.091 66.5026 100.389C67.0214 98.1358 67.5544 95.62 67.8671 93.2819L82.0097 98.8252C80.7785 101.625 79.8954 104.566 79.3802 107.581C79.3486 107.905 79.3486 108.231 79.3802 108.554C79.3802 108.597 79.3802 108.654 79.3802 108.718C79.3873 110.608 78.8187 118.177 74.5049 117.9Z" fill="#EB9481"/>
<path d="M79.3446 108.562C79.3489 108.616 79.3489 108.671 79.3446 108.725C78.8352 108.722 78.3267 108.679 77.8238 108.597C69.5372 107.275 68.8834 96.8708 68.8834 93.6727L82.0097 98.811C80.7839 101.622 79.9033 104.572 79.3873 107.595C79.3485 107.916 79.3343 108.239 79.3446 108.562Z" fill="#263238"/>
<path d="M70.7454 75.0742C67.7818 79.6794 66.3249 94.9734 68.9829 99.2375C72.8419 105.413 81.2137 108.27 86.9774 103.16C92.5634 98.1857 94.0843 78.2367 90.9501 74.1574C86.288 68.1166 75.1232 68.2587 70.7454 75.0742Z" fill="#EB9481"/>
<path d="M80.2899 86.2035C80.7426 86.134 81.191 86.0391 81.633 85.9192C82.1197 85.8812 82.5809 85.6867 82.9478 85.3648C83.0435 85.2406 83.0954 85.0881 83.0954 84.9313C83.0954 84.7745 83.0435 84.6221 82.9478 84.4978C82.7204 84.2855 82.4409 84.1369 82.1377 84.067C81.8345 83.9972 81.5183 84.0085 81.2209 84.0998C80.583 84.1909 80.0037 84.5212 79.6005 85.0237C79.5154 85.141 79.4662 85.2804 79.459 85.4252C79.4518 85.5699 79.4869 85.7135 79.56 85.8386C79.6331 85.9637 79.7411 86.0648 79.8707 86.1296C80.0003 86.1944 80.1459 86.2201 80.2899 86.2035Z" fill="#263238"/>
<path d="M90.6587 87.6249C90.2261 87.4765 89.8015 87.3057 89.3866 87.1132C88.9125 86.997 88.4902 86.7271 88.1856 86.3456C88.113 86.2069 88.0883 86.0481 88.1153 85.8939C88.1423 85.7397 88.2195 85.5987 88.3348 85.4928C88.594 85.3203 88.8944 85.2195 89.2052 85.2008C89.5161 85.1821 89.8263 85.2461 90.1044 85.3862C90.7069 85.5917 91.2128 86.0116 91.5258 86.5659C91.5888 86.6954 91.6135 86.8403 91.5967 86.9833C91.58 87.1264 91.5226 87.2616 91.4314 87.3731C91.3401 87.4845 91.2189 87.5675 91.0819 87.6121C90.945 87.6567 90.7981 87.6612 90.6587 87.6249Z" fill="#263238"/>
<path d="M79.501 98.2353C79.7142 98.5054 79.9203 98.8678 80.2898 98.946C80.6727 98.9894 81.0603 98.9506 81.4269 98.8323C81.4269 98.8323 81.4838 98.8323 81.4269 98.8891C81.253 99.0694 81.0346 99.2004 80.7937 99.2691C80.5528 99.3377 80.2981 99.3415 80.0553 99.28C79.8502 99.2012 79.6731 99.0632 79.5466 98.8835C79.42 98.7038 79.3497 98.4906 79.3446 98.2708C79.3873 98.2069 79.4655 98.1927 79.501 98.2353Z" fill="#263238"/>
<path d="M80.9721 95.3002C81.1825 95.7375 81.4802 96.127 81.8469 96.4448C82.2136 96.7625 82.6414 97.0019 83.1042 97.148C83.5081 97.282 83.9295 97.3562 84.355 97.3683H84.8311C84.8867 97.3624 84.9392 97.3395 84.9812 97.3026C85.0232 97.2657 85.0527 97.2166 85.0657 97.1622C85.0692 97.1267 85.0692 97.091 85.0657 97.0556V96.9632C85.1865 96.1743 85.2646 94.9662 85.2646 94.9662C85.5347 95.1439 86.9205 95.9967 86.949 95.5774C87.1835 92.1377 87.4393 88.3071 86.949 84.8247C86.949 84.711 86.7642 84.7181 86.7571 84.8247C86.4088 88.1223 86.6363 91.4625 86.3378 94.7743C85.8447 94.4609 85.3084 94.2214 84.7458 94.0636C84.6321 94.0636 84.6392 96.4089 84.5611 96.7571C83.2108 96.7571 82.2584 96.2312 81.0858 95.1723C81.0076 95.151 80.9224 95.2078 80.9721 95.3002Z" fill="#263238"/>
<path d="M83.9428 96.9064C83.4364 97.4169 82.8076 97.7889 82.1163 97.9867C81.7358 98.0774 81.3367 98.0501 80.9721 97.9085C80.1832 97.5887 80.2614 96.8354 80.4888 96.21C80.617 95.88 80.7815 95.5654 80.9792 95.2719C81.768 96.1181 82.8062 96.6908 83.9428 96.9064Z" fill="#263238"/>
<path d="M82.1163 97.9867C81.7358 98.0774 81.3367 98.0501 80.9721 97.9085C80.1832 97.5887 80.2614 96.8354 80.4888 96.21C80.9207 96.2793 81.3164 96.4926 81.6118 96.8151C81.9072 97.1376 82.085 97.5504 82.1163 97.9867Z" fill="#FF9ABB"/>
<path d="M82.3082 89.0035C82.3082 89.0035 82.2229 89.0391 82.2158 89.0817C82.0879 90.1051 81.7681 91.2138 80.7944 91.4412V91.498C81.9386 91.5194 82.3508 89.9985 82.3082 89.0035Z" fill="#263238"/>
<path d="M81.5691 87.8025C79.9558 87.4187 79.3091 90.6453 80.8015 91.029C82.294 91.4128 82.9407 88.1223 81.5691 87.8025Z" fill="#263238"/>
<path d="M88.2495 89.7853C88.2495 89.7853 88.3206 89.8492 88.3135 89.8919C88.0718 90.8868 87.9652 92.0737 88.8038 92.5996V92.6565C87.7023 92.2656 87.8657 90.7092 88.2495 89.7853Z" fill="#263238"/>
<path d="M89.3724 88.9182C91.0141 89.1314 90.4669 92.4077 88.946 92.2087C87.4251 92.0097 87.9937 88.7406 89.3724 88.9182Z" fill="#263238"/>
<path d="M72.2023 84.9029C74.3343 82.2734 74.4054 76.6376 76.3882 75.8346C80.6523 74.1005 85.286 82.0815 89.8272 83.7587C94.2264 85.3862 96.728 83.0907 97.2255 79.2245C97.723 75.3584 95.5625 71.8476 90.8791 69.3176C86.0393 66.6951 80.6239 67.0647 77.4969 67.7683C77.4969 67.7683 79.2594 66.3896 79.0462 65.6789C78.8329 64.9682 76.0471 65.9134 75.1232 66.3896C74.4072 66.8507 73.7811 67.4383 73.2754 68.1236C72.6774 67.7188 72.0239 67.4028 71.3352 67.1855C70.3292 66.9006 69.255 66.9786 68.3006 67.4058C68.1229 67.6404 69.6509 68.4292 70.7596 68.8912C70.7596 68.8912 67.6468 70.9166 66.8295 73.3187C66.0122 75.7209 65.6142 88.3853 66.4599 88.833C67.5473 89.4158 71.3494 85.9689 72.2023 84.9029Z" fill="#455A64"/>
<path d="M71.2997 68.7775C71.3423 68.7775 71.3779 68.8414 71.2997 68.8627C69.8892 69.3451 68.6414 70.2114 67.6965 71.3644C66.6597 72.8039 66.0267 74.4945 65.8629 76.261C65.4294 79.6438 65.9269 83.0409 66.2112 86.4096C66.2112 86.5091 66.0477 86.5304 66.0335 86.4096C65.5076 82.8561 65.0456 79.0398 65.6568 75.4721C66.2041 72.4517 68.059 69.3887 71.2997 68.7775Z" fill="#455A64"/>
<path d="M76.6369 74.6193C78.0344 74.9373 79.3586 75.5185 80.5386 76.332C81.6063 77.1865 82.5615 78.1727 83.3813 79.2671C85.3926 81.5413 87.7592 83.5881 90.7156 84.4623C90.7156 84.4623 90.7156 84.5333 90.7156 84.5191C87.9439 83.8937 85.6484 82.1667 83.7225 80.1484C82.8385 79.0365 81.8892 77.978 80.8797 76.9787C79.5822 76.0434 78.1424 75.3235 76.6156 74.8467C76.5956 74.8341 76.5794 74.8162 76.5689 74.7949C76.5584 74.7737 76.5541 74.75 76.5563 74.7264C76.5585 74.7028 76.5672 74.6803 76.5814 74.6614C76.5957 74.6425 76.6149 74.6279 76.6369 74.6193Z" fill="#455A64"/>
<path d="M80.6736 67.5053C82.7822 67.2659 84.914 67.3258 87.0058 67.683C89.0259 67.9691 90.9809 68.604 92.7837 69.5592C95.8539 71.272 98.1067 74.4416 97.6519 78.0874C97.448 79.9626 96.5507 81.6938 95.1361 82.9414C95.1172 82.9584 95.0924 82.9672 95.0671 82.9658C95.0417 82.9645 95.018 82.9532 95.001 82.9343C94.9841 82.9155 94.9753 82.8907 94.9766 82.8653C94.9779 82.84 94.9893 82.8162 95.0081 82.7993C96.2157 81.623 97.0106 80.0879 97.2744 78.423C97.5383 76.758 97.2569 75.0523 96.4721 73.5604C94.6386 70.2628 90.943 68.7206 87.4038 68.0455C85.1829 67.6549 82.9272 67.4977 80.6736 67.5764V67.5053Z" fill="#455A64"/>
<path d="M78.6766 94.0636C77.8184 93.8241 77.0447 93.3486 76.4434 92.6912C75.8421 92.0337 75.4373 91.2208 75.275 90.3448C75.1127 89.4687 75.1994 88.5647 75.5254 87.7355C75.8513 86.9063 76.4033 86.1852 77.1187 85.6542C77.8341 85.1231 78.6841 84.8034 79.5721 84.7314C80.4602 84.6594 81.3506 84.838 82.1422 85.2469C82.9337 85.6558 83.5947 86.2785 84.05 87.0444C84.5052 87.8103 84.7365 88.6885 84.7174 89.5792C84.7036 90.2046 84.5666 90.8211 84.3145 91.3935C84.0623 91.9659 83.6998 92.483 83.2477 92.9153C82.7956 93.3476 82.2628 93.6866 81.6797 93.9129C81.0966 94.1392 80.4745 94.2484 79.8492 94.2342C79.4526 94.2283 79.0584 94.171 78.6766 94.0636ZM81.0574 85.4928C80.7266 85.399 80.3849 85.3488 80.0411 85.3435C78.9908 85.3214 77.9715 85.7004 77.1908 86.4034C76.4102 87.1064 75.9268 88.0806 75.8393 89.1275C75.7517 90.1744 76.0664 91.2153 76.7195 92.0383C77.3725 92.8612 78.3146 93.4043 79.354 93.557C80.3934 93.7096 81.4519 93.4603 82.314 92.8598C83.176 92.2594 83.7768 91.3529 83.9939 90.325C84.211 89.2972 84.0282 88.2252 83.4826 87.3274C82.937 86.4296 82.0697 85.7735 81.0574 85.4928Z" fill="#37474F"/>
<path d="M89.4932 95.684C87.7378 95.1937 86.6505 92.9479 87.0271 90.496C87.1883 89.3171 87.7152 88.2184 88.5338 87.3548C88.8627 86.9647 89.2865 86.6658 89.7644 86.4871C90.2423 86.3083 90.7583 86.2557 91.2624 86.3342C91.7666 86.4128 92.242 86.6199 92.6429 86.9356C93.0438 87.2513 93.3566 87.6649 93.5512 88.1366C94.0687 89.2067 94.2377 90.4122 94.0345 91.5834C93.6294 94.1845 91.7319 96.0465 89.7704 95.748C89.6767 95.7329 89.5841 95.7115 89.4932 95.684ZM91.405 87.0137L91.1633 86.9568C90.7586 86.9141 90.3495 86.9685 89.9701 87.1156C89.5906 87.2627 89.2517 87.4982 88.9815 87.8025C88.2631 88.5728 87.7991 89.5454 87.6525 90.5884C87.3043 92.8413 88.3064 94.8525 89.8983 95.1155C91.4902 95.3784 93.0537 93.7368 93.4091 91.4839C93.5889 90.4464 93.4424 89.3787 92.9898 88.4279C92.8373 88.0965 92.6178 87.8003 92.345 87.5581C92.0722 87.3159 91.7521 87.1329 91.405 87.0208V87.0137Z" fill="#37474F"/>
<path d="M84.4758 90.098L84.1489 89.5508C84.9519 89.0604 86.7287 88.5132 87.7023 89.9203L87.1764 90.2828C86.3022 89.0178 84.5469 90.0554 84.4758 90.098Z" fill="#37474F"/>
<path d="M63.3045 88.0441L62.7928 87.6674C62.9633 87.4258 64.5482 85.3222 65.9838 85.3151C67.4193 85.308 75.6491 87.4471 76.0044 87.504L75.8481 88.1223C73.4602 87.5182 67.0285 85.9476 65.9909 85.9547C64.9533 85.9618 63.7522 87.4613 63.3045 88.0441Z" fill="#37474F"/>
<path d="M70.4966 87.7812C70.4966 87.7812 68.4285 82.1881 65.9767 82.8064C63.5248 83.4247 64.2142 90.9295 66.4884 92.5286C66.7658 92.7529 67.0857 92.9188 67.4289 93.0163C67.7722 93.1137 68.1316 93.1407 68.4855 93.0955C68.8394 93.0503 69.1805 92.934 69.4883 92.7535C69.7961 92.573 70.0641 92.3321 70.2763 92.0453L70.4966 87.7812Z" fill="#EB9481"/>
<path d="M66.2254 84.9526V85.0166C67.8031 86.1963 68.3006 88.0725 68.5067 89.9416C68.4563 89.7346 68.3601 89.5415 68.225 89.3767C68.0899 89.2119 67.9195 89.0795 67.7264 88.9895C67.5333 88.8994 67.3224 88.8539 67.1093 88.8563C66.8963 88.8588 66.6865 88.9091 66.4955 89.0036C66.4386 89.0036 66.4955 89.1101 66.4955 89.1101C66.8319 89.0918 67.1657 89.1784 67.4509 89.3579C67.736 89.5374 67.9584 89.8009 68.0874 90.1122C68.3014 90.6334 68.4564 91.1769 68.5493 91.7326C68.592 91.9174 68.8976 91.9031 68.8834 91.7326V91.6899C69.5088 89.4229 68.5849 85.8126 66.2254 84.9526Z" fill="#263238"/>
</svg>
