<svg width="725" height="699" viewBox="0 0 725 699" fill="none" xmlns="http://www.w3.org/2000/svg">
<path d="M626.344 598.207H687.412V578.772H626.344V598.207Z" fill="#EBEBEB"/>
<path d="M477.705 406.477H538.772V387.041H477.705V406.477Z" fill="#EBEBEB"/>
<path d="M660.404 622.697L691.147 622.194L706.344 621.985H721.472L720.673 622.767V603.331L721.542 604.2L691.008 604.096L675.741 603.939L660.474 603.748L660.891 603.331L660.404 622.697ZM660.404 622.697L660.005 603.262V602.862H660.422L675.689 602.671L690.956 602.515L721.49 602.394H722.358V603.262V622.697V623.496H721.576H706.17L690.834 623.288L660.404 622.697Z" fill="#EBEBEB"/>
<path d="M272.756 148.883L303.498 148.379L318.696 148.171L333.824 148.084L333.042 148.883V129.448L333.911 130.316L303.377 130.195L288.11 130.056L272.843 129.865L273.26 129.448L272.756 148.883ZM272.756 148.883L272.356 129.448V129.048H272.773L288.04 128.857L303.307 128.718L333.841 128.597H334.71V129.465V148.901V149.699H333.911L318.505 149.613L303.168 149.404L272.756 148.883Z" fill="#EBEBEB"/>
<path d="M306.833 173.425L337.575 172.921L352.755 172.713H367.883L367.102 173.512L367.015 154.077L367.883 154.945L337.367 154.823L322.1 154.684L306.833 154.493L307.232 154.077L306.833 173.425ZM306.833 173.425L306.416 153.99V153.59H306.85L322.117 153.399L337.384 153.26L367.901 153.139H368.786V154.007V173.442V174.241H367.988L352.599 174.155L337.245 173.946L306.833 173.425Z" fill="#EBEBEB"/>
<path d="M340.754 148.883H401.821V129.447H340.754V148.883Z" fill="#EBEBEB"/>
<path d="M2.97028 622.715H64.0381V603.279H2.97028V622.715Z" fill="#EBEBEB"/>
<path d="M37.0298 22.5439L98.0977 22.5439V3.10854L37.0298 3.10854V22.5439Z" fill="#EBEBEB"/>
<path d="M2.97007 47.0343L33.7124 46.5306L48.9099 46.3222H64.0379L63.2389 47.1038V27.6684L64.1074 28.5368L33.5734 28.4152L18.3239 28.2068L3.05691 28.0157L3.38692 27.5294L2.97007 47.0343ZM2.97007 47.0343L2.55322 27.5294V27.1299H2.97007L18.3239 27.0084L33.5908 26.852L64.1247 26.7305H64.9932V27.5294V46.9648V47.7638H64.2116H48.8057L33.4692 47.5554L2.97007 47.0343Z" fill="#EBEBEB"/>
<path d="M626.345 22.5275L657.087 22.0238L672.284 21.8154H687.412L686.613 22.5969V3.16154L687.482 4.02996L656.948 3.90838L641.681 3.76943L626.414 3.57838L626.831 3.16154L626.345 22.5275ZM626.345 22.5275L625.928 3.09206V2.69258H626.345L641.612 2.50153L656.878 2.34521L687.412 2.22363H688.281V3.09206L688.194 22.5275V23.3264H687.412H672.006L656.67 23.118L626.345 22.5275Z" fill="#EBEBEB"/>
<path d="M472.98 0V338.687H693.092V0H472.98ZM684.964 330.541H481.092V8.12848H684.964V330.541Z" fill="#EBEBEB"/>
<path d="M684.963 8.12891H481.091V330.541H684.963V8.12891Z" fill="white"/>
<path d="M481.091 173.391L684.963 173.391V165.262L481.091 165.262V173.391Z" fill="#EBEBEB"/>
<path d="M458.026 361.961L708.046 361.961V338.652L458.026 338.652V361.961Z" fill="#DBDBDB"/>
<path d="M481.091 8.12891H684.963V216.708H481.091V8.12891ZM677.443 15.6495H488.612V209.187H677.443V15.6495Z" fill="#DBDBDB"/>
<path d="M619.901 8.12891H615.836V209.205H619.901V8.12891Z" fill="#DBDBDB"/>
<path d="M550.218 8.12891H546.154V209.205H550.218V8.12891Z" fill="#DBDBDB"/>
<path d="M31.3677 0V338.687H251.479V0H31.3677ZM243.368 330.541H39.4962V8.12848H243.368V330.541Z" fill="#EBEBEB"/>
<path d="M243.368 8.12891H39.4961V330.541H243.368V8.12891Z" fill="white"/>
<path d="M39.4962 173.391L243.368 173.391V165.262L39.4962 165.262V173.391Z" fill="#EBEBEB"/>
<path d="M16.3958 361.961L266.416 361.961V338.652L16.3958 338.652V361.961Z" fill="#DBDBDB"/>
<path d="M39.4785 8.12891H243.351V216.708H39.4785V8.12891ZM235.743 15.6495H46.9991V209.187H235.83L235.743 15.6495Z" fill="#DBDBDB"/>
<path d="M178.288 8.12891H174.224V209.205H178.288V8.12891Z" fill="#DBDBDB"/>
<path d="M108.623 8.12891H104.559V209.205H108.623V8.12891Z" fill="#DBDBDB"/>
<path d="M0 697.886L90.5596 697.469L181.119 697.313L362.221 697.018L543.323 697.313L633.882 697.452L724.442 697.886L633.882 698.303L543.323 698.459L362.221 698.754L181.119 698.459L90.5596 698.303L0 697.886Z" fill="#263238"/>
<path d="M723.365 442.794H502.976V474.075H723.365V442.794Z" fill="#455A64"/>
<path d="M718.12 474.075H508.238V484.236H718.12V474.075Z" fill="#455A64"/>
<path d="M718.12 474.075H508.238V477.445H718.12V474.075Z" fill="#263238"/>
<path d="M510.305 698.754H501.916L526.336 484.218H547.752L510.305 698.754Z" fill="#455A64"/>
<path d="M547.752 484.235L545.251 498.582H524.704L526.336 484.235H547.752Z" fill="#263238"/>
<path d="M716.053 698.754H724.442L700.022 484.218H678.589L716.053 698.754Z" fill="#455A64"/>
<path d="M678.589 484.235L681.107 498.582H701.637L700.004 484.235H678.589Z" fill="#263238"/>
<path d="M667.195 569.549C665.501 575.744 664.379 582.081 663.843 588.481C664.017 588.793 663.982 589.957 663.843 589.644C663.843 590.687 662.228 590.495 662.228 589.471C662.228 588.793 662.228 588.133 662.228 587.473C658.528 582.888 653.162 579.987 648.819 575.993C645.325 572.86 642.78 568.811 641.473 564.304C637.877 551.885 641.247 538.737 636.922 526.371C633.188 515.706 626.501 506.432 620.821 496.844C614.847 486.614 610.4 475.88 609.983 463.844C609.636 454.673 610.73 442.446 617.712 435.585C625.111 428.291 634.299 433.762 639.961 440.258C656.392 459.12 664 482.949 667.074 507.317C668.811 520.795 670.547 534.378 670.113 547.995C669.863 555.259 668.886 562.48 667.195 569.549Z" fill="#235ADB"/>
<path d="M663.93 593.431C664.822 580.703 664.671 567.923 663.478 555.22C663.478 555.22 663.478 555.133 663.478 555.081C663.687 544.747 664.503 534.465 664.103 524.113C663.605 512.933 662.081 501.823 659.553 490.922C659.56 490.906 659.563 490.889 659.561 490.871C659.56 490.854 659.554 490.837 659.545 490.823C659.535 490.809 659.522 490.797 659.507 490.788C659.492 490.78 659.475 490.776 659.457 490.776C659.44 490.776 659.423 490.78 659.408 490.788C659.393 490.797 659.38 490.809 659.37 490.823C659.361 490.837 659.355 490.854 659.354 490.871C659.352 490.889 659.355 490.906 659.362 490.922C661.367 501.638 662.569 512.489 662.957 523.384C663.166 529.173 663.119 535.009 662.818 540.891C662.714 542.784 662.54 544.695 662.401 546.605C658.109 517.609 647.63 489.876 631.676 465.286C631.468 464.956 630.86 465.286 631.068 465.668C642.49 484.367 650.95 504.72 656.149 526.006C648.246 511.365 636.296 499.328 627.438 485.26C627.438 485.26 627.265 485.26 627.317 485.346C635.272 500.978 648.402 513.362 656.843 528.768C658.285 535.055 659.483 541.412 660.317 547.786C661.5 556.55 662.138 565.379 662.228 574.221C657.417 565.224 652.414 556.627 648.472 547.109C648.368 546.848 648.003 547.022 648.09 547.283C651.442 557.165 655.94 567.812 662.245 576.236C662.245 582.489 662.089 588.759 661.724 594.994C660.751 611.685 657.903 628.133 656.513 644.772C656.502 644.874 656.531 644.975 656.595 645.055C656.658 645.135 656.751 645.186 656.852 645.198C656.953 645.209 657.055 645.18 657.135 645.117C657.215 645.053 657.266 644.961 657.278 644.859C660.648 627.885 662.871 610.704 663.93 593.431Z" fill="#263238"/>
<path d="M646.214 464.782C646.214 464.66 645.971 464.782 646.023 464.869C649.062 473.292 650.799 481.82 652.97 490.452C652.984 490.535 653.03 490.609 653.099 490.658C653.167 490.707 653.252 490.727 653.335 490.713C653.418 490.699 653.492 490.653 653.541 490.585C653.59 490.516 653.609 490.431 653.596 490.348C652.727 481.595 649.601 472.858 646.214 464.782Z" fill="#263238"/>
<path d="M723.573 500.093C721.57 505.037 719.25 509.846 716.626 514.491C711.137 524.443 705.423 533.597 704.468 545.181C704.293 550.37 703.553 555.524 702.262 560.553C700.821 564.844 698.755 568.9 696.131 572.589C690.191 581.273 682.757 588.724 677.234 597.704C671.507 607.083 667.276 617.296 664.694 627.977C664.555 628.55 663.634 628.394 663.773 627.821C663.773 627.821 663.773 627.734 663.773 627.682C663.765 627.663 663.761 627.642 663.761 627.621C663.761 627.6 663.765 627.58 663.773 627.56C662.905 602.689 664.885 577.608 672.458 553.779C675.806 543.298 679.833 533.047 684.511 523.089C688.576 514.404 693.63 506.137 700.768 499.693C705.406 495.525 715.445 487.535 722.045 491.79C725.067 493.805 724.824 496.984 723.573 500.093Z" fill="#235ADB"/>
<path d="M698.58 556.488C694.199 563.728 689.373 570.689 684.129 577.33C681.715 580.474 679.266 583.6 676.869 586.744C675.723 588.238 674.455 589.714 673.396 591.312L675.376 583.322C678.589 570.765 681.68 558.086 686.457 545.997C691.356 534.292 697.127 522.97 703.721 512.129C703.895 511.851 703.426 511.642 703.27 511.92C698.059 520.605 692.675 529.185 688.246 538.303C685.813 543.383 683.685 548.603 681.872 553.935C683.897 542.589 686.735 531.404 690.365 520.466C690.365 520.379 690.261 520.309 690.208 520.466C685.47 531.511 682.499 543.234 681.403 555.203C680.326 558.433 679.33 561.693 678.415 564.981C674.49 578.876 671.051 592.962 667.872 607.083C667.811 597.805 668.614 588.543 670.269 579.414C670.258 579.38 670.236 579.349 670.206 579.328C670.177 579.307 670.141 579.295 670.104 579.295C670.068 579.295 670.032 579.307 670.002 579.328C669.973 579.349 669.951 579.38 669.939 579.414C667.514 588.932 666.704 598.79 667.542 608.576C666.327 613.943 665.163 619.31 664.069 624.694C661.62 636.157 658.615 647.829 657.121 659.431C657.116 659.461 657.116 659.491 657.122 659.521C657.128 659.551 657.14 659.579 657.157 659.604C657.174 659.629 657.195 659.65 657.221 659.667C657.246 659.683 657.274 659.695 657.304 659.701C657.333 659.706 657.364 659.706 657.393 659.7C657.423 659.694 657.451 659.682 657.476 659.665C657.501 659.648 657.523 659.626 657.539 659.601C657.556 659.576 657.567 659.548 657.573 659.518C659.31 653.231 660.317 646.735 661.707 640.413C663.096 634.091 664.555 627.682 666.031 621.307C668.185 612.05 670.46 602.81 672.753 593.518C674.299 590.148 677.286 587.143 679.509 584.312C681.958 581.203 684.407 578.077 686.787 574.916C691.261 569.068 695.268 562.877 698.771 556.401C698.875 556.453 698.65 556.349 698.58 556.488Z" fill="#263238"/>
<path d="M699.64 545.841C694.161 552.832 689.417 560.37 685.484 568.333C685.484 568.42 685.606 568.542 685.658 568.438C690.417 560.969 695.107 553.449 699.866 545.98C699.935 545.859 699.727 545.737 699.64 545.841Z" fill="#263238"/>
<path d="M593.744 523.679C596.974 529.236 600.691 535.836 599.267 542.558C598.381 546.779 595.289 550.2 594.734 554.508C593.483 564.008 602.966 570.296 609.809 574.777C626.9 585.997 650.313 595.984 653.422 618.876C653.543 619.674 654.95 619.483 654.846 618.684C654.854 618.633 654.854 618.58 654.846 618.528C654.846 618.528 654.933 618.528 654.933 618.407C657.169 606.848 657.057 594.958 654.603 583.444C652.067 571.65 646.909 561.038 640.83 550.687C630.548 533.144 619.675 515.185 604.13 501.742C599.823 498.043 591.017 491.321 587.578 499.745C584.139 508.168 589.749 516.905 593.744 523.679Z" fill="#235ADB"/>
<path d="M609.375 560.865C620.699 573.127 638.71 579.97 648.454 593.726C643.012 572.825 632.725 553.499 618.424 537.313C618.383 537.272 618.35 537.224 618.328 537.17C618.306 537.116 618.295 537.059 618.295 537.001C618.295 536.943 618.306 536.885 618.328 536.832C618.35 536.778 618.383 536.729 618.424 536.688C618.465 536.647 618.514 536.614 618.567 536.592C618.621 536.57 618.679 536.559 618.737 536.559C618.795 536.559 618.852 536.57 618.906 536.592C618.959 536.614 619.008 536.647 619.049 536.688C629.471 546.818 637.809 558.89 643.591 572.224C640.897 562.912 637.357 553.865 633.014 545.199C632.987 545.133 632.986 545.06 633.009 544.993C633.031 544.927 633.078 544.87 633.139 544.835C633.199 544.799 633.271 544.786 633.341 544.799C633.41 544.811 633.473 544.849 633.517 544.903C638.895 554.371 642.741 564.629 644.911 575.298C657.764 606.388 658.945 642.862 656.253 675.636C656.253 676.105 655.506 676.123 655.523 675.636C656.253 649.809 655.836 623.531 649.653 598.294L649.236 596.731C638.641 581.951 620.717 575.09 609.184 561.056C609.062 560.917 609.253 560.744 609.375 560.865Z" fill="#263238"/>
<path d="M606.753 550.322C612.693 555.776 618.546 561.369 624.503 566.805C624.503 566.805 624.503 566.979 624.416 566.927C617.681 562.385 611.618 556.918 606.405 550.687C606.375 550.638 606.362 550.58 606.368 550.523C606.374 550.466 606.399 550.413 606.439 550.371C606.478 550.329 606.531 550.302 606.587 550.293C606.644 550.284 606.702 550.295 606.753 550.322Z" fill="#263238"/>
<path d="M605.815 526.701C611.075 535.319 617.022 543.497 623.6 551.156C623.687 551.26 623.6 551.417 623.444 551.312C616.063 544.29 609.983 536.016 605.485 526.875C605.473 526.833 605.477 526.788 605.494 526.749C605.511 526.709 605.542 526.676 605.58 526.656C605.619 526.636 605.663 526.629 605.705 526.637C605.748 526.646 605.787 526.668 605.815 526.701Z" fill="#263238"/>
<path d="M632.58 698.753H684.651L677.634 628.688H640.604L632.58 698.753Z" fill="#455A64"/>
<path d="M639.284 640.082H678.78L677.633 628.688H640.586L639.284 640.082Z" fill="#263238"/>
<path d="M634.212 632.11H683.018V620.925H634.212V632.11Z" fill="#455A64"/>
<path d="M67.6505 221.032H58.2715V689.375H67.6505V221.032Z" fill="#263238"/>
<path d="M222.895 55.4171L0 278.312L6.63198 284.944L229.527 62.049L222.895 55.4171Z" fill="#263238"/>
<path d="M12.106 689.375V698.754H113.799V689.375H12.106Z" fill="#263238"/>
<path d="M230.481 89.9865L261.918 60.4599L232.322 36.4219L208.77 58.5494L230.481 89.9865Z" fill="#235ADB"/>
<path opacity="0.1" d="M261.917 60.4604L230.48 89.9869L221.848 77.4816L248.787 49.8135L261.917 60.4604Z" fill="black"/>
<path d="M227.232 139.295L312.06 59.5737L271.54 37.7588L207.971 97.5066L227.232 139.295Z" fill="#235ADB"/>
<path opacity="0.6" d="M558.155 391.504C558.155 391.504 528.021 377.609 528.021 359.007C528.021 340.406 567.1 328.421 567.1 313.849C567.1 299.277 550.062 290.749 550.062 290.749C550.062 290.749 576.983 299.954 576.983 318.348C576.983 336.741 551.208 349.229 548.759 361.005C545.32 377.192 558.155 391.504 558.155 391.504Z" fill="#DBDBDB"/>
<path opacity="0.6" d="M556.749 391.504C556.749 391.504 586.901 380.597 586.901 365.955C586.901 351.313 547.717 341.9 547.717 330.471C547.717 319.043 564.773 312.373 564.773 312.373C564.773 312.373 537.834 319.598 537.834 334.066C537.834 348.534 567.361 358.487 569.549 370.228C571.738 381.969 556.749 391.504 556.749 391.504Z" fill="#DBDBDB"/>
<path d="M572.172 438.312H543.497V442.794H572.172V438.312Z" fill="#235ADB"/>
<path opacity="0.1" d="M572.172 438.312H543.497V441.265H572.172V438.312Z" fill="black"/>
<path d="M606.214 426.275C604.473 428.862 602.024 430.892 599.159 432.124C596.295 433.356 593.137 433.738 590.061 433.223C589.07 433.039 588.099 432.76 587.161 432.389C585.732 431.829 584.369 431.112 583.097 430.253L586.744 424.851C587.422 425.329 588.143 425.742 588.898 426.084C590.981 427.047 593.342 427.225 595.547 426.587C597.751 425.949 599.652 424.537 600.899 422.611C604.825 417.088 606.232 404.478 602.254 399.615C601.994 399.267 600.83 398.694 596.21 399.615C595.359 399.806 594.473 400.014 593.309 400.309C592.459 400.597 591.579 400.789 590.687 400.883L590.565 397.635L590.253 394.404C590.548 394.404 591.017 394.213 591.625 394.039C593.757 393.418 595.935 392.966 598.138 392.685C601.612 392.337 605.085 392.685 607.291 395.429C613.752 403.332 611.13 419.363 606.214 426.275Z" fill="#235ADB"/>
<path opacity="0.1" d="M586.744 424.816C587.422 425.294 588.143 425.707 588.898 426.05L587.161 432.354C585.732 431.794 584.369 431.078 583.097 430.218L586.744 424.816Z" fill="black"/>
<path opacity="0.1" d="M598.138 392.668L596.21 399.615C595.359 399.806 594.473 400.015 593.309 400.31C592.459 400.597 591.579 400.79 590.687 400.883L590.565 397.635L590.252 394.405C590.548 394.405 591.017 394.214 591.625 394.04C593.756 393.413 595.934 392.955 598.138 392.668Z" fill="black"/>
<path d="M519.702 384.227C519.702 384.227 519.945 386.363 520.431 389.732C520.518 390.236 520.587 390.809 520.674 391.365C521.022 393.675 521.473 396.419 521.977 399.355C521.988 399.528 521.988 399.702 521.977 399.876C522.741 404.096 523.714 408.682 524.739 413.024C524.739 413.215 524.86 413.406 524.895 413.579C525.19 414.743 525.503 415.889 525.815 417.053C526.128 418.217 526.475 419.242 526.805 420.266C527.421 422.156 528.152 424.007 528.994 425.807C534.934 438.104 543.236 439.476 548.377 439.476H567.17C572.38 439.476 580.613 438.104 586.536 425.807L587.074 424.608C587.213 424.313 587.335 424.001 587.456 423.688C587.578 423.375 587.717 423.045 587.838 422.715L588.099 422.021C589.334 418.53 590.36 414.969 591.173 411.356C591.222 411.208 591.262 411.057 591.295 410.905C591.295 410.905 591.295 410.8 591.295 410.731C591.66 409.203 591.99 407.657 592.302 406.128C592.841 403.627 593.327 401.144 593.726 398.799C593.9 397.722 594.091 396.662 594.265 395.655C594.265 395.36 594.352 395.099 594.404 394.821C594.508 394.144 594.63 393.484 594.716 392.841C594.803 392.199 594.89 391.608 594.977 391.104C595.064 390.601 595.133 389.958 595.22 389.368C595.672 386.259 595.897 384.296 595.897 384.296L519.702 384.227Z" fill="#235ADB"/>
<path opacity="0.1" d="M522.012 399.875C522.776 404.096 523.749 408.681 524.773 413.023C525.26 413.023 525.729 413.18 526.198 413.284C528.494 413.819 530.676 414.761 532.641 416.063C534.57 417.394 536.372 418.9 538.026 420.561C539.625 422.197 541.369 423.685 543.236 425.008C545.099 426.249 547.269 426.953 549.506 427.04C550.597 427.008 551.669 426.751 552.656 426.285C553.642 425.819 554.521 425.153 555.238 424.33C556.822 422.676 558.257 420.886 559.528 418.981C560.834 417.037 562.243 415.164 563.748 413.371C564.535 412.469 565.42 411.66 566.388 410.956C566.943 410.625 567.524 410.34 568.125 410.105C568.723 409.901 569.351 409.795 569.984 409.793C571.233 409.768 572.468 410.074 573.562 410.679C574.61 411.265 575.579 411.983 576.445 412.815C578.182 414.413 579.675 416.289 581.221 417.939C582.586 419.727 584.428 421.094 586.536 421.881C587.068 421.994 587.619 421.994 588.151 421.881C589.386 418.39 590.412 414.829 591.225 411.217C590.617 411.061 589.992 410.904 589.384 410.713C587.138 409.944 585.054 408.766 583.236 407.24C581.451 405.73 579.8 404.068 578.303 402.272C576.861 400.49 575.269 398.834 573.544 397.322C571.803 395.905 569.706 394.992 567.483 394.682C566.395 394.615 565.305 394.771 564.281 395.142C563.256 395.512 562.318 396.089 561.525 396.836C559.789 398.315 558.195 399.955 556.766 401.734C555.238 403.471 553.727 405.207 552.007 406.944C551.14 407.772 550.178 408.495 549.141 409.098C548.585 409.383 548.004 409.616 547.405 409.793C546.778 409.934 546.134 409.981 545.494 409.932C544.249 409.814 543.055 409.384 542.02 408.681C541.032 407.998 540.138 407.186 539.363 406.267C537.765 404.53 536.48 402.567 535.09 400.726C533.907 398.81 532.21 397.264 530.192 396.263C528.091 395.516 525.85 396.697 524.096 398.086C523.419 398.729 522.741 399.215 522.012 399.875Z" fill="black"/>
<path d="M522.012 399.355C522.023 399.528 522.023 399.702 522.012 399.876C522.689 399.285 523.366 398.729 524.061 398.139C525.798 396.749 528.056 395.568 530.158 396.315C532.175 397.316 533.872 398.863 535.056 400.779C536.445 402.62 537.73 404.583 539.328 406.319C540.103 407.238 540.997 408.05 541.986 408.734C543.02 409.436 544.215 409.866 545.459 409.984C546.099 410.033 546.743 409.986 547.37 409.845C547.969 409.668 548.551 409.435 549.107 409.15C550.143 408.548 551.105 407.825 551.972 406.997C553.709 405.364 555.203 403.523 556.731 401.786C558.16 400.008 559.754 398.368 561.49 396.888C562.284 396.141 563.221 395.565 564.246 395.194C565.271 394.824 566.36 394.667 567.448 394.735C569.672 395.045 571.768 395.958 573.509 397.375C575.234 398.886 576.826 400.542 578.268 402.325C579.766 404.12 581.416 405.782 583.201 407.292C585.019 408.819 587.104 409.997 589.35 410.766C589.957 410.957 590.583 411.113 591.191 411.269C591.239 411.121 591.28 410.97 591.312 410.818C590.722 410.644 590.114 410.47 589.575 410.245C585.3 408.526 581.619 405.599 578.981 401.821C577.541 399.96 575.924 398.244 574.152 396.697C572.285 395.156 570.033 394.153 567.639 393.797C566.411 393.701 565.176 393.858 564.011 394.259C562.846 394.659 561.775 395.294 560.865 396.124C559.066 397.637 557.409 399.311 555.915 401.126C554.387 402.863 552.928 404.6 551.295 406.25C549.662 407.9 547.717 409.237 545.581 408.977C544.495 408.823 543.451 408.455 542.509 407.894C541.567 407.334 540.746 406.592 540.092 405.711C538.564 403.975 537.244 402.116 535.802 400.275C534.478 398.264 532.611 396.668 530.418 395.672C529.228 395.308 527.946 395.382 526.805 395.881C525.71 396.343 524.69 396.97 523.783 397.739C523.141 398.278 522.568 398.799 522.012 399.355Z" fill="white"/>
<path d="M524.825 413.111C524.825 413.302 524.947 413.493 524.982 413.667L526.11 413.91C530.527 415.221 534.475 417.77 537.487 421.257C539.064 422.973 540.809 424.527 542.697 425.894C544.707 427.248 547.051 428.023 549.471 428.135C550.699 428.12 551.911 427.85 553.03 427.341C554.148 426.833 555.148 426.098 555.967 425.182C557.618 423.499 559.117 421.674 560.448 419.728C561.702 417.801 563.07 415.95 564.547 414.188C566.006 412.451 567.795 410.87 569.931 410.888C572.141 411.007 574.217 411.985 575.715 413.615C577.452 415.143 578.911 416.915 580.526 418.599C582.029 420.476 584.035 421.885 586.31 422.664C586.809 422.759 587.322 422.759 587.821 422.664L588.081 421.969C587.549 422.081 586.999 422.081 586.466 421.969C584.359 421.181 582.516 419.814 581.151 418.026C579.606 416.289 578.129 414.552 576.375 412.902C575.509 412.07 574.54 411.352 573.492 410.766C572.398 410.161 571.164 409.856 569.914 409.88C569.282 409.883 568.654 409.988 568.056 410.193C567.454 410.428 566.873 410.712 566.319 411.044C565.351 411.747 564.465 412.557 563.679 413.458C562.173 415.252 560.764 417.124 559.458 419.068C558.187 420.974 556.752 422.764 555.168 424.418C554.451 425.241 553.572 425.906 552.586 426.372C551.599 426.839 550.527 427.096 549.436 427.127C547.199 427.04 545.029 426.337 543.166 425.095C541.3 423.772 539.556 422.284 537.956 420.649C536.302 418.988 534.5 417.482 532.572 416.15C530.606 414.848 528.424 413.907 526.128 413.371C525.78 413.111 525.312 413.111 524.825 413.111Z" fill="white"/>
<path d="M221.345 590.947L88.7188 697.885H96.1872L249.36 590.947H221.345Z" fill="#C7C7C7"/>
<path d="M233.798 590.947L168.267 697.885H175.735L256.065 590.947H233.798Z" fill="#C7C7C7"/>
<path d="M265.93 590.947L331.462 697.885H323.993L243.664 590.947H265.93Z" fill="#C7C7C7"/>
<path d="M277.376 590.947L409.985 697.885H402.516L249.36 590.947H277.376Z" fill="#C7C7C7"/>
<path d="M498.72 551.729V520.448L316.594 512.962L220.407 256.134H0L77.9848 551.729L264.297 604.026H275.969L498.72 551.729Z" fill="#455A64"/>
<path d="M0 256.134H25.2191L106.469 525.572L271.314 572.276L498.72 520.448V551.729L275.969 604.026H264.297L77.9848 551.729L0 256.134Z" fill="#37474F"/>
<path d="M632.649 696.808C626.762 696.947 474.37 649.913 469.698 644.373C469.194 643.765 471.574 621.203 475.516 603.296C475.69 602.428 421.378 531.286 421.378 531.286L519.563 493.075L566.545 590.339L578.703 615.645C578.703 615.645 629.54 666.761 634.056 673.309C638.572 679.857 638.52 696.669 632.649 696.808Z" fill="#EBEBEB"/>
<path d="M636.939 697.677C630.808 697.833 471.712 649.27 466.814 643.574C464.939 641.437 467.787 631.589 475.499 603.296L579.71 615.853C579.71 615.853 633.552 666.396 638.242 673.17C642.931 679.943 643.053 697.503 636.939 697.677Z" fill="#235ADB"/>
<path d="M636.644 690.608C610.174 681.819 502.576 648.923 475.742 642.149C475.533 642.149 475.481 642.236 475.742 642.323C501.795 651.615 609.653 683.712 636.575 690.955C637.026 691.198 637.148 690.799 636.644 690.608Z" fill="#263238"/>
<path d="M629.87 664.364C626.929 663.382 623.815 663.022 620.726 663.306C617.638 663.59 614.642 664.512 611.929 666.014C607.02 668.672 603.325 673.12 601.612 678.433C601.612 678.589 601.872 678.693 601.942 678.537C606.649 668.55 618.946 662.28 629.731 664.642C629.764 664.642 629.795 664.633 629.823 664.616C629.85 664.599 629.872 664.575 629.887 664.546C629.901 664.517 629.907 664.485 629.905 664.453C629.902 664.42 629.89 664.39 629.87 664.364Z" fill="#263238"/>
<path d="M590.583 626.379C579.953 622.906 566.441 622.906 557.131 629.662C556.766 629.923 557.131 630.426 557.513 630.357C568.343 628.32 579.359 627.441 590.374 627.734C590.539 627.732 590.697 627.672 590.822 627.564C590.946 627.456 591.028 627.308 591.053 627.145C591.078 626.983 591.044 626.816 590.958 626.676C590.872 626.536 590.739 626.431 590.583 626.379Z" fill="#263238"/>
<path d="M597.843 632.093C587.213 628.619 573.7 628.619 564.391 635.393C564.026 635.654 564.391 636.157 564.773 636.088C575.602 634.043 586.618 633.164 597.634 633.465C597.812 633.483 597.989 633.433 598.131 633.323C598.272 633.214 598.365 633.055 598.392 632.878C598.419 632.702 598.377 632.522 598.274 632.376C598.172 632.23 598.018 632.128 597.843 632.093Z" fill="#263238"/>
<path d="M605.103 637.825C594.473 634.352 580.961 634.352 571.651 641.125C571.286 641.386 571.651 641.89 572.033 641.82C582.862 639.775 593.879 638.895 604.895 639.198C605.072 639.216 605.25 639.165 605.391 639.056C605.532 638.947 605.626 638.787 605.652 638.611C605.679 638.434 605.637 638.254 605.535 638.108C605.433 637.962 605.278 637.861 605.103 637.825Z" fill="#263238"/>
<path d="M612.328 643.556C601.699 640.082 588.186 640.083 578.876 646.839C578.511 647.099 578.876 647.62 579.258 647.551C590.087 645.505 601.104 644.626 612.12 644.928C612.297 644.947 612.475 644.896 612.616 644.787C612.757 644.677 612.851 644.518 612.877 644.342C612.904 644.165 612.862 643.985 612.76 643.839C612.658 643.693 612.503 643.592 612.328 643.556Z" fill="#263238"/>
<path d="M610.817 601.403C606.788 595.272 598.659 597.582 593.883 601.212C585.847 607.598 579.63 615.984 575.854 625.528C575.767 625.754 575.854 625.893 576.097 625.945C576.097 626.779 576.792 627.682 577.747 627.387C586.953 624.452 597.165 622.454 605.19 616.775C609.879 613.475 614.638 607.205 610.817 601.403ZM590.791 620.092C586.31 621.655 581.759 622.975 577.33 624.695C580.706 619.855 584.323 615.189 588.168 610.713C590.065 608.577 592.101 606.569 594.265 604.703C597.739 601.89 610.869 596.158 608.385 608.177C607.013 614.69 596.158 618.251 590.791 620.092Z" fill="#263238"/>
<path d="M548.065 621.412C556.923 625.685 567.309 625.962 576.879 627.335C577.869 627.473 578.408 626.449 578.269 625.598C578.315 625.586 578.357 625.564 578.393 625.532C578.428 625.501 578.456 625.461 578.473 625.417C578.49 625.373 578.496 625.325 578.491 625.278C578.485 625.231 578.469 625.185 578.442 625.146C573.168 616.378 565.688 609.144 556.749 604.165C551.452 601.369 543.045 600.448 540.075 607.152C537.227 613.527 542.958 618.928 548.065 621.412ZM543.462 613.37C539.033 602.011 553.015 605.468 556.818 607.673C559.243 609.159 561.564 610.807 563.766 612.606C568.299 616.381 572.641 620.381 576.775 624.59C572.12 623.635 567.413 623.079 562.724 622.28C557.287 621.342 545.98 619.64 543.531 613.37H543.462Z" fill="#263238"/>
<path d="M571.512 594.942L463.271 610.938C463.271 610.938 404.218 503.687 380.354 477.009C379.018 475.47 377.56 474.041 375.994 472.736C373.528 471.621 370.88 470.961 368.179 470.791C336.168 466.901 228.466 477.374 154.024 472.528L188.762 426.067L204.167 405.451C288.023 395.898 390.931 361.613 437.358 384.904C487.674 410.175 571.512 594.942 571.512 594.942Z" fill="#263238"/>
<path d="M557.947 576.566C539.554 578.945 544.799 578.007 526.423 580.578C517.426 581.828 472.233 588.029 464.036 590.6C463.989 590.6 463.945 590.618 463.913 590.65C463.88 590.683 463.862 590.727 463.862 590.773C463.862 590.819 463.88 590.864 463.913 590.896C463.945 590.929 463.989 590.947 464.036 590.947C472.616 590.947 517.687 583.843 526.649 582.419C544.973 579.518 539.676 580.161 557.913 577.069C557.95 577.082 557.99 577.086 558.03 577.08C558.069 577.075 558.107 577.06 558.139 577.038C558.172 577.016 558.2 576.987 558.22 576.952C558.24 576.918 558.251 576.88 558.254 576.84C558.257 576.8 558.25 576.761 558.235 576.724C558.22 576.687 558.197 576.654 558.168 576.628C558.138 576.601 558.103 576.582 558.065 576.571C558.026 576.561 557.986 576.559 557.947 576.566Z" fill="#37474F"/>
<path d="M463.827 589.089C451.582 568.611 395.812 467.509 384.714 463.549C374.605 459.919 172.453 464.122 169.465 464.139C169.257 464.139 169.239 464.469 169.465 464.469C193.399 464.174 378.166 463.514 383.446 465.598C394.405 469.923 461.083 587.178 462.733 589.627C463.15 590.27 464.244 589.783 463.827 589.089Z" fill="#37474F"/>
<path d="M97.3507 430.219C97.3507 430.219 90.9591 491.27 121.892 521.491C158.905 557.774 403.263 548.621 441.04 536.376C478.816 524.131 480.067 463.063 438.695 448.908C399.338 435.447 224.784 427.701 220.65 426.051C216.516 424.401 204.41 405.087 204.41 405.087L97.3507 430.219Z" fill="#263238"/>
<path d="M149.04 428.5C149.04 428.204 148.536 428.309 148.536 428.586C148.541 436.496 145.755 444.153 140.668 450.21C134.867 456.915 126.322 460.631 118.575 464.574C117.828 464.956 118.402 466.12 119.166 465.894C123.927 464.425 128.516 462.445 132.852 459.989C136.827 457.872 140.326 454.964 143.134 451.444C145.657 448.238 147.485 444.543 148.502 440.593C149.518 436.643 149.702 432.524 149.04 428.5Z" fill="#37474F"/>
<path d="M218.983 422.246C217.246 420.041 215.37 417.939 213.564 415.803C209.308 410.714 205.018 405.625 200.555 400.727C200.12 400.258 199.304 400.918 199.686 401.421C202.691 405.364 205.887 409.168 209.013 413.006L213.859 418.894C215.551 420.65 217.064 422.57 218.375 424.626C219.556 426.814 218.01 428.673 215.752 428.916C213.747 428.963 211.799 428.249 210.298 426.919C206.825 424.209 203.993 420.336 201.076 417.036C199.339 415.021 197.48 412.989 195.657 411.009C193.833 409.029 191.644 406.858 189.717 404.756C189.595 404.617 189.352 404.756 189.456 404.947C191.193 407.275 192.704 409.689 194.406 412.016C196.108 414.344 197.88 416.636 199.617 418.964C201.353 421.291 202.969 423.236 204.827 425.303C206.297 427.13 208.058 428.702 210.038 429.958C213.286 431.869 218.896 432.268 220.633 428.082C220.911 427.051 220.904 425.964 220.614 424.936C220.323 423.909 219.76 422.979 218.983 422.246Z" fill="#37474F"/>
<path d="M435.864 536.601C422.82 536.845 409.811 537.609 396.767 537.887C383.723 538.165 370.905 538.234 357.966 538.112C331.994 537.869 306.046 536.862 280.12 535.09C253.928 533.354 225.687 530.661 199.686 527.066C187.233 525.329 174.624 523.905 162.309 521.265C151.231 519.167 140.986 513.942 132.783 506.206C115.935 489.863 109.387 465.842 106.73 442.898C106.365 439.807 106.07 436.732 105.827 433.641C105.827 433.432 105.479 433.432 105.497 433.641C107.025 457.175 110.707 481.717 125.488 500.631C131.733 508.888 140.05 515.348 149.595 519.354C161.25 524.027 174.172 525.121 186.469 526.788C212.522 530.262 240.937 533.058 267.198 535.108C293.459 537.157 320.137 538.425 346.642 538.825C373.146 539.224 399.668 538.825 426.137 537.539C429.385 537.383 432.599 537.192 435.829 536.897C436.038 536.897 436.038 536.601 435.864 536.601Z" fill="#37474F"/>
<path d="M470.653 479.65C468.169 469.432 461.94 460.518 453.197 454.674C443.818 448.265 432.598 445.347 421.482 443.732C408.925 441.908 396.194 440.97 383.549 439.754C357.624 437.23 331.675 434.914 305.704 432.807C279.755 430.671 223.863 426.329 220.719 426.207C220.459 426.207 220.389 426.659 220.719 426.693C245.765 429.472 268.57 431.904 293.667 434.144C318.765 436.385 344.036 438.834 369.307 441.335C381.859 442.562 394.416 443.825 406.98 445.121C418.599 446.32 430.566 447.501 441.474 452.069C450.835 455.925 459.259 462.125 464.053 471.174C468.487 480.153 469.801 490.353 467.787 500.162C466.036 509.284 461.833 517.757 455.629 524.669C449.674 531.486 441.737 536.271 432.928 538.356C430.636 538.859 427.874 539.207 425.755 539.641C425.599 539.641 425.425 540.006 425.599 540.006C444.357 540.492 461.708 526.788 468.482 509.645C472.255 500.104 473.013 489.635 470.653 479.65Z" fill="#37474F"/>
<path d="M170.281 280.207C182.7 328.839 207.38 386.989 217.523 396.263C230.376 408.005 308.969 423.411 313.05 423.81C319.859 424.487 333.893 354.336 327.553 354.579C310.74 354.944 258.947 349.681 255.231 346.051C251.514 342.421 225.061 310.654 197.914 274.84C179.278 250.194 162.587 250.02 170.281 280.207Z" fill="#EB9481"/>
<path d="M306.746 420.91C307.875 421.448 324.115 429.09 333.997 431.713C341.414 433.676 362.933 438.747 365.903 430.792C367.918 425.373 355.621 420.892 347.006 417.54C342.456 415.803 336.794 411.201 338.062 408.283C340.25 403.072 351.956 407.97 359.685 412.208C374.622 420.423 394.614 435.343 403.437 427.666C406.754 424.748 402.69 419.711 396.785 414.796C406.303 420.458 416.428 425.043 420.25 421.952C422.438 420.215 422.49 417.853 421.187 415.213C424.105 416.099 426.659 415.838 428.395 413.91C431.365 410.662 429.767 405.99 426.311 401.231C426.882 401.158 427.428 400.95 427.902 400.624C428.376 400.298 428.766 399.863 429.038 399.355C435.256 389.351 402.273 361.874 391.036 359.512C358.035 352.564 323.385 354.77 323.385 354.77C310.723 365.4 306.642 420.875 306.746 420.91Z" fill="#EB9481"/>
<path d="M354.336 389.489C362.196 390.55 369.739 393.274 376.463 397.479C384.939 402.776 390.619 409.081 397.757 415.403C397.948 415.577 397.757 415.872 397.514 415.698C394.04 412.694 380.024 401.439 376.394 398.903C369.832 394.198 362.281 391.055 354.319 389.715C354.319 389.715 354.266 389.472 354.336 389.489Z" fill="#263238"/>
<path d="M360.137 375.387C368.821 377.54 377.731 379.729 385.86 383.619C394.735 387.875 401.769 394.996 408.699 401.856C412.845 405.979 416.897 410.182 420.857 414.466C421.031 414.657 420.857 414.952 420.614 414.761C413.574 407.698 406.337 400.832 398.903 394.162C392.037 387.979 384.024 383.205 375.317 380.111C370.332 378.374 365.208 376.967 360.102 375.595L360.137 375.387Z" fill="#263238"/>
<path d="M369.064 362.968C377.505 364.496 384.852 365.799 392.408 370.106C402.377 375.838 412.121 385.634 415.543 389.107C419.311 392.946 422.959 396.923 426.537 400.935C426.693 401.092 426.398 401.352 426.259 401.196C418.063 392.392 409.309 384.124 400.05 376.446C395.687 372.729 390.778 369.706 385.495 367.484C380.156 365.533 374.659 364.045 369.064 363.037C369.064 363.037 369.03 362.968 369.064 362.968Z" fill="#263238"/>
<path d="M322.117 349.872L298.496 431.504C298.496 431.504 228.831 413.423 215.856 400.084C202.882 386.745 177.854 316.889 170.16 282.916C162.465 248.943 179.764 249.395 196.212 270.532C212.66 291.67 253.32 342.872 255.561 343.949C257.801 345.026 322.117 349.872 322.117 349.872Z" fill="#235ADB"/>
<path d="M291.01 395.638C293.876 386.034 296.828 376.429 299.33 366.702C300.754 361.179 302.213 355.656 303.585 350.115C303.585 349.907 303.29 349.785 303.22 349.994C299.955 359.529 296.707 369.099 293.893 378.791C291.079 388.483 288.196 398.053 285.504 407.744C283.976 413.233 282.621 418.773 281.44 424.366C281.44 424.47 281.596 424.54 281.631 424.366C285.192 414.987 288.109 405.33 291.01 395.638Z" fill="#263238"/>
<path opacity="0.1" d="M288.457 428.743C268.674 423.167 225.739 410.21 215.839 400.05C202.882 386.711 177.854 316.855 170.159 282.899C166.495 266.59 168.544 258.184 173.512 256.238C174.054 256.498 174.582 256.788 175.092 257.107C200.693 292.243 253.737 376.151 288.457 428.743Z" fill="black"/>
<path d="M90.3164 440.778C90.6985 441.178 237.949 408.907 239.339 407.205C241.249 404.791 214.918 294.049 187.233 260.997C180.286 252.729 158.175 253.302 148.275 261.639C99.1744 302.976 88.927 439.354 90.3164 440.778Z" fill="#235ADB"/>
<path d="M136.76 269.56C107.39 292.139 29.9953 383.498 46.1654 405.156C62.3355 426.815 173.251 419.624 205.609 410.367C215.231 407.588 190.533 346.346 180.251 343.324C171.705 340.789 123.699 353.832 122.83 351.036C121.84 347.892 132.487 327.658 149.63 290.646C169.43 247.919 149.734 259.591 136.76 269.56Z" fill="#EB9481"/>
<path d="M225.392 336.116C246.79 336.655 252.209 340.094 270.55 330.906C282.551 324.913 291.531 330.02 283.368 341.327C270.029 359.842 242.256 364.948 232.131 363.906L225.392 336.116Z" fill="#EB9481"/>
<path d="M166.495 347.11C166.495 347.11 192.166 337.939 215.023 336.272C230.828 335.126 265.513 336.428 292.469 375.334C298.861 384.556 301.414 402.22 285.522 390.965C274.232 382.958 269.473 374.465 262.057 371.009C262.057 371.009 262.647 393.883 253.164 399.928C244.863 405.207 236.197 409.891 227.233 413.944C226.12 412.474 225.099 410.937 224.176 409.341C224.176 409.341 214.78 414.135 199.252 410.036L166.495 347.11Z" fill="#EB9481"/>
<path d="M230.22 337.522C236.855 342.525 250.767 353.345 259.052 366.146C268.257 380.353 282.169 410.245 271.592 416.931C263.846 421.829 257.541 410.887 257.541 410.887C257.541 410.887 260.684 424.452 252.712 427.353C245.452 429.993 241.075 421.239 241.075 421.239C241.075 421.239 241.562 429.802 234.128 431C225.131 432.442 225.583 414.274 215.196 407.848C212.851 406.406 230.22 337.522 230.22 337.522Z" fill="#EB9481"/>
<path d="M242.465 373.371C247.953 379.085 257.054 395.255 257.767 410.592C257.767 410.922 257.541 411.13 257.454 410.818C253.948 397.799 248.874 385.254 242.343 373.458L242.465 373.371Z" fill="#263238"/>
<path d="M228.379 383.081C232.6 388.5 241.249 405.66 241.44 421.135C241.44 421.5 241.18 421.674 241.11 421.361C238.286 408.177 233.968 395.357 228.24 383.15C228.24 383.15 228.327 383.012 228.379 383.081Z" fill="#263238"/>
<path d="M262.056 370.801C268.552 373.944 272.477 378.009 277.514 382.959C280.006 385.419 282.633 387.738 285.382 389.906C287.901 391.869 291.635 394.821 294.97 392.946C296.828 391.921 297.21 389.472 297.158 387.596C296.779 384.688 295.947 381.857 294.692 379.207C294.692 379.207 294.813 379.033 294.866 379.207C296.103 381.631 297.092 384.174 297.818 386.797C298.272 388.589 298.182 390.476 297.558 392.216C295.925 395.811 291.409 395.568 288.439 393.953C286.684 392.961 285.032 391.797 283.507 390.479C282.013 389.263 280.571 387.978 279.182 386.641C276.299 383.914 273.572 381.031 270.741 378.269C267.956 375.655 265.009 373.218 261.917 370.974C261.813 370.922 261.935 370.749 262.056 370.801Z" fill="#263238"/>
<path d="M272.374 397.149C269.468 388.197 265.987 379.443 261.953 370.94C261.946 370.93 261.941 370.918 261.939 370.906C261.936 370.894 261.936 370.882 261.939 370.869C261.941 370.857 261.946 370.846 261.953 370.836C261.96 370.825 261.968 370.817 261.979 370.81C261.989 370.803 262 370.798 262.013 370.796C262.025 370.793 262.037 370.793 262.049 370.796C262.061 370.798 262.073 370.803 262.083 370.81C262.093 370.817 262.102 370.826 262.109 370.836C266.59 376.741 272.912 391.539 274.267 396.159C275.622 400.779 276.907 406.493 276.125 411.218C274.944 418.339 269.994 418.912 268.188 418.964C266.056 419 263.977 418.301 262.3 416.984C260.352 415.299 258.773 413.229 257.663 410.905C257.663 410.801 257.749 410.679 257.819 410.801C259.816 414.014 263.464 417.453 267.424 417.592C268.292 417.645 269.162 417.527 269.985 417.244C270.807 416.961 271.566 416.519 272.217 415.942C273.557 414.399 274.296 412.427 274.302 410.384C274.418 405.895 273.766 401.419 272.374 397.149Z" fill="#263238"/>
<path d="M166.495 343.967L188.779 421.518C188.779 421.518 50.1258 429.438 42.4489 404.253C34.772 379.069 101.745 296.568 129.535 273.989C161.736 247.745 163.456 258.757 152.982 285.018C142.005 312.513 123.108 351.765 123.108 351.765L166.495 343.967Z" fill="#235ADB"/>
<path d="M79.305 364.132C86.2277 360.87 93.3794 358.119 100.703 355.899C107.944 353.734 115.334 352.103 122.813 351.019C127.068 350.341 131.358 349.89 135.631 349.403C135.659 349.403 135.685 349.414 135.705 349.434C135.724 349.453 135.735 349.48 135.735 349.508C135.735 349.535 135.724 349.562 135.705 349.581C135.685 349.601 135.659 349.612 135.631 349.612C128.119 350.734 120.678 352.294 113.347 354.284C106.035 356.194 98.7925 358.227 91.5498 360.398C87.4682 361.631 83.4387 363.055 79.3918 364.41C79.3719 364.426 79.3485 364.436 79.3235 364.441C79.2985 364.446 79.2727 364.445 79.2484 364.437C79.2241 364.43 79.2019 364.417 79.1839 364.399C79.1658 364.381 79.1524 364.359 79.1448 364.334C79.1372 364.31 79.1357 364.284 79.1403 364.259C79.1449 364.234 79.1556 364.211 79.1714 364.191C79.1872 364.171 79.2076 364.155 79.2309 364.145C79.2541 364.134 79.2796 364.13 79.305 364.132Z" fill="#263238"/>
<path d="M166.182 343.636C165.47 343.636 126.912 349.715 125.627 350.08C125.87 349.559 135.648 331.2 137.107 328.526C137.246 328.248 137.368 327.987 137.524 327.709C138.393 326.546 139.261 325.399 140.112 324.236L143.273 319.633L139.904 324.062C139.383 324.757 138.896 325.469 138.41 326.163C139.383 324.276 140.338 322.366 141.276 320.432C142.804 317.358 144.228 314.266 145.635 311.14H145.479C142.596 316.489 139.556 321.752 136.656 327.084C133.755 332.416 122.761 352.043 122.848 352.043C122.935 352.043 165.47 344.487 166.269 344.296C166.357 344.285 166.436 344.239 166.49 344.169C166.543 344.099 166.567 344.01 166.556 343.923C166.544 343.835 166.498 343.756 166.428 343.702C166.358 343.648 166.27 343.625 166.182 343.636Z" fill="#263238"/>
<path d="M160.885 391.018C158.453 382.334 156.074 373.65 153.33 365.139C151.766 360.276 150.221 355.413 148.605 350.567C148.605 350.376 148.223 350.445 148.275 350.567C150.377 359.355 152.496 368.144 154.997 376.828C157.498 385.512 159.895 394.197 162.5 402.725C163.977 407.605 165.609 412.434 167.381 417.245C167.381 417.268 167.39 417.29 167.406 417.306C167.423 417.322 167.445 417.332 167.468 417.332C167.491 417.332 167.513 417.322 167.529 417.306C167.545 417.29 167.554 417.268 167.554 417.245C165.748 408.404 163.334 399.72 160.885 391.018Z" fill="#263238"/>
<path d="M190.272 422.941C189.3 420.509 188.136 417.036 187.059 414.639C186.781 414.014 186.312 414.048 186.521 414.639C187.198 416.81 187.667 419.207 188.258 421.43C186.312 421.43 184.385 421.517 182.439 421.604L175.718 421.899C171.318 422.073 166.923 422.2 162.535 422.281C153.619 422.443 144.721 422.443 135.839 422.281C118.035 421.95 100.261 420.692 82.5875 418.512C77.6375 417.887 72.6874 417.157 67.7895 416.271C62.9214 415.467 58.0981 414.412 53.3389 413.11C53.2173 413.11 53.1478 413.301 53.3389 413.336C57.3611 414.908 61.5021 416.156 65.7226 417.07C70.1342 418.026 74.598 418.807 79.0617 419.554C87.9717 420.926 96.9339 421.812 105.913 422.472C123.734 423.757 141.583 424.296 159.461 424.087C164.463 424.087 169.465 423.914 174.467 423.757C176.986 423.67 179.521 423.584 182.04 423.445C184.558 423.306 190.481 423.358 190.272 422.941Z" fill="#263238"/>
<path d="M377.332 433.137H199.929V440.293H377.332V433.137Z" fill="#455A64"/>
<path d="M298.096 433.137H199.929V440.293H298.096V433.137Z" fill="#A6A6A6"/>
<path d="M295.109 440.292H450.592L472.563 334.691H317.08L295.109 440.292Z" fill="#A6A6A6"/>
<path d="M302.161 440.292H457.644L479.615 334.691H324.132L302.161 440.292Z" fill="#C7C7C7"/>
<path d="M380.528 389.854C380.343 391.168 380.447 392.507 380.832 393.777C381.216 395.047 381.872 396.219 382.755 397.21C383.637 398.201 384.724 398.989 385.941 399.518C387.158 400.047 388.476 400.306 389.802 400.275C392.647 400.214 395.374 399.125 397.478 397.21C399.582 395.294 400.921 392.681 401.248 389.854C401.432 388.54 401.329 387.201 400.944 385.931C400.559 384.661 399.903 383.49 399.021 382.499C398.139 381.507 397.051 380.72 395.835 380.19C394.618 379.661 393.3 379.403 391.973 379.433C389.13 379.498 386.405 380.588 384.301 382.503C382.198 384.418 380.858 387.029 380.528 389.854Z" fill="#EBEBEB"/>
<path d="M176.013 296.412C176.013 296.412 150.082 270.689 133.13 271.071L118.662 283.715C118.662 283.715 113.92 285.227 112.496 282.222C109.023 274.788 108.363 256.898 123.855 245.418C138.028 234.892 161.093 235.882 180.303 241.11C198.748 246.13 214.675 258.479 208.909 270.533C203.143 282.587 176.013 296.412 176.013 296.412Z" fill="#235ADB"/>
<path opacity="0.1" d="M177.906 290.767C177.906 290.767 199.234 275.813 201.492 266.833C203.75 257.854 185.861 249.152 174.276 245.696C156.369 240.346 144.124 241.406 133.981 250.906C123.838 260.407 177.906 290.767 177.906 290.767Z" fill="black"/>
<path d="M177.906 290.767C177.906 290.767 157.272 255.057 131.098 251.393L133.13 271.071C133.13 271.071 148.761 271.245 176.013 296.412L177.906 290.767Z" fill="#235ADB"/>
<path d="M126.009 271.366C130.777 271.021 135.564 271.708 140.043 273.381C144.535 274.915 148.836 276.961 152.861 279.477C156.916 281.951 160.803 284.69 164.497 287.675L169.934 292.313L175.144 297.193L175.735 297.749L176.395 297.402C181.306 294.934 186.042 292.131 190.568 289.013C192.849 287.485 195.036 285.821 197.116 284.028C199.216 282.26 201.141 280.295 202.865 278.157C198.878 281.848 194.491 285.081 189.786 287.797C187.476 289.204 185.097 290.524 182.7 291.774C180.303 293.025 177.889 294.293 175.457 295.422L176.69 295.648L171.48 290.593C169.743 288.978 167.815 287.415 165.974 285.852C164.133 284.289 162.101 282.899 160.103 281.51C158.106 280.12 156.056 278.817 153.885 277.688C149.657 275.254 145.133 273.374 140.425 272.096C139.261 271.748 138.045 271.54 136.951 271.279C135.857 271.019 134.537 270.932 133.321 270.863C130.873 270.619 128.401 270.789 126.009 271.366Z" fill="#263238"/>
<path d="M118.662 283.715C123.99 280.116 128.85 275.868 133.13 271.07C127.813 274.683 122.954 278.929 118.662 283.715Z" fill="#263238"/>
<path d="M167.311 284.358C165.776 292.528 164.945 300.814 164.827 309.126C164.688 314.927 166.929 335.734 173.373 334.97C179.816 334.206 169.326 320.797 167.485 309.838C165.644 298.878 168.579 290.819 168.961 284.254L167.311 284.358Z" fill="#235ADB"/>
<g opacity="0.1">
<path d="M167.311 284.358C165.776 292.528 164.945 300.814 164.827 309.126C164.688 314.927 166.929 335.734 173.373 334.97C179.816 334.206 169.326 320.797 167.485 309.838C165.644 298.878 168.579 290.819 168.961 284.254L167.311 284.358Z" fill="black"/>
</g>
<path d="M190.272 285.504C192.344 293.444 193.945 301.5 195.066 309.629C195.761 314.839 195.9 333.806 190.012 333.788C184.124 333.771 192.2 320.606 192.739 310.532C193.277 300.458 189.803 291.427 188.779 285.591L190.272 285.504Z" fill="#235ADB"/>
<g opacity="0.1">
<path d="M190.272 285.504C192.344 293.444 193.945 301.5 195.066 309.629C195.761 314.839 195.9 333.806 190.012 333.788C184.124 333.771 192.2 320.606 192.739 310.532C193.277 300.458 189.803 291.427 188.779 285.591L190.272 285.504Z" fill="black"/>
</g>
<path d="M180.077 286.772C173.356 286.32 160.815 272.287 156.543 261.136C156.265 260.372 158.28 253.025 160.52 243.976C161.788 238.47 163.091 232.322 163.855 226.607L198.418 240.155C195.409 246.998 193.251 254.184 191.992 261.553C191.915 262.344 191.915 263.141 191.992 263.932C191.992 264.037 191.992 264.176 191.992 264.332C192.009 268.952 190.62 287.449 180.077 286.772Z" fill="#EB9481"/>
<path d="M191.905 263.95C191.915 264.083 191.915 264.216 191.905 264.349C190.66 264.341 189.417 264.236 188.188 264.036C167.936 260.806 166.338 235.378 166.338 227.562L198.418 240.12C195.422 246.991 193.27 254.199 192.009 261.587C191.914 262.371 191.88 263.161 191.905 263.95Z" fill="#263238"/>
<path d="M170.889 182.109C163.647 193.364 160.086 230.741 166.582 241.162C176.013 256.255 196.473 263.238 210.559 250.75C224.211 238.592 227.928 189.838 220.268 179.869C208.874 165.105 181.588 165.453 170.889 182.109Z" fill="#EB9481"/>
<path d="M194.215 209.308C195.321 209.139 196.417 208.907 197.498 208.613C198.687 208.521 199.814 208.045 200.711 207.259C200.944 206.955 201.071 206.583 201.071 206.199C201.071 205.816 200.944 205.443 200.711 205.14C200.155 204.621 199.472 204.258 198.731 204.087C197.99 203.916 197.217 203.944 196.49 204.167C194.931 204.39 193.516 205.197 192.53 206.425C192.322 206.712 192.202 207.052 192.184 207.406C192.167 207.76 192.253 208.111 192.431 208.417C192.61 208.722 192.874 208.969 193.19 209.128C193.507 209.286 193.863 209.349 194.215 209.308Z" fill="#263238"/>
<path d="M219.556 212.782C218.499 212.419 217.461 212.001 216.447 211.531C215.288 211.247 214.256 210.587 213.512 209.655C213.334 209.316 213.274 208.928 213.34 208.551C213.406 208.174 213.594 207.83 213.876 207.571C214.51 207.149 215.244 206.903 216.004 206.857C216.763 206.812 217.522 206.968 218.201 207.31C219.674 207.813 220.91 208.839 221.675 210.194C221.829 210.51 221.889 210.864 221.848 211.214C221.807 211.563 221.667 211.894 221.444 212.166C221.221 212.439 220.925 212.641 220.59 212.75C220.255 212.859 219.897 212.87 219.556 212.782Z" fill="#263238"/>
<path d="M192.287 238.713C192.808 239.373 193.312 240.259 194.215 240.45C195.151 240.556 196.098 240.461 196.994 240.172C196.994 240.172 197.133 240.172 196.994 240.311C196.569 240.751 196.035 241.072 195.447 241.239C194.858 241.407 194.235 241.416 193.642 241.266C193.141 241.073 192.708 240.736 192.399 240.297C192.089 239.858 191.918 239.337 191.905 238.8C192.009 238.643 192.201 238.609 192.287 238.713Z" fill="#263238"/>
<path d="M195.882 231.54C196.397 232.608 197.124 233.56 198.02 234.337C198.916 235.113 199.962 235.698 201.093 236.055C202.08 236.383 203.11 236.564 204.15 236.594H205.313C205.449 236.579 205.578 236.523 205.68 236.433C205.783 236.343 205.855 236.223 205.887 236.09C205.895 236.003 205.895 235.916 205.887 235.83V235.604C206.182 233.676 206.373 230.723 206.373 230.723C207.033 231.157 210.42 233.242 210.489 232.217C211.062 223.811 211.688 214.449 210.489 205.938C210.489 205.66 210.038 205.678 210.02 205.938C209.169 213.997 209.725 222.161 208.996 230.254C207.791 229.488 206.48 228.903 205.105 228.517C204.827 228.517 204.845 234.249 204.653 235.1C201.353 235.1 199.026 233.815 196.16 231.227C195.969 231.175 195.761 231.314 195.882 231.54Z" fill="#263238"/>
<path d="M203.143 235.465C201.905 236.713 200.368 237.622 198.679 238.106C197.749 238.327 196.774 238.261 195.883 237.914C193.955 237.133 194.146 235.292 194.702 233.763C195.015 232.957 195.417 232.188 195.9 231.471C197.828 233.539 200.365 234.938 203.143 235.465Z" fill="#263238"/>
<path d="M198.679 238.105C197.749 238.327 196.774 238.26 195.883 237.914C193.955 237.132 194.146 235.291 194.702 233.763C195.757 233.932 196.724 234.453 197.446 235.242C198.168 236.03 198.602 237.039 198.679 238.105Z" fill="#FF9ABB"/>
<path d="M199.148 216.151C199.148 216.151 198.939 216.238 198.922 216.342C198.609 218.843 197.828 221.553 195.448 222.109V222.248C198.245 222.3 199.252 218.583 199.148 216.151Z" fill="#263238"/>
<path d="M197.341 213.216C193.399 212.278 191.818 220.163 195.466 221.101C199.113 222.039 200.693 213.998 197.341 213.216Z" fill="#263238"/>
<path d="M213.668 218.062C213.668 218.062 213.841 218.218 213.824 218.322C213.233 220.754 212.973 223.654 215.022 224.939V225.078C212.33 224.123 212.73 220.319 213.668 218.062Z" fill="#263238"/>
<path d="M216.412 215.943C220.424 216.464 219.087 224.471 215.37 223.984C211.653 223.498 213.043 215.509 216.412 215.943Z" fill="#263238"/>
<path d="M174.45 206.13C179.66 199.703 179.834 185.93 184.68 183.968C195.101 179.73 206.425 199.234 217.524 203.333C228.275 207.311 234.389 201.701 235.604 192.252C236.82 182.804 231.54 174.224 220.094 168.041C208.266 161.632 195.031 162.535 187.389 164.254C187.389 164.254 191.697 160.885 191.176 159.148C190.655 157.411 183.846 159.721 181.588 160.885C179.838 162.012 178.308 163.448 177.072 165.123C175.611 164.133 174.014 163.361 172.331 162.83C169.872 162.134 167.247 162.324 164.914 163.368C164.48 163.942 168.214 165.869 170.924 166.998C170.924 166.998 163.317 171.948 161.319 177.819C159.322 183.69 158.349 214.64 160.416 215.735C163.073 217.159 172.366 208.735 174.45 206.13Z" fill="#455A64"/>
<path d="M172.244 166.721C172.348 166.721 172.435 166.877 172.244 166.929C168.797 168.108 165.747 170.225 163.438 173.043C160.904 176.561 159.357 180.693 158.957 185.01C157.897 193.277 159.113 201.579 159.808 209.812C159.808 210.055 159.408 210.107 159.374 209.812C158.088 201.128 156.959 191.801 158.453 183.082C159.791 175.7 164.324 168.214 172.244 166.721Z" fill="#455A64"/>
<path d="M185.288 180.997C188.703 181.774 191.939 183.195 194.823 185.183C197.432 187.271 199.767 189.681 201.771 192.356C206.686 197.914 212.47 202.916 219.695 205.053C219.695 205.053 219.695 205.226 219.695 205.191C212.921 203.663 207.311 199.442 202.604 194.51C200.444 191.792 198.124 189.206 195.657 186.763C192.486 184.478 188.967 182.718 185.236 181.553C185.187 181.522 185.147 181.478 185.122 181.426C185.096 181.375 185.085 181.317 185.091 181.259C185.096 181.201 185.117 181.146 185.152 181.1C185.187 181.054 185.234 181.018 185.288 180.997Z" fill="#455A64"/>
<path d="M195.153 163.611C200.306 163.026 205.516 163.172 210.628 164.045C215.565 164.745 220.343 166.296 224.749 168.631C232.252 172.816 237.758 180.563 236.646 189.473C236.148 194.056 233.955 198.287 230.498 201.336C230.452 201.377 230.391 201.399 230.329 201.395C230.267 201.392 230.209 201.364 230.168 201.318C230.126 201.272 230.105 201.212 230.108 201.15C230.111 201.088 230.139 201.03 230.185 200.988C233.136 198.114 235.079 194.362 235.724 190.293C236.369 186.224 235.681 182.055 233.763 178.409C229.282 170.35 220.25 166.581 211.601 164.931C206.173 163.977 200.66 163.592 195.153 163.785V163.611Z" fill="#455A64"/>
<path d="M190.273 228.518C188.175 227.933 186.284 226.771 184.815 225.164C183.345 223.557 182.356 221.57 181.959 219.43C181.563 217.289 181.775 215.079 182.571 213.053C183.368 211.026 184.717 209.264 186.465 207.966C188.214 206.668 190.291 205.887 192.461 205.711C194.631 205.535 196.808 205.971 198.742 206.971C200.677 207.97 202.292 209.492 203.405 211.364C204.517 213.235 205.082 215.382 205.036 217.559C205.002 219.087 204.667 220.594 204.051 221.992C203.435 223.391 202.549 224.655 201.444 225.712C200.339 226.768 199.037 227.597 197.612 228.15C196.187 228.703 194.667 228.97 193.138 228.935C192.169 228.921 191.206 228.781 190.273 228.518ZM196.091 207.572C195.283 207.342 194.448 207.22 193.607 207.207C191.04 207.153 188.549 208.079 186.642 209.797C184.734 211.515 183.552 213.896 183.338 216.455C183.124 219.013 183.894 221.557 185.49 223.568C187.085 225.58 189.388 226.907 191.928 227.28C194.468 227.653 197.055 227.044 199.162 225.576C201.269 224.109 202.737 221.893 203.268 219.381C203.798 216.869 203.351 214.249 202.018 212.055C200.685 209.861 198.565 208.258 196.091 207.572Z" fill="#37474F"/>
<path d="M216.707 232.478C212.417 231.279 209.76 225.791 210.681 219.799C211.074 216.917 212.362 214.232 214.363 212.122C215.166 211.168 216.202 210.438 217.37 210.001C218.538 209.564 219.799 209.436 221.031 209.628C222.263 209.82 223.425 210.326 224.405 211.097C225.385 211.869 226.149 212.879 226.625 214.032C227.889 216.648 228.303 219.594 227.806 222.456C226.816 228.813 222.179 233.363 217.385 232.634C217.156 232.597 216.929 232.545 216.707 232.478ZM221.38 211.288L220.789 211.149C219.8 211.045 218.8 211.178 217.873 211.537C216.945 211.897 216.117 212.472 215.457 213.216C213.701 215.098 212.567 217.475 212.209 220.024C211.358 225.53 213.807 230.446 217.697 231.088C221.588 231.731 225.409 227.719 226.277 222.213C226.717 219.677 226.359 217.068 225.253 214.744C224.88 213.934 224.344 213.211 223.677 212.619C223.01 212.027 222.228 211.579 221.38 211.305V211.288Z" fill="#37474F"/>
<path d="M204.445 218.826L203.646 217.488C205.609 216.29 209.951 214.953 212.33 218.392L211.045 219.277C208.909 216.186 204.619 218.722 204.445 218.826Z" fill="#37474F"/>
<path d="M152.704 213.806L151.454 212.886C151.87 212.295 155.744 207.154 159.252 207.137C162.761 207.119 182.873 212.347 183.742 212.486L183.36 213.997C177.524 212.521 161.805 208.683 159.269 208.7C156.734 208.717 153.798 212.382 152.704 213.806Z" fill="#37474F"/>
<path d="M170.281 213.164C170.281 213.164 165.227 199.495 159.235 201.006C153.243 202.517 154.928 220.859 160.485 224.766C161.163 225.315 161.945 225.72 162.784 225.958C163.623 226.196 164.501 226.262 165.366 226.152C166.231 226.042 167.065 225.757 167.817 225.316C168.569 224.875 169.224 224.286 169.743 223.585L170.281 213.164Z" fill="#EB9481"/>
<path d="M159.843 206.251V206.407C163.699 209.29 164.914 213.876 165.418 218.444C165.295 217.938 165.06 217.466 164.73 217.063C164.4 216.66 163.983 216.337 163.511 216.117C163.039 215.897 162.524 215.785 162.003 215.791C161.482 215.797 160.97 215.92 160.503 216.151C160.364 216.151 160.503 216.412 160.503 216.412C161.325 216.367 162.141 216.578 162.838 217.017C163.535 217.456 164.078 218.1 164.393 218.861C164.916 220.134 165.295 221.463 165.522 222.821C165.627 223.272 166.373 223.237 166.339 222.821V222.716C167.867 217.176 165.609 208.353 159.843 206.251Z" fill="#263238"/>
</svg>
