<svg width="974" height="1009" viewBox="0 0 974 1009" fill="none" xmlns="http://www.w3.org/2000/svg">
<path d="M169.442 185.21L4.40869 184.954C4.40869 184.954 12.6196 174.294 21.6702 172.964C21.6702 172.964 39.3515 120.62 68.8126 120.293C96.1977 119.99 107.114 152.553 107.114 152.553C107.114 152.553 119.921 137.974 132.12 144.622C144.32 151.27 151.084 170.445 151.084 170.445C151.084 170.445 164.614 177.862 169.442 185.21Z" fill="#EBEBEB"/>
<path d="M760.157 231.863L968.858 232.167C968.858 232.167 968.858 218.847 940.143 216.188C940.143 216.188 913.971 157.872 873.873 165.64C848.914 170.469 836.108 204.712 836.108 204.712C836.108 204.712 817.284 177.723 802.192 182.925C787.099 188.127 778.095 216.935 778.095 216.935C778.095 216.935 762.537 224.329 760.157 231.863Z" fill="#EBEBEB"/>
<path d="M725.775 431.537L867.692 431.747C867.692 431.747 854.326 419.267 848.354 419.267C842.383 419.267 825.028 377.28 802.915 379.122C780.801 380.965 768.928 411.919 768.928 411.919C768.928 411.919 741.916 403.545 725.775 431.537Z" fill="#EBEBEB"/>
<path d="M704.641 71.0752L825.938 71.2618C825.938 71.2618 819.919 63.3775 813.271 62.3978C813.271 62.3978 800.395 23.8627 778.725 23.5595C758.595 23.2563 750.477 47.189 750.477 47.189C750.477 47.189 741.147 36.4356 732.259 41.3341C723.372 46.2327 718.263 60.2751 718.263 60.2751C718.263 60.2751 708.28 65.6635 704.641 71.0752Z" fill="#EBEBEB"/>
<path d="M85.0244 364.776L206.321 364.963C206.321 364.963 200.303 357.102 193.632 356.099C193.632 356.099 180.756 317.563 159.109 317.26C138.955 316.98 130.861 340.913 130.861 340.913C130.861 340.913 121.53 330.16 112.619 335.058C103.709 339.957 98.6237 353.999 98.6237 353.999C98.6237 353.999 88.6633 359.388 85.0244 364.776Z" fill="#EBEBEB"/>
<path d="M15.8853 378.282V823.838H957.475V565.336H875.786V664.543H854.746V608.396H750.897V697.316H737.135V346.325H646.862V545.882H600.582V617.167H586.563V572.357H504.501V706.087H480.499V597.386H405.435V514.764H354.42V467.739H295.381V676.369H275.507V446.978H178.26V571.611H164.824V469.885H66.2001V378.282H15.8853Z" fill="#EBEBEB"/>
<path d="M933.635 596.78H947.445V577.816H933.635V596.78Z" fill="white"/>
<path d="M909.679 596.78H923.488V577.816H909.679V596.78Z" fill="white"/>
<path d="M885.746 596.78H899.555V577.816H885.746V596.78Z" fill="white"/>
<path d="M933.635 625.331H947.445V606.367H933.635V625.331Z" fill="white"/>
<path d="M909.679 625.331H923.488V606.367H909.679V625.331Z" fill="white"/>
<path d="M885.746 625.331H899.555V606.367H885.746V625.331Z" fill="white"/>
<path d="M933.635 653.859H947.445V634.895H933.635V653.859Z" fill="white"/>
<path d="M909.679 653.859H923.488V634.895H909.679V653.859Z" fill="white"/>
<path d="M885.746 653.859H899.555V634.895H885.746V653.859Z" fill="white"/>
<path d="M933.635 682.388H947.445V663.423H933.635V682.388Z" fill="white"/>
<path d="M909.679 682.388H923.488V663.423H909.679V682.388Z" fill="white"/>
<path d="M885.746 682.388H899.555V663.423H885.746V682.388Z" fill="white"/>
<path d="M455.166 626.755H468.976V610.94H455.166V626.755Z" fill="white"/>
<path d="M431.21 626.755H445.019V610.94H431.21V626.755Z" fill="white"/>
<path d="M407.254 626.755H421.063V610.94H407.254V626.755Z" fill="white"/>
<path d="M455.166 650.547H468.976V634.732H455.166V650.547Z" fill="white"/>
<path d="M431.21 650.547H445.019V634.732H431.21V650.547Z" fill="white"/>
<path d="M407.254 650.547H421.063V634.732H407.254V650.547Z" fill="white"/>
<path d="M455.166 674.363H468.976V658.548H455.166V674.363Z" fill="white"/>
<path d="M431.21 674.363H445.019V658.548H431.21V674.363Z" fill="white"/>
<path d="M407.254 674.363H421.063V658.548H407.254V674.363Z" fill="white"/>
<path d="M455.166 698.156H468.976V682.341H455.166V698.156Z" fill="white"/>
<path d="M431.21 698.156H445.019V682.341H431.21V698.156Z" fill="white"/>
<path d="M407.254 698.156H421.063V682.341H407.254V698.156Z" fill="white"/>
<path d="M455.166 722.556H468.976V706.74H455.166V722.556Z" fill="white"/>
<path d="M431.21 722.556H445.019V706.74H431.21V722.556Z" fill="white"/>
<path d="M407.254 722.556H421.063V706.74H407.254V722.556Z" fill="white"/>
<path d="M455.166 746.955H468.976V731.14H455.166V746.955Z" fill="white"/>
<path d="M431.21 746.955H445.019V731.14H431.21V746.955Z" fill="white"/>
<path d="M407.254 746.955H421.063V731.14H407.254V746.955Z" fill="white"/>
<path d="M455.166 771.354H468.976V755.538H455.166V771.354Z" fill="white"/>
<path d="M431.21 771.354H445.019V755.538H431.21V771.354Z" fill="white"/>
<path d="M407.254 771.354H421.063V755.538H407.254V771.354Z" fill="white"/>
<path d="M455.166 795.754H468.976V779.939H455.166V795.754Z" fill="white"/>
<path d="M431.21 795.754H445.019V779.939H431.21V795.754Z" fill="white"/>
<path d="M407.254 795.754H421.063V779.939H407.254V795.754Z" fill="white"/>
<path d="M763.4 632.399H842.966V620.526H763.4V632.399Z" fill="white"/>
<path d="M763.4 655.422H842.966V643.549H763.4V655.422Z" fill="white"/>
<path d="M763.4 678.445H842.966V666.572H763.4V678.445Z" fill="white"/>
<path d="M763.4 701.445H842.966V689.572H763.4V701.445Z" fill="white"/>
<path d="M763.4 724.468H842.966V712.618H763.4V724.468Z" fill="white"/>
<path d="M763.4 747.491H842.966V735.618H763.4V747.491Z" fill="white"/>
<path d="M763.4 770.491H842.966V758.618H763.4V770.491Z" fill="white"/>
<path d="M763.4 793.514H842.966V781.641H763.4V793.514Z" fill="white"/>
<path d="M190.599 469.908H263.75V458.035H190.599V469.908Z" fill="white"/>
<path d="M190.599 492.932H263.75V481.059H190.599V492.932Z" fill="white"/>
<path d="M190.599 515.954H263.75V504.104H190.599V515.954Z" fill="white"/>
<path d="M190.599 538.954H263.75V527.104H190.599V538.954Z" fill="white"/>
<path d="M263.75 550.127H190.599V562H263.75V550.127Z" fill="white"/>
<path d="M190.599 585H263.75V573.127H190.599V585Z" fill="white"/>
<path d="M190.599 608H263.75V596.127H190.599V608Z" fill="white"/>
<path d="M190.599 631.022H263.75V619.149H190.599V631.022Z" fill="white"/>
<path d="M190.599 652.903H263.75V641.03H190.599V652.903Z" fill="white"/>
<path d="M190.599 674.76H263.75V662.887H190.599V674.76Z" fill="white"/>
<path d="M190.599 696.64H263.75V684.767H190.599V696.64Z" fill="white"/>
<path d="M190.599 718.497H263.75V706.647H190.599V718.497Z" fill="white"/>
<path d="M72.3118 497.713H149.592V485.863H72.3118V497.713Z" fill="white"/>
<path d="M72.3118 520.736H149.592V508.863H72.3118V520.736Z" fill="white"/>
<path d="M72.3118 543.76H149.592V531.91H72.3118V543.76Z" fill="white"/>
<path d="M72.3118 566.759H149.592V554.886H72.3118V566.759Z" fill="white"/>
<path d="M72.3118 589.782H149.592V577.909H72.3118V589.782Z" fill="white"/>
<path d="M72.3118 612.806H149.592V600.956H72.3118V612.806Z" fill="white"/>
<path d="M72.3118 635.805H149.592V623.955H72.3118V635.805Z" fill="white"/>
<path d="M72.3118 658.828H149.592V646.955H72.3118V658.828Z" fill="white"/>
<path d="M72.3118 679.425H149.592V667.552H72.3118V679.425Z" fill="white"/>
<path d="M72.3118 700.045H149.592V688.172H72.3118V700.045Z" fill="white"/>
<path d="M72.3118 720.619H149.592V708.746H72.3118V720.619Z" fill="white"/>
<path d="M537.998 594.541H562.561V583.088H537.998V594.541Z" fill="white"/>
<path d="M537.998 616.771H562.561V605.317H537.998V616.771Z" fill="white"/>
<path d="M537.998 638.978H562.561V627.524H537.998V638.978Z" fill="white"/>
<path d="M537.998 661.207H562.561V649.754H537.998V661.207Z" fill="white"/>
<path d="M537.998 683.461H562.561V672.008H537.998V683.461Z" fill="white"/>
<path d="M537.998 705.667H562.561V694.214H537.998V705.667Z" fill="white"/>
<path d="M537.998 727.897H562.561V716.444H537.998V727.897Z" fill="white"/>
<path d="M537.998 750.127H562.561V738.674H537.998V750.127Z" fill="white"/>
<path d="M504.571 594.541H529.134V583.088H504.571V594.541Z" fill="white"/>
<path d="M504.571 616.771H529.134V605.317H504.571V616.771Z" fill="white"/>
<path d="M504.571 638.978H529.134V627.524H504.571V638.978Z" fill="white"/>
<path d="M504.571 661.207H529.134V649.754H504.571V661.207Z" fill="white"/>
<path d="M504.571 683.461H529.134V672.008H504.571V683.461Z" fill="white"/>
<path d="M504.571 705.667H529.134V694.214H504.571V705.667Z" fill="white"/>
<path d="M504.571 727.897H529.134V716.444H504.571V727.897Z" fill="white"/>
<path d="M504.571 750.127H529.134V738.674H504.571V750.127Z" fill="white"/>
<path d="M697.853 376.394H723.442V358.339H697.853V376.394Z" fill="white"/>
<path d="M659.691 376.394H685.28V358.339H659.691V376.394Z" fill="white"/>
<path d="M697.853 402.915H723.442V384.861H697.853V402.915Z" fill="white"/>
<path d="M659.691 402.915H685.28V384.861H659.691V402.915Z" fill="white"/>
<path d="M697.853 429.461H723.442V411.406H697.853V429.461Z" fill="white"/>
<path d="M659.691 429.461H685.28V411.406H659.691V429.461Z" fill="white"/>
<path d="M697.853 456.006H723.442V437.951H697.853V456.006Z" fill="white"/>
<path d="M659.691 456.006H685.28V437.951H659.691V456.006Z" fill="white"/>
<path d="M697.853 482.527H723.442V464.473H697.853V482.527Z" fill="white"/>
<path d="M659.691 482.527H685.28V464.473H659.691V482.527Z" fill="white"/>
<path d="M697.853 509.073H723.442V491.019H697.853V509.073Z" fill="white"/>
<path d="M659.691 509.073H685.28V491.019H659.691V509.073Z" fill="white"/>
<path d="M697.853 535.618H723.442V517.564H697.853V535.618Z" fill="white"/>
<path d="M659.691 535.618H685.28V517.564H659.691V535.618Z" fill="white"/>
<path d="M697.853 562.141H723.442V544.086H697.853V562.141Z" fill="white"/>
<path d="M659.691 562.141H685.28V544.086H659.691V562.141Z" fill="white"/>
<path d="M612.409 571.774H637.998V553.72H612.409V571.774Z" fill="white"/>
<path d="M612.409 598.296H637.998V580.241H612.409V598.296Z" fill="white"/>
<path d="M612.409 624.842H637.998V606.787H612.409V624.842Z" fill="white"/>
<path d="M612.409 651.387H637.998V633.332H612.409V651.387Z" fill="white"/>
<path d="M612.409 677.909H637.998V659.855H612.409V677.909Z" fill="white"/>
<path d="M612.409 704.454H637.998V686.4H612.409V704.454Z" fill="white"/>
<path d="M697.853 588.359H723.442V570.305H697.853V588.359Z" fill="white"/>
<path d="M659.691 588.359H685.28V570.305H659.691V588.359Z" fill="white"/>
<path d="M612.409 730.649H637.998V712.595H612.409V730.649Z" fill="white"/>
<path d="M697.853 614.578H723.442V596.524H697.853V614.578Z" fill="white"/>
<path d="M659.691 614.578H685.28V596.524H659.691V614.578Z" fill="white"/>
<path d="M612.409 756.892H637.998V738.837H612.409V756.892Z" fill="white"/>
<path d="M697.853 640.797H723.442V622.742H697.853V640.797Z" fill="white"/>
<path d="M659.691 640.797H685.28V622.742H659.691V640.797Z" fill="white"/>
<path d="M612.409 783.11H637.998V765.056H612.409V783.11Z" fill="white"/>
<path d="M697.853 667.016H723.442V648.961H697.853V667.016Z" fill="white"/>
<path d="M659.691 667.016H685.28V648.961H659.691V667.016Z" fill="white"/>
<path d="M697.853 693.234H723.442V675.18H697.853V693.234Z" fill="white"/>
<path d="M659.691 693.234H685.28V675.18H659.691V693.234Z" fill="white"/>
<path d="M381.199 542.243H395.008V526.428H381.199V542.243Z" fill="white"/>
<path d="M357.243 542.243H371.052V526.428H357.243V542.243Z" fill="white"/>
<path d="M381.199 566.036H395.008V550.221H381.199V566.036Z" fill="white"/>
<path d="M357.243 566.036H371.052V550.221H357.243V566.036Z" fill="white"/>
<path d="M381.199 589.853H395.008V574.037H381.199V589.853Z" fill="white"/>
<path d="M357.243 589.853H371.052V574.037H357.243V589.853Z" fill="white"/>
<path d="M381.199 613.668H395.008V597.853H381.199V613.668Z" fill="white"/>
<path d="M357.243 613.668H371.052V597.853H357.243V613.668Z" fill="white"/>
<path d="M381.199 638.067H395.008V622.252H381.199V638.067Z" fill="white"/>
<path d="M357.243 638.067H371.052V622.252H357.243V638.067Z" fill="white"/>
<path d="M381.199 662.443H395.008V646.628H381.199V662.443Z" fill="white"/>
<path d="M357.243 662.443H371.052V646.628H357.243V662.443Z" fill="white"/>
<path d="M381.199 686.843H395.008V671.028H381.199V686.843Z" fill="white"/>
<path d="M357.243 686.843H371.052V671.028H357.243V686.843Z" fill="white"/>
<path d="M381.199 711.242H395.008V695.427H381.199V711.242Z" fill="white"/>
<path d="M357.243 711.242H371.052V695.427H357.243V711.242Z" fill="white"/>
<path d="M381.199 735.898H395.008V720.083H381.199V735.898Z" fill="white"/>
<path d="M357.243 735.898H371.052V720.083H357.243V735.898Z" fill="white"/>
<path d="M381.199 760.555H395.008V744.739H381.199V760.555Z" fill="white"/>
<path d="M357.243 760.555H371.052V744.739H357.243V760.555Z" fill="white"/>
<path d="M381.199 785.21H395.008V769.395H381.199V785.21Z" fill="white"/>
<path d="M357.243 785.21H371.052V769.395H357.243V785.21Z" fill="white"/>
<path d="M43.7133 405.318H57.5225V386.681H43.7133V405.318Z" fill="white"/>
<path d="M19.7339 405.318H33.5664V386.681H19.7339V405.318Z" fill="white"/>
<path d="M43.7133 433.379H57.5225V414.741H43.7133V433.379Z" fill="white"/>
<path d="M19.7339 433.379H33.5664V414.741H19.7339V433.379Z" fill="white"/>
<path d="M43.7133 461.417H57.5225V442.779H43.7133V461.417Z" fill="white"/>
<path d="M19.7339 461.417H33.5664V442.779H19.7339V461.417Z" fill="white"/>
<path d="M43.7133 489.456H57.5225V470.818H43.7133V489.456Z" fill="white"/>
<path d="M19.7339 489.456H33.5664V470.818H19.7339V489.456Z" fill="white"/>
<path d="M43.7133 518.217H57.5225V499.579H43.7133V518.217Z" fill="white"/>
<path d="M19.7339 518.217H33.5664V499.579H19.7339V518.217Z" fill="white"/>
<path d="M43.7133 546.932H57.5225V528.294H43.7133V546.932Z" fill="white"/>
<path d="M19.7339 546.932H33.5664V528.294H19.7339V546.932Z" fill="white"/>
<path d="M43.7133 575.693H57.5225V557.056H43.7133V575.693Z" fill="white"/>
<path d="M19.7339 575.693H33.5664V557.056H19.7339V575.693Z" fill="white"/>
<path d="M43.7133 604.432H57.5225V585.794H43.7133V604.432Z" fill="white"/>
<path d="M19.7339 604.432H33.5664V585.794H19.7339V604.432Z" fill="white"/>
<path d="M43.7133 633.473H57.5225V614.835H43.7133V633.473Z" fill="white"/>
<path d="M19.7339 633.473H33.5664V614.835H19.7339V633.473Z" fill="white"/>
<path d="M43.7133 662.537H57.5225V643.899H43.7133V662.537Z" fill="white"/>
<path d="M19.7339 662.537H33.5664V643.899H19.7339V662.537Z" fill="white"/>
<path d="M43.7133 691.578H57.5225V672.94H43.7133V691.578Z" fill="white"/>
<path d="M19.7339 691.578H33.5664V672.94H19.7339V691.578Z" fill="white"/>
<path d="M43.7133 720.619H57.5225V701.981H43.7133V720.619Z" fill="white"/>
<path d="M19.7339 720.619H33.5664V701.981H19.7339V720.619Z" fill="white"/>
<path d="M329.974 542.243H343.783V526.428H329.974V542.243Z" fill="white"/>
<path d="M306.018 542.243H319.827V526.428H306.018V542.243Z" fill="white"/>
<path d="M329.974 517.82H343.783V502.005H329.974V517.82Z" fill="white"/>
<path d="M306.018 517.82H319.827V502.005H306.018V517.82Z" fill="white"/>
<path d="M329.974 493.421H343.783V477.606H329.974V493.421Z" fill="white"/>
<path d="M306.018 493.421H319.827V477.606H306.018V493.421Z" fill="white"/>
<path d="M329.974 566.036H343.783V550.221H329.974V566.036Z" fill="white"/>
<path d="M306.018 566.036H319.827V550.221H306.018V566.036Z" fill="white"/>
<path d="M329.974 589.853H343.783V574.037H329.974V589.853Z" fill="white"/>
<path d="M306.018 589.853H319.827V574.037H306.018V589.853Z" fill="white"/>
<path d="M329.974 613.668H343.783V597.853H329.974V613.668Z" fill="white"/>
<path d="M306.018 613.668H319.827V597.853H306.018V613.668Z" fill="white"/>
<path d="M329.974 638.067H343.783V622.252H329.974V638.067Z" fill="white"/>
<path d="M306.018 638.067H319.827V622.252H306.018V638.067Z" fill="white"/>
<path d="M329.974 662.443H343.783V646.628H329.974V662.443Z" fill="white"/>
<path d="M306.018 662.443H319.827V646.628H306.018V662.443Z" fill="white"/>
<path d="M329.974 686.843H343.783V671.028H329.974V686.843Z" fill="white"/>
<path d="M306.018 686.843H319.827V671.028H306.018V686.843Z" fill="white"/>
<path d="M329.974 711.242H343.783V695.427H329.974V711.242Z" fill="white"/>
<path d="M306.018 711.242H319.827V695.427H306.018V711.242Z" fill="white"/>
<path d="M329.974 735.898H343.783V720.083H329.974V735.898Z" fill="white"/>
<path d="M306.018 735.898H319.827V720.083H306.018V735.898Z" fill="white"/>
<path d="M329.974 760.555H343.783V744.739H329.974V760.555Z" fill="white"/>
<path d="M306.018 760.555H319.827V744.739H306.018V760.555Z" fill="white"/>
<path d="M329.974 785.21H343.783V769.395H329.974V785.21Z" fill="white"/>
<path d="M306.018 785.21H319.827V769.395H306.018V785.21Z" fill="white"/>
<path d="M486.68 1008.21C755.041 1008.21 972.59 985.191 972.59 956.798C972.59 928.404 755.041 905.387 486.68 905.387C218.319 905.387 0.77002 928.404 0.77002 956.798C0.77002 985.191 218.319 1008.21 486.68 1008.21Z" fill="#EBEBEB"/>
<path d="M973.337 806.88H0V823.838H973.337V806.88Z" fill="#C7C7C7"/>
<path d="M68.253 806.88C69.7767 812.43 69.7767 818.288 68.253 823.838C67.4306 821.084 67.0373 818.221 67.0867 815.347C67.0498 812.482 67.4429 809.628 68.253 806.88Z" fill="#263238"/>
<path d="M144.32 806.88C145.13 809.628 145.523 812.482 145.486 815.347C145.536 818.221 145.142 821.084 144.32 823.838C142.796 818.288 142.796 812.43 144.32 806.88Z" fill="#263238"/>
<path d="M220.41 806.88C221.934 812.43 221.934 818.288 220.41 823.838C219.588 821.084 219.194 818.221 219.244 815.347C219.207 812.482 219.6 809.628 220.41 806.88Z" fill="#263238"/>
<path d="M296.477 806.88C297.287 809.628 297.68 812.482 297.644 815.347C297.693 818.221 297.3 821.084 296.477 823.838C294.954 818.288 294.954 812.43 296.477 806.88Z" fill="#263238"/>
<path d="M372.568 806.88C374.092 812.43 374.092 818.288 372.568 823.838C371.746 821.084 371.352 818.221 371.402 815.347C371.365 812.482 371.758 809.628 372.568 806.88Z" fill="#263238"/>
<path d="M448.635 806.88C449.445 809.628 449.838 812.482 449.801 815.347C449.85 818.221 449.457 821.084 448.635 823.838C447.111 818.288 447.111 812.43 448.635 806.88Z" fill="#263238"/>
<path d="M524.725 806.88C526.249 812.43 526.249 818.288 524.725 823.838C523.903 821.084 523.509 818.221 523.559 815.347C523.522 812.482 523.915 809.628 524.725 806.88Z" fill="#263238"/>
<path d="M600.792 806.88C601.602 809.628 601.995 812.482 601.959 815.347C602.008 818.221 601.615 821.084 600.792 823.838C599.268 818.288 599.268 812.43 600.792 806.88Z" fill="#263238"/>
<path d="M676.883 806.88C678.406 812.43 678.406 818.288 676.883 823.838C676.06 821.084 675.667 818.221 675.716 815.347C675.679 812.482 676.073 809.628 676.883 806.88Z" fill="#263238"/>
<path d="M752.949 806.88C753.76 809.628 754.153 812.482 754.116 815.347C754.165 818.221 753.772 821.084 752.949 823.838C751.426 818.288 751.426 812.43 752.949 806.88Z" fill="#263238"/>
<path d="M829.04 806.88C830.564 812.43 830.564 818.288 829.04 823.838C828.218 821.084 827.824 818.221 827.874 815.347C827.837 812.482 828.23 809.628 829.04 806.88Z" fill="#263238"/>
<path d="M905.107 806.88C905.917 809.628 906.31 812.482 906.273 815.347C906.323 818.221 905.929 821.084 905.107 823.838C903.583 818.288 903.583 812.43 905.107 806.88Z" fill="#263238"/>
<path d="M0 823.838L121.67 823.278L243.34 823.068L486.68 822.672L730.02 823.068L851.69 823.255L973.36 823.838L851.69 824.398L730.02 824.608L486.68 825.005L243.34 824.608L121.67 824.398L0 823.838Z" fill="#263238"/>
<path d="M884.813 654.255C897.619 627.943 920.036 614.414 945.275 621.878C970.514 629.343 974.433 664.565 955.585 673.453C936.738 682.34 917.89 656.378 907.93 651.059C897.969 645.741 884.813 654.255 884.813 654.255Z" fill="#235ADB"/>
<path d="M872.427 724.304C872.427 721.132 872.613 717.959 872.73 714.787C872.963 708.442 873.173 702.121 873.407 695.776C873.826 684.113 875.086 672.823 879.891 662.139C884.138 652.488 891.215 644.354 900.185 638.813C903.514 636.773 907.11 635.203 910.869 634.148C914.271 630.707 918.598 628.325 923.325 627.29C929.17 626.105 935.179 625.955 941.076 626.847C941.286 626.847 941.286 627.197 941.076 627.173C935.453 626.465 929.745 626.878 924.281 628.386C921.93 629.018 919.654 629.902 917.493 631.022C916.134 631.747 914.832 632.573 913.598 633.495C920.556 631.951 927.822 632.62 934.381 635.407C935.759 635.106 937.171 634.988 938.58 635.058C940.422 635.114 942.253 635.372 944.039 635.827C947.698 636.862 951.198 638.393 954.442 640.376C954.629 640.376 954.442 640.749 954.256 640.656C951.073 638.921 947.666 637.634 944.132 636.83C942.412 636.445 940.665 636.188 938.907 636.061C937.95 636.061 936.971 636.061 936.014 636.061C943.216 639.403 949.001 645.188 952.343 652.389C952.343 652.576 952.133 652.739 952.039 652.552C950.054 648.383 947.151 644.716 943.548 641.828C939.945 638.939 935.734 636.904 931.232 635.874C930.673 635.734 930.113 635.641 929.553 635.547C929.683 636.39 929.769 637.238 929.81 638.09C929.996 639.373 930.206 640.633 930.463 641.915C930.996 644.519 931.681 647.09 932.515 649.613C933.368 652.166 934.389 654.659 935.571 657.078C936.705 659.64 938.138 662.059 939.84 664.285C939.859 664.301 939.874 664.321 939.884 664.344C939.894 664.367 939.898 664.391 939.897 664.416C939.897 664.441 939.89 664.465 939.878 664.487C939.867 664.509 939.85 664.527 939.83 664.542C939.81 664.557 939.787 664.566 939.763 664.571C939.739 664.575 939.714 664.574 939.69 664.567C939.666 664.56 939.644 664.548 939.626 664.532C939.607 664.515 939.593 664.495 939.583 664.472C938.067 662.139 936.294 659.807 934.918 657.474C933.578 655.122 932.432 652.664 931.489 650.126C930.503 647.565 929.723 644.928 929.156 642.242C928.9 640.819 928.667 639.396 928.503 637.95C928.332 637.09 928.277 636.212 928.34 635.337C925.375 634.892 922.364 634.829 919.383 635.151C920.502 641.426 921.715 647.98 925.214 653.439C925.331 653.602 925.028 653.789 924.934 653.602C923.283 650.712 921.833 647.711 920.596 644.621C919.437 641.629 918.707 638.488 918.426 635.291C913.211 635.991 908.176 637.678 903.591 640.259C894.973 645.289 888.089 652.823 883.857 661.859C879.436 671.594 876.979 682.105 876.626 692.79C875.786 706.249 875.599 719.779 874.293 733.191C874.293 734.054 872.8 734.358 872.637 733.378C872.271 730.367 872.201 727.328 872.427 724.304Z" fill="#263238"/>
<path d="M902.028 636.644C902.87 635.62 903.842 634.71 904.92 633.938C905.97 633.075 907.043 632.235 908.186 631.465C910.399 629.947 912.851 628.811 915.441 628.106C915.651 628.106 915.744 628.386 915.441 628.433C912.824 629.088 910.376 630.288 908.256 631.955C907.183 632.748 906.157 633.588 905.154 634.451C904.274 635.394 903.288 636.232 902.215 636.947C902.179 636.947 902.144 636.938 902.113 636.92C902.082 636.903 902.056 636.878 902.037 636.847C902.019 636.817 902.008 636.782 902.006 636.747C902.005 636.711 902.012 636.676 902.028 636.644Z" fill="#263238"/>
<path d="M942.872 646.138C944.984 648.608 946.947 651.202 948.751 653.905C950.49 656.645 951.951 659.552 953.113 662.583C953.113 662.583 953.113 662.723 952.973 662.583C950.036 656.835 946.577 651.369 942.639 646.254C942.499 646.138 942.732 645.998 942.872 646.138Z" fill="#263238"/>
<path d="M874.223 654.909C874.223 654.909 856.098 632.119 821.109 640.19C787.846 647.864 772.497 708.839 806.11 716.14C839.723 723.441 833.775 667.132 846.022 657.428C855.025 650.407 867.925 651.923 874.223 654.909Z" fill="#235ADB"/>
<path d="M794.074 673.499C796.352 671.499 798.76 669.652 801.282 667.971C803.661 666.344 806.25 665.049 808.979 664.122C810.342 662.056 811.863 660.098 813.528 658.267C816.616 654.946 820.186 652.107 824.118 649.846H823.068C821.211 649.753 819.351 649.753 817.493 649.846C813.767 650.088 810.115 651.005 806.717 652.552C806.507 652.552 806.367 652.319 806.553 652.249C810.018 650.754 813.641 649.659 817.354 648.983C819.155 648.663 820.982 648.507 822.812 648.517C823.792 648.517 824.771 648.517 825.751 648.703H826.311C829.52 647.093 832.9 645.849 836.388 644.994L835.431 644.738C833.716 644.354 831.979 644.074 830.23 643.898C826.746 643.498 823.225 643.552 819.756 644.061C819.72 644.048 819.69 644.024 819.668 643.993C819.646 643.962 819.634 643.925 819.634 643.886C819.634 643.848 819.646 643.811 819.668 643.78C819.69 643.749 819.72 643.725 819.756 643.711C823.262 643.292 826.795 643.152 830.323 643.292C833.292 643.383 836.246 643.766 839.14 644.435C841.245 644.053 843.372 643.811 845.508 643.711C857.708 643.198 871.004 647.747 878.515 657.707C886.026 667.668 887.496 681.034 888.825 693.233C890.901 710.109 891.37 727.144 890.225 744.108C890.225 745.111 888.732 744.924 888.709 744.108C888.242 729.716 887.729 715.347 886.376 701.001C885.746 694.376 885.046 687.728 883.927 681.15C883.126 675.503 881.507 670.003 879.122 664.822C876.508 659.524 872.396 655.112 867.295 652.132C862.171 649.195 856.458 647.434 850.57 646.977C845.292 646.552 839.979 647.049 834.872 648.447C835.035 649.474 835.035 650.521 834.872 651.549C834.769 652.85 834.51 654.135 834.102 655.375C833.722 656.551 833.238 657.69 832.656 658.78C832.002 659.97 831.186 661.113 830.463 662.186C830.346 662.373 830.066 662.186 830.183 661.999C831.637 659.917 832.573 657.518 832.912 655.001C833.124 653.821 833.264 652.629 833.332 651.432C833.332 650.546 833.332 649.636 833.332 648.727C827.781 650.442 822.599 653.179 818.053 656.798C817.214 657.474 816.374 658.197 815.581 658.944C816.734 660.011 817.731 661.236 818.543 662.582C819.747 664.337 820.793 666.195 821.669 668.134C823.287 672.029 824.37 676.125 824.888 680.31C824.888 680.52 824.585 680.567 824.561 680.31C823.924 676.267 822.582 672.367 820.596 668.787C819.671 667.013 818.634 665.299 817.493 663.655C816.887 662.816 816.28 661.976 815.651 661.183C815.301 660.74 814.928 660.296 814.601 659.83C810.489 663.867 807.131 668.607 804.687 673.826C806.346 675.561 807.723 677.544 808.769 679.704C810.025 681.958 811.124 684.296 812.058 686.702C813.75 691.368 815.145 696.136 816.234 700.978C816.234 700.999 816.23 701.02 816.221 701.04C816.213 701.06 816.201 701.078 816.186 701.093C816.171 701.108 816.153 701.12 816.133 701.128C816.113 701.137 816.092 701.141 816.071 701.141C816.049 701.141 816.028 701.137 816.008 701.128C815.988 701.12 815.97 701.108 815.955 701.093C815.94 701.078 815.928 701.06 815.92 701.04C815.911 701.02 815.907 700.999 815.907 700.978C814.834 696.125 813.166 691.424 810.939 686.982C809.889 684.789 808.793 682.643 807.626 680.497C806.416 678.523 805.318 676.483 804.337 674.386C802.006 679.493 800.653 684.992 800.349 690.597C800.349 690.641 800.331 690.682 800.301 690.713C800.27 690.743 800.229 690.761 800.185 690.761C800.142 690.761 800.1 690.743 800.07 690.713C800.039 690.682 800.022 690.641 800.022 690.597C800.675 681.814 803.358 673.302 807.86 665.731C805.737 666.641 803.591 667.528 801.515 668.647C798.882 670.034 796.436 671.75 794.237 673.756C794.144 673.896 793.911 673.639 794.074 673.499Z" fill="#263238"/>
<path d="M819.733 674.783C820.782 678.235 822.065 681.594 823.045 685.093C824.02 688.437 824.546 691.896 824.608 695.38H824.445C823.503 688.387 821.822 681.514 819.43 674.876C819.417 674.855 819.409 674.831 819.407 674.806C819.405 674.781 819.409 674.757 819.417 674.734C819.426 674.71 819.44 674.69 819.458 674.673C819.476 674.656 819.498 674.643 819.522 674.636C819.545 674.629 819.57 674.627 819.595 674.631C819.619 674.635 819.643 674.644 819.663 674.658C819.683 674.672 819.7 674.691 819.712 674.712C819.724 674.734 819.731 674.758 819.733 674.783Z" fill="#263238"/>
<path d="M797.573 666.222C798.953 664.891 800.526 663.774 802.238 662.91C803.969 662.12 805.763 661.481 807.603 660.997C807.79 660.997 807.86 661.3 807.603 661.347C805.793 661.809 804.058 662.523 802.448 663.47C800.825 664.328 799.266 665.303 797.783 666.385L797.573 666.222Z" fill="#263238"/>
<path d="M856.985 624.467C856.985 624.467 853.649 583.53 823.208 570.28C797.806 559.2 783.25 587.752 801.212 605.27C815.744 619.359 839.047 612.991 856.985 624.467Z" fill="#235ADB"/>
<path d="M806.857 578.212C811.487 580.076 816.005 582.21 820.386 584.603C824.022 586.723 827.527 589.06 830.883 591.601C830.393 590.575 829.95 589.478 829.436 588.475C828.643 586.92 827.78 585.365 826.847 583.81C824.976 580.713 822.727 577.861 820.153 575.319C819.989 575.179 820.153 574.946 820.386 575.086C822.928 577.638 825.267 580.383 827.384 583.297C828.425 584.798 829.383 586.355 830.253 587.962C831.154 589.412 831.845 590.983 832.306 592.627L832.655 592.861C837.961 597.109 842.829 601.875 847.188 607.09C847.188 606.693 847.001 606.273 846.908 605.923C846.325 603.917 845.718 601.935 845.065 599.975C843.764 595.769 841.913 591.753 839.56 588.032C839.443 587.846 839.747 587.682 839.863 587.869C842.241 591.612 844.368 595.508 846.231 599.532C847.07 601.495 847.771 603.514 848.331 605.574C848.777 606.919 849.105 608.3 849.31 609.702C850.64 611.382 851.946 613.061 853.183 614.811C866.245 633.472 872.8 655.912 874.363 678.422C874.818 685.129 874.935 691.856 874.713 698.576C874.664 705.354 874.063 712.118 872.917 718.799C872.917 719.243 872.17 719.103 872.194 718.683C872.333 712.781 872.963 706.88 873.057 700.978C873.15 695.077 873.057 689.105 872.497 683.204C871.553 671.424 869.347 659.78 865.919 648.471C862.383 636.89 857.173 625.888 850.453 615.814C849.171 615.557 847.911 615.207 846.651 614.904L841.986 613.691C839.068 612.94 836.231 611.901 833.519 610.589C833.478 610.567 833.448 610.53 833.435 610.487C833.422 610.443 833.427 610.396 833.449 610.355C833.47 610.315 833.507 610.285 833.551 610.272C833.594 610.259 833.642 610.264 833.682 610.286C836.366 611.751 839.274 612.76 842.289 613.271C844.622 613.738 847.141 614.041 849.544 614.601C847.37 611.374 845.035 608.26 842.546 605.27C836.745 605.79 830.898 605.357 825.238 603.987C822.225 603.26 819.263 602.333 816.374 601.212C813.341 600.045 810.449 598.529 807.44 597.293C807.206 597.176 807.44 596.85 807.58 596.989C813.028 599.955 818.973 601.9 825.121 602.728C830.523 603.581 835.981 604.033 841.449 604.081C839.28 601.608 837.041 599.182 834.662 596.92C826.724 588.924 817.185 582.7 806.67 578.655C806.553 578.492 806.647 578.119 806.857 578.212Z" fill="#263238"/>
<path d="M831.606 578.328C832.979 580.055 834.226 581.88 835.338 583.786C836.479 585.788 837.379 587.918 838.021 590.131C838.021 590.131 838.021 590.247 837.904 590.131C836.878 588.125 836.038 586.049 835.011 584.043C834.005 582.072 832.784 580.218 831.372 578.514C831.233 578.491 831.466 578.164 831.606 578.328Z" fill="#263238"/>
<path d="M803.311 591.951C805.296 593.041 807.392 593.917 809.562 594.564C811.644 595.248 813.762 595.817 815.907 596.267V596.453C813.669 596.207 811.464 595.722 809.329 595.007C807.221 594.211 805.164 593.284 803.171 592.231C802.961 592.138 803.124 591.834 803.311 591.951Z" fill="#263238"/>
<path d="M880.638 617.096C880.825 618.869 885.303 602.238 910.962 587.472C934.288 574.083 962.28 539.21 939.327 517.19C920.829 499.392 872.1 538.16 880.638 617.096Z" fill="#235ADB"/>
<path d="M862.933 712.431C863.302 695.122 864.665 677.847 867.015 660.694C869.042 644.928 872.685 629.412 877.885 614.391C879.798 608.979 881.99 603.661 884.37 598.436C884.194 596.395 884.194 594.342 884.37 592.301C884.486 589.688 884.743 587.076 884.976 584.463C885.21 581.851 885.489 579.238 885.793 576.626C886.096 574.013 886.656 571.424 886.772 568.835C886.772 568.813 886.777 568.792 886.785 568.772C886.793 568.752 886.805 568.734 886.82 568.719C886.835 568.704 886.853 568.692 886.873 568.684C886.893 568.676 886.914 568.671 886.936 568.671C886.957 568.671 886.978 568.676 886.998 568.684C887.018 568.692 887.036 568.704 887.051 568.719C887.066 568.734 887.078 568.752 887.087 568.772C887.095 568.792 887.099 568.813 887.099 568.835C886.577 571.567 886.265 574.336 886.166 577.116C885.979 579.635 885.816 582.154 885.746 584.697C885.676 587.239 885.746 589.758 885.746 592.278C885.746 593.211 885.746 594.167 885.746 595.147C888.079 590.038 890.761 585 893.56 580.101C891.811 569.441 894.074 558.291 896.266 547.841C896.266 547.631 896.616 547.841 896.569 547.958C895.51 553.4 894.948 558.928 894.89 564.473C894.89 568.858 894.89 573.243 895.007 577.629L896.873 574.48C900.208 569.045 903.871 563.703 907.556 558.524C907.256 555.991 907.343 553.427 907.813 550.92C908.235 548.111 908.859 545.336 909.679 542.616C910.488 539.886 911.438 537.2 912.525 534.568C913.644 531.863 915.114 529.32 916.187 526.591C916.187 526.381 916.63 526.591 916.49 526.731C915.134 529.3 914.055 532.005 913.271 534.802C912.421 537.427 911.721 540.098 911.172 542.803C910.635 545.508 910.192 548.238 909.795 550.967C909.562 552.786 909.399 554.652 909.072 556.472C914.586 549.062 920.611 542.047 927.104 535.478C927.244 535.315 927.477 535.478 927.313 535.711C917.545 546.806 908.83 558.785 901.281 571.494L900.465 572.917C901.865 572.03 903.497 571.331 904.827 570.584C907.323 569.185 909.819 567.808 912.338 566.455C914.857 565.102 917.213 563.82 919.616 562.467C920.875 561.79 922.112 561.067 923.371 560.414C924.886 559.755 926.345 558.975 927.733 558.081C927.92 557.941 928.13 558.245 927.92 558.361C925.447 559.714 923.255 561.744 920.922 563.26C918.589 564.776 916.07 566.269 913.574 567.668C908.909 570.211 904.034 572.054 899.579 574.666C896.453 580.148 893.584 585.746 890.924 591.461C893.654 589.712 896.453 588.056 899.275 586.469C901.095 585.443 902.938 584.44 904.78 583.46C906.615 582.61 908.351 581.562 909.959 580.335C910.122 580.195 910.355 580.335 910.192 580.568C907.189 583.257 903.867 585.568 900.302 587.449C896.989 589.385 893.654 591.251 890.225 592.931C887.472 598.949 884.976 605.107 882.784 611.335C871.937 642.009 867.971 674.549 866.059 706.973C865.499 716.607 865.219 726.241 865.079 735.898C864.939 745.555 865.475 755.165 865.452 764.799C865.452 765.079 864.986 765.149 864.939 764.799C863.796 756.238 863.586 747.561 863.213 738.953C862.84 730.346 862.746 721.202 862.933 712.431Z" fill="#263238"/>
<path d="M909.679 573.616C914.378 571.572 918.943 569.235 923.348 566.618C927.817 564.11 932.147 561.361 936.318 558.384C932.377 561.582 928.215 564.498 923.862 567.108C919.34 569.648 914.665 571.907 909.866 573.872C909.632 573.989 909.469 573.826 909.679 573.616Z" fill="#263238"/>
<path d="M902.215 538.953C902.611 537.46 903.078 535.991 903.567 534.521V534.358C903.894 533.541 904.221 532.702 904.571 531.885C904.571 531.885 904.571 531.675 904.687 531.582C904.804 531.489 904.804 531.279 904.874 531.116C904.99 531.116 904.944 530.952 904.874 531.116C904.757 531.116 904.711 531.699 904.617 531.979C904.581 532.137 904.534 532.293 904.477 532.445C902.78 538.167 901.509 544.007 900.675 549.917C900.675 550.103 900.348 550.103 900.372 549.917C900.634 546.212 901.251 542.54 902.215 538.953Z" fill="#263238"/>
<path d="M835.758 718.659L837.577 740.423L843.199 806.786H903.404L909.026 740.423L910.869 718.659H835.758Z" fill="#455A64"/>
<path d="M835.758 718.659L837.577 740.423H909.026L910.869 718.659H835.758Z" fill="#263238"/>
<path d="M829.833 730.812H916.77V709.935H829.833V730.812Z" fill="#455A64"/>
<path d="M748.868 52.8574H224.889C211.736 52.8574 201.073 63.5203 201.073 76.6736V883.857C201.073 897.01 211.736 907.673 224.889 907.673H748.868C762.021 907.673 772.684 897.01 772.684 883.857V76.6736C772.684 63.5203 762.021 52.8574 748.868 52.8574Z" fill="#455A64"/>
<path d="M748.541 113.226H225.496V848.984H748.541V113.226Z" fill="white"/>
<path d="M548.915 89.62V86.5642C548.915 84.9539 547.609 83.6484 545.999 83.6484L427.361 83.6484C425.751 83.6484 424.445 84.9539 424.445 86.5642V89.62C424.445 91.2303 425.751 92.5358 427.361 92.5358H545.999C547.609 92.5358 548.915 91.2303 548.915 89.62Z" fill="#37474F"/>
<path d="M486.68 897.316C483.491 897.321 480.372 896.379 477.719 894.611C475.065 892.843 472.995 890.327 471.772 887.382C470.548 884.437 470.226 881.196 470.845 878.067C471.464 874.939 472.998 872.065 475.251 869.808C477.504 867.552 480.376 866.014 483.503 865.391C486.631 864.767 489.873 865.085 492.819 866.304C495.766 867.523 498.285 869.589 500.057 872.24C501.829 874.891 502.775 878.009 502.775 881.198C502.775 885.468 501.08 889.565 498.062 892.587C495.045 895.609 490.951 897.31 486.68 897.316Z" fill="#37474F"/>
<path opacity="0.6" d="M305.924 767.808C305.924 770.498 305.126 773.127 303.632 775.364C302.138 777.6 300.014 779.343 297.529 780.372C295.044 781.402 292.31 781.671 289.672 781.146C287.034 780.621 284.611 779.326 282.709 777.424C280.807 775.522 279.512 773.099 278.987 770.461C278.462 767.823 278.731 765.089 279.761 762.604C280.79 760.119 282.533 757.995 284.769 756.501C287.006 755.007 289.635 754.209 292.325 754.209C295.932 754.209 299.391 755.642 301.941 758.192C304.491 760.742 305.924 764.202 305.924 767.808Z" fill="#235ADB"/>
<path opacity="0.6" d="M322.439 741.777C322.439 743.087 322.051 744.368 321.323 745.457C320.595 746.547 319.56 747.396 318.35 747.897C317.139 748.399 315.807 748.53 314.522 748.274C313.237 748.019 312.057 747.388 311.13 746.461C310.204 745.535 309.573 744.354 309.317 743.069C309.062 741.784 309.193 740.452 309.694 739.242C310.196 738.031 311.045 736.997 312.134 736.269C313.224 735.541 314.504 735.152 315.815 735.152C317.572 735.152 319.257 735.85 320.499 737.093C321.741 738.335 322.439 740.02 322.439 741.777Z" fill="#235ADB"/>
<path opacity="0.6" d="M613.295 761.23C613.295 762.54 612.906 763.821 612.178 764.911C611.45 766 610.416 766.849 609.205 767.351C607.995 767.852 606.663 767.983 605.378 767.728C604.093 767.472 602.912 766.841 601.986 765.914C601.059 764.988 600.428 763.808 600.173 762.523C599.917 761.237 600.048 759.905 600.55 758.695C601.051 757.484 601.9 756.45 602.99 755.722C604.079 754.994 605.36 754.605 606.67 754.605C608.427 754.605 610.112 755.303 611.354 756.546C612.597 757.788 613.295 759.473 613.295 761.23Z" fill="#235ADB"/>
<path opacity="0.6" d="M745.952 821.715C745.952 823.026 745.563 824.307 744.835 825.396C744.107 826.485 743.073 827.335 741.862 827.836C740.652 828.337 739.32 828.468 738.035 828.213C736.75 827.957 735.569 827.326 734.643 826.4C733.716 825.473 733.085 824.293 732.83 823.008C732.574 821.723 732.705 820.391 733.207 819.18C733.708 817.97 734.557 816.935 735.647 816.207C736.736 815.479 738.017 815.091 739.327 815.091C741.084 815.091 742.769 815.789 744.011 817.031C745.254 818.274 745.952 819.959 745.952 821.715Z" fill="#235ADB"/>
<path opacity="0.6" d="M735.805 841.076C735.805 843.173 734.972 845.185 733.489 846.668C732.006 848.151 729.994 848.984 727.897 848.984H235.339C234.266 849.042 233.192 848.881 232.184 848.511C231.175 848.14 230.252 847.568 229.472 846.829C228.692 846.09 228.07 845.2 227.646 844.213C227.221 843.226 227.002 842.162 227.002 841.088C227.002 840.013 227.221 838.95 227.646 837.963C228.07 836.976 228.692 836.085 229.472 835.346C230.252 834.607 231.175 834.035 232.184 833.665C233.192 833.294 234.266 833.133 235.339 833.192C235.967 833.191 236.593 833.262 237.205 833.402C237.213 830.31 238.14 827.29 239.869 824.727C241.597 822.164 244.049 820.173 246.913 819.008C249.777 817.842 252.922 817.555 255.95 818.182C258.977 818.81 261.749 820.324 263.914 822.532H264.054C264.054 821.575 263.914 820.596 263.914 819.616C263.901 814.615 265.163 809.693 267.581 805.315C269.998 800.937 273.491 797.247 277.73 794.593C281.968 791.939 286.814 790.408 291.808 790.146C296.802 789.884 301.781 790.898 306.274 793.094C306.602 788.348 308.532 783.853 311.748 780.348C314.964 776.842 319.276 774.532 323.976 773.798C328.677 773.063 333.487 773.947 337.62 776.304C341.753 778.661 344.962 782.352 346.722 786.772C349.362 782.555 353.032 779.079 357.386 776.671C361.74 774.264 366.636 773.004 371.611 773.01C373.497 773.021 375.379 773.201 377.233 773.546C376.829 771.291 376.626 769.003 376.626 766.712C376.622 759.09 378.807 751.626 382.921 745.21C387.036 738.793 392.906 733.693 399.835 730.517C406.764 727.34 414.459 726.219 422.006 727.289C429.553 728.359 436.634 731.574 442.406 736.551C443.068 735.264 444.071 734.182 445.305 733.426C446.539 732.669 447.957 732.265 449.404 732.259C450.445 732.266 451.474 732.472 452.437 732.865L459.831 437.484H503.218L510.613 732.865C511.576 732.472 512.605 732.266 513.645 732.259C515.092 732.268 516.509 732.672 517.742 733.429C518.976 734.186 519.979 735.265 520.643 736.551C526.416 731.574 533.497 728.359 541.043 727.289C548.59 726.219 556.286 727.34 563.214 730.517C570.143 733.693 576.014 738.793 580.128 745.21C584.242 751.626 586.427 759.09 586.423 766.712C586.423 769.003 586.22 771.291 585.817 773.546C587.671 773.201 589.552 773.021 591.438 773.01C596.413 773.006 601.308 774.267 605.662 776.674C610.015 779.082 613.686 782.557 616.327 786.772C618.019 782.246 621.22 778.441 625.39 776.001C629.561 773.56 634.446 772.633 639.22 773.376C643.995 774.119 648.367 776.486 651.6 780.078C654.832 783.67 656.726 788.267 656.962 793.094C661.446 790.903 666.414 789.888 671.399 790.145C676.384 790.401 681.221 791.921 685.457 794.562C689.693 797.202 693.187 800.876 695.613 805.238C698.038 809.601 699.315 814.508 699.322 819.499C699.322 820.479 699.322 821.459 699.182 822.415H699.322C701.487 820.207 704.259 818.693 707.286 818.066C710.314 817.438 713.459 817.726 716.323 818.891C719.186 820.056 721.639 822.047 723.367 824.611C725.096 827.174 726.023 830.193 726.031 833.285C726.643 833.144 727.269 833.073 727.897 833.075C728.943 833.075 729.979 833.283 730.945 833.686C731.91 834.089 732.786 834.68 733.522 835.424C734.257 836.168 734.838 837.051 735.23 838.021C735.622 838.991 735.817 840.03 735.805 841.076Z" fill="#235ADB"/>
<path d="M403.101 250.128L320.316 340.401C320.316 340.401 403.171 529.904 403.101 531.21L391.438 373.337L417.097 346.909L403.101 250.128Z" fill="#235ADB"/>
<path opacity="0.1" d="M403.101 250.128L320.316 340.401C320.316 340.401 403.171 529.904 403.101 531.21L391.438 373.337L417.097 346.909L403.101 250.128Z" fill="black"/>
<path opacity="0.1" d="M416.911 346.885L399.439 364.963L366.339 290.179L403.102 250.104L416.911 346.885Z" fill="black"/>
<path d="M560.741 250.128L643.526 340.401C643.526 340.401 560.648 529.904 560.741 531.21L572.521 373.337L546.862 346.909L560.741 250.128Z" fill="#235ADB"/>
<path opacity="0.1" d="M560.741 250.128L643.526 340.401C643.526 340.401 560.648 529.904 560.741 531.21L572.521 373.337L546.862 346.909L560.741 250.128Z" fill="black"/>
<path opacity="0.1" d="M546.908 346.885L564.403 364.963L597.503 290.179L560.741 250.104L546.908 346.885Z" fill="black"/>
<path d="M529.81 408.653H433.799C433.799 408.653 388.569 327.805 393.934 231.374C396.64 183.251 409.213 134.803 424.259 94.7048C445.182 39.2582 470.934 0 482.014 0C493.094 0 518.87 39.3048 539.654 94.7281C554.699 134.826 567.202 183.368 569.838 231.444C575.133 327.851 529.81 408.653 529.81 408.653Z" fill="#EBEBEB"/>
<path opacity="0.2" d="M539.397 218.964C539.393 229.918 536.14 240.624 530.05 249.729C523.96 258.833 515.307 265.927 505.185 270.114C495.064 274.3 483.928 275.391 473.186 273.247C462.444 271.104 452.579 265.824 444.839 258.074C437.098 250.323 431.83 240.452 429.701 229.707C427.571 218.963 428.676 207.828 432.875 197.712C437.074 187.595 444.179 178.951 453.291 172.873C462.404 166.795 473.114 163.555 484.067 163.564C491.339 163.564 498.54 164.998 505.257 167.783C511.975 170.568 518.078 174.65 523.216 179.795C528.355 184.94 532.429 191.048 535.206 197.769C537.982 204.49 539.407 211.692 539.397 218.964Z" fill="black"/>
<path d="M537.438 213.319C537.433 224.268 534.183 234.971 528.097 244.073C522.012 253.176 513.364 260.27 503.248 264.459C493.131 268.648 482 269.744 471.261 267.609C460.521 265.473 450.656 260.202 442.912 252.461C435.168 244.72 429.893 234.857 427.753 224.119C425.613 213.381 426.704 202.249 430.889 192.131C435.074 182.013 442.164 173.362 451.264 167.273C460.364 161.183 471.065 157.928 482.015 157.919C489.293 157.913 496.5 159.341 503.226 162.123C509.952 164.905 516.063 168.985 521.21 174.13C526.358 179.275 530.44 185.385 533.225 192.109C536.009 198.834 537.441 206.041 537.438 213.319Z" fill="#235ADB"/>
<path opacity="0.1" d="M537.438 213.319C537.433 224.268 534.183 234.971 528.097 244.073C522.012 253.176 513.364 260.27 503.248 264.459C493.131 268.648 482 269.744 471.261 267.609C460.521 265.473 450.656 260.202 442.912 252.461C435.168 244.72 429.893 234.857 427.753 224.119C425.613 213.381 426.704 202.249 430.889 192.131C435.074 182.013 442.164 173.362 451.264 167.273C460.364 161.183 471.065 157.928 482.015 157.919C489.293 157.913 496.5 159.341 503.226 162.123C509.952 164.905 516.063 168.985 521.21 174.13C526.358 179.275 530.44 185.385 533.225 192.109C536.009 198.834 537.441 206.041 537.438 213.319Z" fill="black"/>
<path d="M520.456 213.272C520.47 220.867 518.231 228.296 514.023 234.618C509.814 240.94 503.825 245.872 496.814 248.79C489.802 251.708 482.082 252.481 474.631 251.012C467.179 249.542 460.331 245.895 454.953 240.533C449.574 235.171 445.907 228.334 444.415 220.887C442.922 213.44 443.672 205.718 446.569 198.698C449.465 191.677 454.379 185.673 460.689 181.446C466.998 177.218 474.42 174.957 482.014 174.947C492.193 174.935 501.961 178.965 509.169 186.152C516.378 193.338 520.438 203.093 520.456 213.272Z" fill="#455A64"/>
<g opacity="0.4">
<path d="M520.48 213.272C520.489 218.059 519.603 222.806 517.867 227.268L496.01 249.078C491.549 250.811 486.801 251.689 482.015 251.667C478.544 251.672 475.089 251.193 471.751 250.244L519.057 202.938C520.002 206.302 520.481 209.779 520.48 213.272Z" fill="white"/>
<path d="M487.706 175.297L444.086 218.917C443.817 217.055 443.676 215.177 443.666 213.295C443.685 203.13 447.731 193.387 454.918 186.199C462.106 179.012 471.85 174.965 482.014 174.947C483.918 174.93 485.819 175.047 487.706 175.297Z" fill="white"/>
<path d="M515.674 194.681L463.493 246.862C462.479 246.322 461.498 245.722 460.554 245.066L513.855 191.742C514.508 192.675 515.091 193.608 515.674 194.681Z" fill="white"/>
</g>
<path d="M539.747 94.7281H424.352C445.182 39.2582 470.935 0 482.015 0C493.095 0 518.964 39.3048 539.747 94.7281Z" fill="#235ADB"/>
<g opacity="0.1">
<path d="M444.226 82.7385C444.226 83.3798 444.036 84.0067 443.68 84.5399C443.323 85.0731 442.817 85.4887 442.224 85.7341C441.632 85.9795 440.98 86.0437 440.351 85.9186C439.722 85.7935 439.144 85.4847 438.691 85.0312C438.237 84.5778 437.929 84 437.804 83.3711C437.678 82.7421 437.743 82.0902 437.988 81.4977C438.233 80.9053 438.649 80.3989 439.182 80.0426C439.715 79.6863 440.342 79.4962 440.984 79.4962C441.41 79.4931 441.833 79.5748 442.228 79.7367C442.623 79.8985 442.981 80.1372 443.283 80.4389C443.585 80.7406 443.824 81.0993 443.985 81.4941C444.147 81.8889 444.229 82.3119 444.226 82.7385Z" fill="black"/>
<path d="M464.753 82.7387C464.758 83.3819 464.571 84.012 464.216 84.5487C463.862 85.0855 463.356 85.5047 462.762 85.753C462.169 86.0013 461.515 86.0674 460.884 85.9431C460.253 85.8187 459.673 85.5094 459.218 85.0546C458.763 84.5997 458.454 84.0199 458.33 83.3887C458.205 82.7576 458.272 82.1038 458.52 81.5104C458.768 80.917 459.187 80.4108 459.724 80.0563C460.261 79.7018 460.891 79.515 461.534 79.5196C462.386 79.5257 463.201 79.8668 463.804 80.4692C464.406 81.0716 464.747 81.8868 464.753 82.7387Z" fill="black"/>
<path d="M485.28 82.7618C485.284 83.1905 485.201 83.6154 485.038 84.0117C484.874 84.4081 484.634 84.7678 484.329 85.0698C484.025 85.3718 483.664 85.6101 483.266 85.7705C482.869 85.9309 482.443 86.0104 482.015 86.0042C481.372 86.0088 480.743 85.8226 480.207 85.4691C479.671 85.1156 479.252 84.6109 479.003 84.0189C478.754 83.4268 478.686 82.7742 478.809 82.1437C478.931 81.5132 479.238 80.9333 479.69 80.4775C480.143 80.0217 480.721 79.7106 481.35 79.5836C481.98 79.4566 482.633 79.5194 483.227 79.7641C483.821 80.0088 484.328 80.4243 484.686 80.958C485.043 81.4917 485.234 82.1195 485.234 82.7618H485.28Z" fill="black"/>
<path d="M505.808 82.7854C505.807 83.4277 505.617 84.0555 505.259 84.5892C504.902 85.1229 504.394 85.5384 503.8 85.7831C503.207 86.0278 502.554 86.0907 501.924 85.9637C501.294 85.8366 500.717 85.5255 500.264 85.0697C499.812 84.6139 499.505 84.034 499.382 83.4036C499.26 82.7731 499.327 82.1204 499.576 81.5284C499.825 80.9363 500.244 80.4316 500.781 80.0781C501.317 79.7247 501.946 79.5384 502.588 79.5431C503.013 79.543 503.434 79.6271 503.826 79.7903C504.218 79.9535 504.574 80.1927 504.873 80.4941C505.172 80.7955 505.409 81.1531 505.569 81.5464C505.73 81.9396 505.811 82.3607 505.808 82.7854Z" fill="black"/>
<path d="M526.335 82.7855C526.339 83.4288 526.153 84.0588 525.798 84.5956C525.444 85.1324 524.937 85.5515 524.344 85.7998C523.751 86.0481 523.097 86.1143 522.466 85.9899C521.835 85.8656 521.255 85.5563 520.8 85.1014C520.345 84.6466 520.036 84.0667 519.911 83.4356C519.787 82.8045 519.853 82.1506 520.101 81.5572C520.35 80.9638 520.769 80.4577 521.306 80.1032C521.842 79.7487 522.472 79.5619 523.116 79.5665C523.969 79.5665 524.788 79.9056 525.392 80.5093C525.996 81.113 526.335 81.9318 526.335 82.7855Z" fill="black"/>
</g>
<path d="M444.086 393.841C444.086 394.483 443.895 395.111 443.538 395.645C443.18 396.179 442.673 396.594 442.079 396.839C441.485 397.084 440.832 397.146 440.202 397.019C439.573 396.892 438.995 396.581 438.542 396.125C438.09 395.67 437.783 395.09 437.661 394.459C437.538 393.829 437.606 393.176 437.855 392.584C438.104 391.992 438.523 391.487 439.059 391.134C439.595 390.78 440.225 390.594 440.867 390.599C441.291 390.599 441.712 390.683 442.104 390.846C442.496 391.009 442.852 391.248 443.151 391.55C443.45 391.851 443.687 392.209 443.847 392.602C444.008 392.995 444.089 393.416 444.086 393.841Z" fill="#235ADB"/>
<path d="M464.613 393.841C464.618 394.484 464.431 395.114 464.076 395.651C463.722 396.188 463.216 396.607 462.622 396.856C462.029 397.104 461.375 397.17 460.744 397.046C460.113 396.921 459.533 396.612 459.078 396.157C458.623 395.702 458.314 395.122 458.19 394.491C458.065 393.86 458.131 393.206 458.38 392.613C458.628 392.019 459.047 391.513 459.584 391.159C460.121 390.804 460.751 390.618 461.394 390.622C462.248 390.622 463.067 390.961 463.67 391.565C464.274 392.169 464.613 392.987 464.613 393.841Z" fill="#235ADB"/>
<path d="M485.14 393.865C485.14 394.507 484.949 395.135 484.592 395.668C484.235 396.202 483.727 396.617 483.133 396.862C482.539 397.107 481.886 397.17 481.256 397.043C480.627 396.916 480.049 396.605 479.597 396.149C479.144 395.693 478.837 395.113 478.715 394.483C478.592 393.852 478.66 393.2 478.909 392.607C479.158 392.015 479.577 391.511 480.113 391.157C480.65 390.804 481.279 390.618 481.921 390.622C482.346 390.622 482.766 390.706 483.158 390.869C483.55 391.033 483.906 391.272 484.205 391.573C484.505 391.875 484.741 392.232 484.902 392.625C485.062 393.019 485.143 393.44 485.14 393.865Z" fill="#235ADB"/>
<path d="M505.691 393.865C505.695 394.507 505.509 395.136 505.156 395.672C504.802 396.208 504.297 396.628 503.705 396.877C503.113 397.126 502.461 397.193 501.83 397.071C501.2 396.948 500.62 396.641 500.164 396.189C499.708 395.736 499.397 395.159 499.27 394.529C499.143 393.899 499.206 393.246 499.451 392.652C499.695 392.059 500.111 391.551 500.645 391.194C501.178 390.836 501.806 390.646 502.448 390.646C503.304 390.645 504.125 390.984 504.733 391.587C505.34 392.19 505.684 393.009 505.691 393.865Z" fill="#235ADB"/>
<path d="M526.334 393.888C526.372 394.335 526.317 394.786 526.172 395.211C526.027 395.636 525.795 396.026 525.492 396.356C525.188 396.687 524.819 396.951 524.408 397.131C523.997 397.312 523.553 397.405 523.104 397.405C522.655 397.405 522.211 397.312 521.8 397.131C521.389 396.951 521.019 396.687 520.716 396.356C520.412 396.026 520.18 395.636 520.035 395.211C519.89 394.786 519.835 394.335 519.873 393.888C519.87 393.464 519.951 393.044 520.112 392.653C520.272 392.261 520.509 391.904 520.809 391.605C521.108 391.305 521.465 391.068 521.856 390.908C522.248 390.747 522.668 390.666 523.092 390.669C523.517 390.666 523.938 390.747 524.331 390.907C524.724 391.068 525.082 391.304 525.383 391.604C525.685 391.903 525.924 392.259 526.087 392.651C526.25 393.043 526.334 393.463 526.334 393.888Z" fill="#235ADB"/>
<path d="M520.946 437.508L442.873 437.461L439.234 408.606L524.631 408.676L520.946 437.508Z" fill="#235ADB"/>
<path opacity="0.1" d="M520.946 437.508L442.873 437.461L439.234 408.606L524.631 408.676L520.946 437.508Z" fill="black"/>
<path opacity="0.1" d="M524.631 408.676L522.812 422.719L440.61 419.64L439.234 408.606L524.631 408.676Z" fill="black"/>
<path d="M604.035 780.102L594.354 781.898L592.185 792.092L590.015 781.898L580.358 780.102L589.992 777.746L592.185 768.112L594.401 777.746L604.035 780.102Z" fill="#FCFCFC"/>
<path d="M509.913 698.32L500.232 700.093L498.086 710.31L495.917 700.093L486.236 698.32L495.87 695.964L498.086 686.33L500.279 695.964L509.913 698.32Z" fill="#FCFCFC"/>
<path d="M477.536 455.749L467.856 457.546L465.686 467.739L463.517 457.546L453.86 455.749L463.494 453.394L465.686 443.76L467.902 453.394L477.536 455.749Z" fill="#FCFCFC"/>
<path d="M369.302 799.532L363.913 800.535L362.7 806.227L361.487 800.535L356.076 799.532L361.464 798.203L362.7 792.814L363.937 798.203L369.302 799.532Z" fill="#FCFCFC"/>
<path d="M660.274 816.537L654.862 817.54L653.673 823.232L652.46 817.54L647.048 816.537L652.436 815.208L653.673 809.819L654.885 815.208L660.274 816.537Z" fill="#FCFCFC"/>
<path d="M294.891 836.504L289.479 837.507L288.266 843.222L287.077 837.507L281.665 836.504L287.03 835.198L288.266 829.81L289.503 835.198L294.891 836.504Z" fill="#FCFCFC"/>
<path d="M530.113 831.769L524.701 832.772L523.512 838.464L522.299 832.772L516.887 831.769L522.276 830.439L523.512 825.074L524.725 830.439L530.113 831.769Z" fill="#FCFCFC"/>
<path d="M490.529 682.808L485.117 683.811L483.904 689.503L482.691 683.811L477.303 682.808L482.668 681.502L483.904 676.113L485.14 681.502L490.529 682.808Z" fill="#FCFCFC"/>
<path d="M505.061 535.199L499.649 536.202L498.436 541.893L497.223 536.202L491.835 535.199L497.2 533.892L498.436 528.504L499.673 533.892L505.061 535.199Z" fill="#FCFCFC"/>
<path d="M673.08 828.854C672.696 828.9 672.342 829.086 672.085 829.377C671.828 829.667 671.686 830.041 671.686 830.428C671.686 830.816 671.828 831.19 672.085 831.48C672.342 831.77 672.696 831.956 673.08 832.003C673.465 831.956 673.819 831.77 674.076 831.48C674.333 831.19 674.474 830.816 674.474 830.428C674.474 830.041 674.333 829.667 674.076 829.377C673.819 829.086 673.465 828.9 673.08 828.854Z" fill="#FCFCFC"/>
<path d="M469.605 663.026C469.221 663.073 468.866 663.259 468.61 663.549C468.353 663.839 468.211 664.214 468.211 664.601C468.211 664.988 468.353 665.362 468.61 665.652C468.866 665.942 469.221 666.129 469.605 666.175C469.99 666.129 470.344 665.942 470.601 665.652C470.858 665.362 470.999 664.988 470.999 664.601C470.999 664.214 470.858 663.839 470.601 663.549C470.344 663.259 469.99 663.073 469.605 663.026Z" fill="#FCFCFC"/>
<path d="M495.707 466.176C495.292 466.176 494.895 466.34 494.602 466.634C494.309 466.927 494.144 467.324 494.144 467.739C494.144 468.153 494.309 468.551 494.602 468.844C494.895 469.137 495.292 469.301 495.707 469.301C496.121 469.301 496.519 469.137 496.812 468.844C497.105 468.551 497.27 468.153 497.27 467.739C497.27 467.324 497.105 466.927 496.812 466.634C496.519 466.34 496.121 466.176 495.707 466.176Z" fill="#FCFCFC"/>
<path d="M335.852 836.505C335.467 836.552 335.113 836.738 334.856 837.028C334.599 837.318 334.458 837.692 334.458 838.079C334.458 838.467 334.599 838.841 334.856 839.131C335.113 839.421 335.467 839.607 335.852 839.654C336.236 839.607 336.59 839.421 336.847 839.131C337.104 838.841 337.246 838.467 337.246 838.079C337.246 837.692 337.104 837.318 336.847 837.028C336.59 836.738 336.236 836.552 335.852 836.505Z" fill="#FCFCFC"/>
<path d="M435.199 814.975C434.784 814.975 434.387 815.139 434.094 815.432C433.8 815.725 433.636 816.123 433.636 816.537C433.636 816.952 433.8 817.35 434.094 817.643C434.387 817.936 434.784 818.1 435.199 818.1C435.613 818.1 436.011 817.936 436.304 817.643C436.597 817.35 436.761 816.952 436.761 816.537C436.761 816.123 436.597 815.725 436.304 815.432C436.011 815.139 435.613 814.975 435.199 814.975Z" fill="#FCFCFC"/>
<path d="M633.799 800.676C633.533 800.715 633.289 800.848 633.113 801.051C632.937 801.255 632.84 801.515 632.84 801.784C632.84 802.053 632.937 802.313 633.113 802.516C633.289 802.72 633.533 802.853 633.799 802.892C634.065 802.853 634.308 802.72 634.484 802.516C634.66 802.313 634.757 802.053 634.757 801.784C634.757 801.515 634.66 801.255 634.484 801.051C634.308 800.848 634.065 800.715 633.799 800.676Z" fill="#FCFCFC"/>
<path d="M496.78 784.044C496.514 784.083 496.271 784.216 496.095 784.419C495.919 784.623 495.822 784.883 495.822 785.152C495.822 785.421 495.919 785.681 496.095 785.884C496.271 786.088 496.514 786.221 496.78 786.26C497.046 786.221 497.29 786.088 497.466 785.884C497.642 785.681 497.739 785.421 497.739 785.152C497.739 784.883 497.642 784.623 497.466 784.419C497.29 784.216 497.046 784.083 496.78 784.044Z" fill="#FCFCFC"/>
<path d="M477.349 502.752C477.083 502.791 476.84 502.924 476.664 503.127C476.488 503.331 476.391 503.591 476.391 503.86C476.391 504.129 476.488 504.389 476.664 504.592C476.84 504.796 477.083 504.929 477.349 504.968C477.615 504.929 477.859 504.796 478.035 504.592C478.211 504.389 478.308 504.129 478.308 503.86C478.308 503.591 478.211 503.331 478.035 503.127C477.859 502.924 477.615 502.791 477.349 502.752Z" fill="#FCFCFC"/>
<path d="M396.477 762.373C396.211 762.412 395.967 762.545 395.791 762.749C395.615 762.952 395.519 763.212 395.519 763.481C395.519 763.75 395.615 764.01 395.791 764.214C395.967 764.417 396.211 764.55 396.477 764.589C396.743 764.55 396.987 764.417 397.163 764.214C397.339 764.01 397.436 763.75 397.436 763.481C397.436 763.212 397.339 762.952 397.163 762.749C396.987 762.545 396.743 762.412 396.477 762.373Z" fill="#FCFCFC"/>
<path d="M568.089 766.898C567.291 766.898 566.525 767.215 565.961 767.78C565.397 768.344 565.08 769.109 565.08 769.908C565.08 770.706 565.397 771.471 565.961 772.035C566.525 772.6 567.291 772.917 568.089 772.917C568.887 772.917 569.652 772.6 570.216 772.035C570.781 771.471 571.098 770.706 571.098 769.908C571.098 769.109 570.781 768.344 570.216 767.78C569.652 767.215 568.887 766.898 568.089 766.898Z" fill="#FCFCFC"/>
<path d="M410.683 752.18C409.885 752.18 409.119 752.497 408.555 753.061C407.991 753.625 407.674 754.391 407.674 755.189C407.674 755.987 407.991 756.752 408.555 757.317C409.119 757.881 409.885 758.198 410.683 758.198C411.481 758.198 412.246 757.881 412.811 757.317C413.375 756.752 413.692 755.987 413.692 755.189C413.692 754.391 413.375 753.625 412.811 753.061C412.246 752.497 411.481 752.18 410.683 752.18Z" fill="#FCFCFC"/>
<path d="M483.904 570.771C483.106 570.771 482.341 571.089 481.776 571.653C481.212 572.217 480.895 572.983 480.895 573.781C480.895 574.579 481.212 575.344 481.776 575.908C482.341 576.473 483.106 576.79 483.904 576.79C484.702 576.79 485.468 576.473 486.032 575.908C486.596 575.344 486.913 574.579 486.913 573.781C486.913 572.983 486.596 572.217 486.032 571.653C485.468 571.089 484.702 570.771 483.904 570.771Z" fill="#FCFCFC"/>
<path d="M588.802 701.049H384.604V764.006H588.802V701.049Z" fill="#37474F"/>
<path d="M442.36 725.145C442.016 724.792 441.632 724.479 441.217 724.212C440.664 723.853 440.079 723.548 439.467 723.302C438.759 723.004 438.025 722.769 437.275 722.603C436.51 722.423 435.728 722.33 434.942 722.323C433.499 722.214 432.059 722.574 430.837 723.349C430.411 723.677 430.07 724.103 429.843 724.59C429.615 725.077 429.508 725.611 429.53 726.148C429.508 726.737 429.654 727.319 429.95 727.828C430.273 728.297 430.706 728.682 431.21 728.947C431.895 729.323 432.623 729.613 433.379 729.811C434.219 730.067 435.222 730.324 436.388 730.627C437.678 730.919 438.948 731.293 440.19 731.747C441.227 732.111 442.202 732.63 443.083 733.286C443.847 733.87 444.469 734.62 444.902 735.479C445.348 736.484 445.563 737.576 445.532 738.675C445.573 739.934 445.3 741.185 444.739 742.313C444.224 743.313 443.471 744.17 442.546 744.809C441.564 745.461 440.474 745.935 439.327 746.209C438.028 746.515 436.697 746.664 435.362 746.652C433.286 746.667 431.222 746.344 429.25 745.696C427.317 745.09 425.507 744.142 423.909 742.897L425.891 739.141C426.344 739.568 426.836 739.95 427.361 740.284C428.097 740.745 428.879 741.128 429.694 741.427C430.584 741.807 431.505 742.111 432.446 742.337C433.452 742.591 434.487 742.717 435.525 742.71C436.921 742.789 438.312 742.473 439.537 741.8C439.99 741.526 440.359 741.133 440.606 740.665C440.853 740.196 440.967 739.67 440.937 739.141C440.956 738.515 440.767 737.9 440.4 737.392C440 736.875 439.49 736.453 438.908 736.155C438.164 735.759 437.383 735.439 436.575 735.199L433.379 734.289C432.152 733.98 430.945 733.599 429.764 733.146C428.833 732.802 427.965 732.306 427.198 731.677C426.548 731.119 426.017 730.437 425.635 729.671C425.267 728.785 425.092 727.83 425.122 726.871C425.098 725.616 425.361 724.371 425.891 723.233C426.406 722.201 427.138 721.294 428.037 720.573C428.987 719.832 430.073 719.285 431.233 718.964C432.527 718.579 433.872 718.39 435.222 718.404C436.997 718.387 438.76 718.695 440.424 719.314C441.911 719.857 443.316 720.603 444.599 721.53L442.36 725.145Z" fill="white"/>
<path d="M471.635 722.485H462.304V746.442H457.872V722.485H448.542V718.613H471.471L471.635 722.485Z" fill="white"/>
<path d="M482.341 718.613H486.19L497.13 746.442H492.465L489.525 738.884H478.795L475.973 746.442H471.308L482.341 718.613ZM488.732 735.595L484.347 723.652L479.682 735.595H488.732Z" fill="white"/>
<path d="M502.145 746.442V718.614H514.251C515.446 718.602 516.627 718.866 517.704 719.383C518.729 719.898 519.654 720.593 520.433 721.436C521.185 722.292 521.784 723.27 522.206 724.329C522.626 725.383 522.847 726.506 522.859 727.641C522.858 728.557 522.724 729.469 522.462 730.347C522.206 731.171 521.837 731.956 521.366 732.679C520.899 733.407 520.316 734.053 519.64 734.592C518.944 735.132 518.153 735.536 517.307 735.782L524.002 746.442H519.033L512.992 736.762H506.577V746.442H502.145ZM506.53 732.889H514.205C514.796 732.894 515.379 732.758 515.908 732.493C516.42 732.21 516.866 731.821 517.214 731.35C517.592 730.85 517.884 730.29 518.077 729.694C518.285 729.046 518.388 728.368 518.38 727.688C518.37 726.353 517.891 725.066 517.027 724.049C516.637 723.588 516.162 723.208 515.628 722.929C515.112 722.675 514.546 722.539 513.971 722.532H506.53V732.889Z" fill="white"/>
<path d="M549.661 722.485H540.33V746.442H535.898V722.485H526.568V718.613H549.661V722.485Z" fill="white"/>
<path d="M580.172 769.185H393.235L384.604 764.007H588.779L580.172 769.185Z" fill="#263238"/>
<path d="M907.393 948.563C907.79 953.742 892.977 955.235 886.796 951.876C881.8 948.297 877.04 944.402 872.544 940.213C857.685 927.08 837.158 907.859 837.158 907.859L821.949 914.717L747.655 939.443L716.327 858.407C716.327 858.407 752.273 843.199 786.446 829.576C791.718 827.477 796.896 825.447 801.935 823.488L802.868 823.115C825.798 814.297 844.855 807.626 846.745 809.119C852.016 812.571 906.997 943.338 907.393 948.563Z" fill="#D3766A"/>
<path d="M907.393 948.563C907.79 953.765 892.977 955.234 886.796 951.899C881.797 948.325 877.036 944.429 872.544 940.236C857.685 927.126 837.158 907.905 837.158 907.905L821.949 914.74L819.476 915.556L785.257 829.949L786.353 829.506L801.842 823.441L802.775 823.068C825.704 814.25 844.762 807.556 846.675 808.932C852.016 812.594 906.997 943.361 907.393 948.563Z" fill="#EBEBEB"/>
<path d="M908.699 950.475C908.396 945.157 854.046 811.311 848.751 807.532C846.768 806.062 826.801 812.85 802.915 821.737L802.168 822.017L836.248 908.745L837.694 908.138C837.694 908.138 881.408 950.125 887.682 953.601C893.957 957.077 909.049 955.77 908.699 950.475Z" fill="#235ADB"/>
<path d="M902.915 951.059C893.187 928.735 856.122 837.716 848.214 814.903C848.214 814.716 848.214 814.67 848.354 814.903C858.478 836.83 894.797 928.152 903.264 950.989C903.451 951.385 903.101 951.525 902.915 951.059Z" fill="#263238"/>
<path d="M840.4 918.262C835.128 910.051 832.096 898.645 835.735 889.291C835.875 888.941 836.388 889.127 836.411 889.454C837.112 899.051 838.84 908.544 841.566 917.772C841.631 917.927 841.632 918.101 841.569 918.256C841.505 918.412 841.383 918.535 841.228 918.6C841.073 918.665 840.899 918.666 840.744 918.603C840.589 918.539 840.465 918.417 840.4 918.262Z" fill="#263238"/>
<path d="M846.861 923.114C841.59 914.903 838.557 903.497 842.196 894.143C842.336 893.77 842.849 893.98 842.873 894.306C843.586 903.901 845.314 913.393 848.028 922.624C848.093 922.779 848.093 922.953 848.03 923.108C847.967 923.264 847.844 923.387 847.69 923.452C847.535 923.517 847.361 923.518 847.205 923.455C847.05 923.391 846.926 923.269 846.861 923.114Z" fill="#263238"/>
<path d="M853.323 927.943C848.074 919.732 845.019 908.325 848.657 898.971C848.797 898.622 849.311 898.808 849.334 899.135C850.042 908.732 851.778 918.226 854.512 927.453C854.577 927.611 854.577 927.788 854.511 927.945C854.446 928.103 854.32 928.228 854.163 928.293C854.005 928.358 853.828 928.357 853.67 928.292C853.513 928.226 853.388 928.1 853.323 927.943Z" fill="#263238"/>
<path d="M836.761 928.573C839.094 920.292 837.764 911.312 837.508 902.914C837.483 902.729 837.416 902.551 837.312 902.396C837.207 902.241 837.068 902.112 836.905 902.019C836.743 901.926 836.561 901.873 836.374 901.862C836.187 901.851 836 901.884 835.828 901.958C835.828 901.841 835.572 901.748 835.432 901.958C828.659 907.839 823.558 915.402 820.643 923.885C819.033 928.853 819.5 936.224 825.728 937.88C831.606 939.14 835.385 933.378 836.761 928.573ZM830.533 933.728C821.413 939.233 822.299 926.73 823.535 923.092C824.426 920.762 825.486 918.501 826.708 916.327C829.263 911.854 832.051 907.517 835.058 903.334C834.918 907.486 835.058 911.592 835.198 915.744C835.315 920.689 835.548 930.719 830.533 933.728Z" fill="#263238"/>
<path d="M809.866 877.721C805.201 882.106 808.396 888.778 812.199 892.3C818.904 898.261 827.062 902.348 835.851 904.15C835.889 904.157 835.927 904.155 835.964 904.145C836.001 904.136 836.035 904.118 836.064 904.093C836.093 904.069 836.116 904.038 836.132 904.003C836.148 903.969 836.155 903.931 836.155 903.893C836.341 903.874 836.521 903.812 836.68 903.711C836.838 903.611 836.971 903.475 837.069 903.315C837.166 903.154 837.225 902.973 837.24 902.786C837.255 902.599 837.227 902.411 837.158 902.237C833.239 894.773 829.973 886.282 823.885 880.24C820.386 876.695 814.275 873.569 809.866 877.721ZM828.947 892.113C830.953 895.752 832.796 899.461 834.942 903.007C830.267 900.836 825.704 898.431 821.273 895.799C819.153 894.483 817.12 893.034 815.184 891.46C812.245 888.964 805.341 878.467 815.977 878.794C821.856 878.981 826.544 887.798 828.947 892.113Z" fill="#263238"/>
<path opacity="0.1" d="M908.7 950.476C909.049 955.794 893.934 957.124 887.706 953.602C881.478 950.079 837.718 908.139 837.718 908.139L836.271 908.769L809.306 840.213L862.373 835.431C880.148 875.948 908.49 946.65 908.7 950.476Z" fill="black"/>
<path d="M808.443 929.646C808.443 929.646 646.932 966.735 587.519 956.028C559.108 950.896 538.534 914.321 552.25 886.306C564.986 860.157 642.943 833.612 664.963 818.216C671.961 813.411 671.168 794.283 671.168 794.283L729.017 793.514C729.017 793.514 749.637 826.287 740.913 842.242C740.773 842.499 740.61 842.756 740.423 843.035L766.595 833.098L808.443 929.646Z" fill="#37474F"/>
<path d="M772.684 885.979C766.246 871.983 759.178 858.314 752.623 844.388C752.506 844.131 752.086 844.271 752.203 844.551C758.385 858.547 764.076 872.823 770.514 886.748C776.952 900.674 783.927 914.437 790.692 928.269C790.855 928.643 791.438 928.433 791.275 928.059C785.047 914.064 779.098 899.928 772.684 885.979Z" fill="#263238"/>
<path d="M740.797 843.688C736.808 846.021 733.006 848.703 729.133 851.222C725.261 853.742 721.459 856.121 717.47 858.454C709.563 863.119 701.492 867.528 693.304 871.703C676.826 880.154 659.798 887.487 642.336 893.653C632.586 897.082 622.742 900.418 612.735 902.983C612.502 902.983 612.619 903.357 612.735 903.31C620.036 901.561 627.338 899.858 634.545 897.805C630.72 900.138 626.964 902.727 623.162 905.176C623.136 905.206 623.12 905.244 623.117 905.283C623.114 905.323 623.123 905.362 623.144 905.396C623.165 905.43 623.196 905.456 623.233 905.471C623.27 905.486 623.31 905.489 623.349 905.479C627.501 902.96 631.723 900.558 635.852 897.992C635.9 897.963 635.942 897.925 635.975 897.879C636.008 897.834 636.03 897.782 636.041 897.726C636.053 897.671 636.052 897.614 636.039 897.56C636.026 897.505 636.002 897.453 635.968 897.409L639.654 896.336C648.588 893.56 657.405 890.457 666.059 887.005C683.198 880.102 699.718 871.752 715.441 862.046C719.873 859.293 724.251 856.463 728.574 853.555C732.923 850.717 737.084 847.6 741.03 844.225C741.52 843.945 741.123 843.501 740.797 843.688Z" fill="#263238"/>
<path d="M969.371 968.414C969.768 973.593 954.956 975.062 948.774 971.727C943.778 968.148 939.018 964.252 934.522 960.063C919.686 946.931 899.136 927.71 899.136 927.71L883.95 934.545L811.872 959.2L778.259 878.165C778.259 878.165 814.205 862.956 848.401 849.333L863.866 843.269L864.799 842.895C887.752 834.078 906.787 827.407 908.699 828.76C913.995 832.422 968.975 963.189 969.371 968.414Z" fill="#D3766A"/>
<path d="M969.371 968.414C969.768 973.593 954.956 975.086 948.774 971.727C943.778 968.148 939.018 964.253 934.522 960.064C919.686 946.931 899.136 927.71 899.136 927.71L883.95 934.568L881.921 935.268L846.488 850.173L848.448 849.404C853.696 847.304 858.875 845.275 863.913 843.315L864.846 842.942C887.799 834.125 906.833 827.454 908.746 828.83C913.995 832.422 968.975 963.189 969.371 968.414Z" fill="#EBEBEB"/>
<path d="M970.724 969.58C970.327 964.262 914.158 831.185 908.793 827.476C906.787 826.03 886.913 833.098 863.166 842.312L862.42 842.592L897.689 928.899L899.136 928.269C899.136 928.269 943.455 969.58 949.754 973.033C956.052 976.485 971.144 974.875 970.724 969.58Z" fill="#235ADB"/>
<path d="M964.869 970.234C954.839 948.05 916.514 857.544 908.303 834.941C908.303 834.755 908.303 834.708 908.443 834.941C918.87 856.728 956.448 947.537 965.219 970.234C965.476 970.56 965.149 970.7 964.869 970.234Z" fill="#263238"/>
<path d="M901.888 938.323C896.5 930.182 893.304 918.822 896.756 909.422C896.873 909.049 897.409 909.235 897.433 909.562C898.303 919.122 900.195 928.561 903.078 937.717C903.158 937.875 903.173 938.058 903.118 938.226C903.063 938.395 902.944 938.534 902.786 938.615C902.628 938.695 902.445 938.71 902.277 938.655C902.108 938.6 901.969 938.481 901.888 938.323Z" fill="#263238"/>
<path d="M908.513 943.058C903.124 934.941 899.929 923.557 903.381 914.157C903.498 913.807 904.034 913.994 904.057 914.32C904.89 923.908 906.752 933.378 909.609 942.568C909.649 942.709 909.637 942.859 909.576 942.991C909.514 943.124 909.407 943.229 909.273 943.289C909.14 943.348 908.99 943.358 908.85 943.315C908.71 943.273 908.591 943.182 908.513 943.058Z" fill="#263238"/>
<path d="M915.044 947.817C909.656 939.676 906.46 928.316 909.913 918.915C910.029 918.542 910.542 918.752 910.589 919.079C911.422 928.659 913.283 938.121 916.141 947.303C916.197 947.447 916.196 947.606 916.139 947.75C916.082 947.893 915.973 948.009 915.833 948.074C915.694 948.14 915.534 948.149 915.388 948.101C915.241 948.054 915.118 947.952 915.044 947.817Z" fill="#263238"/>
<path d="M898.483 948.657C900.699 940.353 899.252 931.395 898.856 922.998C898.833 922.812 898.766 922.634 898.661 922.479C898.557 922.324 898.417 922.196 898.253 922.105C898.089 922.014 897.907 921.963 897.719 921.956C897.532 921.949 897.346 921.986 897.176 922.065C897.176 922.065 896.92 921.855 896.78 922.065C890.091 928.044 885.095 935.679 882.294 944.201C880.755 949.193 881.338 956.564 887.566 958.011C893.794 959.457 897.223 953.509 898.483 948.657ZM892.324 953.905C883.297 959.55 883.997 946.907 885.327 943.362C886.209 941.029 887.238 938.754 888.406 936.55C890.738 931.885 893.771 927.78 896.593 923.441C896.593 927.593 896.803 931.722 896.896 935.874C896.92 940.819 897.223 950.779 892.324 953.905Z" fill="#263238"/>
<path d="M870.888 898.179C866.222 902.634 869.581 909.259 873.477 912.734C880.258 918.598 888.464 922.573 897.27 924.257C897.479 924.257 897.573 924.141 897.596 923.977C897.781 923.956 897.958 923.892 898.114 923.79C898.269 923.688 898.399 923.551 898.492 923.39C898.585 923.229 898.639 923.049 898.649 922.863C898.66 922.677 898.627 922.492 898.553 922.321C894.54 914.904 891.181 906.483 885 900.511C881.384 897.036 875.226 893.98 870.888 898.179ZM890.178 912.338C892.231 915.93 894.097 919.615 896.313 923.138C891.611 921.038 887.017 918.703 882.551 916.14C880.4 914.873 878.342 913.454 876.393 911.894C873.43 909.445 866.386 899.042 877.022 899.228C882.901 899.298 887.706 908.046 890.225 912.338H890.178Z" fill="#263238"/>
<path d="M691.065 793.91L790.552 792.417C790.552 792.417 811.545 846.067 802.915 862.093C794.284 878.118 702.611 900.884 702.611 900.884L828.574 852.949L870.561 949.473C870.561 949.473 717.26 982.853 635.968 974.572C605.481 971.47 586.353 931.652 604.221 901.048C622.999 868.857 691.158 824.817 691.158 824.817L691.065 793.91Z" fill="#37474F"/>
<path d="M825.214 852.716C786.679 870.327 747.771 887.169 708 901.841C702.464 903.894 696.928 905.915 691.392 907.906C685.653 909.959 679.938 912.338 674.06 913.994C673.78 913.994 673.92 914.531 674.2 914.437C679.262 912.524 684.534 911.172 689.689 909.492C694.844 907.813 699.742 906.156 704.734 904.43L711.219 902.098L709.913 903.007C707.93 904.314 705.947 905.643 703.988 907.019C699.976 909.865 696.22 913.224 691.998 915.744C691.741 915.883 691.998 916.303 692.255 916.117C696.267 913.271 700.792 911.148 704.921 908.466C706.903 907.159 708.863 905.783 710.822 904.407C712.654 903.212 714.386 901.87 716.001 900.395C722.345 898.062 728.667 895.73 734.942 893.397C754.769 885.87 774.34 877.737 793.654 868.998C804.454 864.099 815.138 859.014 825.704 853.649C826.241 853.416 825.798 852.436 825.214 852.716Z" fill="#263238"/>
<path d="M836.901 905.06C830.463 891.064 823.395 877.395 816.841 863.469C816.724 863.212 816.281 863.352 816.397 863.632C822.579 877.628 828.294 891.904 834.732 905.829C841.17 919.755 848.144 933.541 854.886 947.374C855.072 947.724 855.655 947.537 855.469 947.164C849.241 933.051 843.316 918.916 836.901 905.06Z" fill="#263238"/>
<path d="M689.432 825.866C678.486 832.086 667.987 839.062 658.012 846.743C648.028 854.138 638.371 861.952 629.157 870.303C624.492 874.502 620.013 878.887 615.675 883.412C611.464 887.668 607.639 892.289 604.245 897.221C598.215 906.139 595.311 916.803 595.987 927.546C596.389 933.254 597.729 938.857 599.953 944.131C602.343 949.282 605.444 954.071 609.167 958.36C609.307 958.546 609.563 958.36 609.4 958.103C605.907 954.149 603.263 949.521 601.632 944.504C598.995 937.375 597.974 929.748 598.643 922.177C599.313 914.605 601.656 907.276 605.504 900.72C611.616 890.573 620.596 882.176 629.134 874.105C637.953 865.791 647.186 857.927 656.799 850.545C662.179 846.393 667.622 842.342 673.127 838.392C678.656 834.427 684.301 830.625 689.712 826.473C689.768 826.423 689.806 826.356 689.82 826.283C689.835 826.21 689.827 826.134 689.795 826.067C689.764 825.999 689.712 825.943 689.647 825.907C689.581 825.871 689.506 825.857 689.432 825.866Z" fill="#263238"/>
<path d="M718.357 829.879C710.087 827.322 701.56 825.687 692.931 825.004C684.464 824.07 675.973 823.604 667.435 823.487C667.202 823.487 667.225 823.814 667.435 823.837C676.089 824.607 684.72 825.703 693.281 826.986C701.842 828.269 709.889 830.019 718.263 830.695C718.753 830.718 718.753 830.019 718.357 829.879Z" fill="#263238"/>
<path d="M786.003 831.045C780.698 830.922 775.407 830.446 770.164 829.622C765.758 829.41 761.479 828.077 757.732 825.75C750.734 820.455 747.794 811.148 746.302 802.844C746.302 802.657 745.928 802.704 745.952 802.844C747.165 811.871 747.561 822.251 755.516 828.316C759.489 831.053 764.197 832.524 769.021 832.538C774.703 832.772 780.393 832.42 786.003 831.488C786.032 831.488 786.061 831.483 786.088 831.472C786.115 831.46 786.139 831.444 786.16 831.424C786.18 831.403 786.197 831.379 786.208 831.352C786.219 831.325 786.225 831.296 786.225 831.267C786.225 831.238 786.219 831.209 786.208 831.182C786.197 831.155 786.18 831.131 786.16 831.11C786.139 831.09 786.115 831.073 786.088 831.062C786.061 831.051 786.032 831.045 786.003 831.045Z" fill="#263238"/>
<path d="M796.92 845.39C796.373 840.15 795.437 834.957 794.12 829.855C792.884 824.607 791.391 819.428 789.735 814.296C787.846 808.488 785.653 802.75 783.367 797.082C783.367 796.872 782.947 797.082 783.017 797.082C786.306 806.692 789.315 816.419 791.811 826.263C793.055 831.146 794.159 836.044 795.124 840.958C796.278 845.71 796.278 850.669 795.124 855.421C793.758 860.246 790.989 864.557 787.169 867.807C787.169 867.924 787.169 867.807 787.169 867.807C790.509 865.157 793.145 861.726 794.845 857.817C796.545 853.908 797.258 849.64 796.92 845.39Z" fill="#263238"/>
<path d="M813.971 874.899C807.253 876.649 800.675 878.958 794.074 881.104C787.473 883.25 780.871 885.373 774.27 887.565C761.091 891.974 747.958 896.523 734.825 901.048C727.361 903.637 719.966 906.39 712.548 909.096C712.339 909.096 712.432 909.492 712.548 909.422C739.094 901.18 765.468 892.441 791.671 883.203C799.112 880.591 806.67 878.165 813.948 875.133C814.181 875.063 814.111 874.853 813.971 874.899Z" fill="#263238"/>
<path d="M621.506 718.799L638.301 722.391C645.093 713.828 649.04 703.356 649.591 692.44C649.754 689.944 652.857 705.037 646.838 724.234C664.566 728.06 688.709 733.215 709.82 737.553C711.802 729.343 713.995 721.855 713.995 721.855C713.641 727.4 713.781 732.966 714.415 738.486C717.284 739.116 720.13 739.653 722.836 740.213C724.947 728.407 727.703 716.727 731.093 705.223C730.286 717.786 731.555 730.395 734.849 742.545C748.285 745.158 757.172 746.604 756.729 745.858C740.82 718.682 758.268 708.092 756.379 686.469C754.046 660.53 733.636 652.599 737.718 634.241C741.053 619.289 748.098 592.371 730.207 582.923C726.015 576.929 720.155 572.298 713.353 569.607C706.552 566.915 699.11 566.282 691.952 567.785C659.738 573.57 662.817 622.205 658.968 631.255C653.51 644.178 646.185 647.701 638.488 662.163C630.79 676.625 635.758 688.452 634.569 699.135C633.379 709.818 618.147 718.123 621.506 718.799Z" fill="#263238"/>
<path d="M757.965 742.709C755.943 738.119 754.584 733.265 753.929 728.293C753.595 723.431 754.536 718.567 756.658 714.181C758.671 709.48 760.431 704.676 761.93 699.788C763.471 694.683 763.971 689.321 763.4 684.02C762.699 678.703 760.8 673.614 757.848 669.137C754.946 664.889 751.709 660.88 748.168 657.148C744.728 653.57 741.765 649.564 739.35 645.228C737.104 640.756 736.127 635.754 736.528 630.766C735.359 635.834 735.757 641.138 737.671 645.974C739.727 650.73 742.487 655.149 745.858 659.084C749.058 662.887 752.011 666.892 754.699 671.073C757.202 675.156 758.793 679.732 759.364 684.486C759.835 689.28 759.416 694.12 758.128 698.762C756.938 703.427 755.119 708.092 753.463 713.061C752.632 715.537 751.985 718.071 751.527 720.642C751.145 723.288 751.231 725.98 751.783 728.596C752.981 733.633 755.074 738.413 757.965 742.709Z" fill="#263238"/>
<path d="M671.751 581.851C668.566 587.247 666.051 593.013 664.263 599.019C662.351 604.967 660.718 611.008 659.155 617.027L656.822 626.007C656.097 628.916 655.081 631.745 653.79 634.451C650.964 639.755 647.193 644.498 642.663 648.447C640.354 650.625 638.203 652.963 636.225 655.445C634.238 658.031 632.547 660.832 631.187 663.796C629.92 666.752 628.883 669.801 628.084 672.916C627.261 676.055 626.83 679.283 626.801 682.527C626.801 685.769 627.058 688.895 627.244 691.857C627.451 694.891 627.366 697.938 626.988 700.955C626.51 703.959 625.323 706.805 623.526 709.26C621.729 711.714 619.374 713.704 616.654 715.067C619.673 713.966 622.37 712.131 624.504 709.729C626.637 707.327 628.14 704.432 628.877 701.305C629.535 698.183 629.872 695.001 629.88 691.811C629.88 688.638 629.717 685.559 629.88 682.48C630.382 676.5 631.963 670.659 634.546 665.242C635.83 662.58 637.394 660.062 639.211 657.731C641.108 655.368 643.165 653.139 645.369 651.06C647.657 648.84 649.829 646.504 651.877 644.062C653.979 641.55 655.744 638.774 657.125 635.804C658.424 632.846 659.432 629.768 660.134 626.614C660.881 623.581 661.511 620.526 662.141 617.47C663.447 611.382 664.637 605.294 666.083 599.275C667.379 593.291 669.278 587.453 671.751 581.851Z" fill="#263238"/>
<path d="M712.618 670.887C695.147 698.622 661.021 736.201 637.391 749.333C627.197 755.002 582.644 757.101 555.516 754.745C545.392 753.859 556.076 700.185 567.179 699.928C574.737 699.765 614.111 706.25 619.733 704.337C630.09 700.838 668.462 671.867 694.797 657.265C709.493 649.124 723.488 653.626 712.618 670.887Z" fill="#D3766A"/>
<path d="M584.347 704.104C566.059 697.269 543.69 687.659 521.996 691.484C519.577 691.849 517.351 693.015 515.675 694.797C505.924 696.336 503.732 701.398 503.732 701.398C495.077 705.62 493.538 711.125 493.538 711.125C493.538 711.125 482.108 713.061 482.131 720.152C482.131 728.13 498.18 723.861 508.443 726.894C531.98 733.891 566.923 751.433 573.524 754.115L584.347 704.104Z" fill="#D3766A"/>
<path d="M538.208 716.91C531.328 714.796 524.314 713.144 517.214 711.965C509.392 711.212 501.525 711.041 493.678 711.452C493.637 711.438 493.601 711.411 493.576 711.375C493.551 711.34 493.537 711.297 493.537 711.254C493.537 711.21 493.551 711.167 493.576 711.132C493.601 711.096 493.637 711.07 493.678 711.055C508.798 708.818 524.243 710.779 538.325 716.724C538.628 716.747 538.558 717.003 538.208 716.91Z" fill="#263238"/>
<path d="M544.482 703.334C537.601 701.841 525.495 699.299 503.708 701.678C503.708 701.678 503.591 701.561 503.708 701.538C517.209 698.21 531.372 698.719 544.599 703.008C544.996 703.124 544.996 703.428 544.482 703.334Z" fill="#263238"/>
<path d="M547.725 695.963C537.141 694.142 526.358 693.773 515.674 694.867V694.75C529.81 692.417 535.222 693.047 547.841 695.566C548.285 695.66 548.191 696.056 547.725 695.963Z" fill="#263238"/>
<path d="M536.272 737.11C538.977 739.233 537.881 740.656 531.77 740.656C525.658 740.656 501.445 735.501 500.372 744.085C499.299 752.669 533.519 757.824 543.689 758.687C553.865 759.574 564.104 757.973 573.524 754.022C567.109 751.456 548.751 742.475 536.272 737.11Z" fill="#D3766A"/>
<path d="M649.684 680.894L678.305 724.234C678.305 724.234 706.717 693.21 715.091 671.564C723.465 649.917 712.199 649.054 696.43 655.748C680.661 662.443 649.684 680.894 649.684 680.894Z" fill="#235ADB"/>
<path d="M659.108 679.424C658.921 679.121 658.665 679.168 658.828 679.424C666.127 692.015 674.206 704.137 683.017 715.72C683.017 715.72 683.204 715.72 683.157 715.72C679.962 709.119 661.114 682.573 659.108 679.424Z" fill="#263238"/>
<path opacity="0.1" d="M715.114 671.563C706.74 693.21 678.306 724.234 678.306 724.234L658.921 694.866L712.945 652.272C718.217 653.439 719.943 659.014 715.114 671.563Z" fill="black"/>
<path d="M670.095 756.937L666.946 810.751C666.946 810.751 771.261 804.756 800.022 802.61C800.022 802.61 770.468 696.639 739.374 662.979C723.862 646.137 705.644 647.397 694.051 659.153C691.112 662.139 662.351 707.369 658.665 725.074C655.539 740.679 670.095 756.937 670.095 756.937Z" fill="#235ADB"/>
<path d="M709.493 748.493C703.901 747.992 698.28 747.898 692.675 748.213C689.899 748.423 687.146 748.75 684.394 749.123C683.018 749.31 681.641 749.473 680.265 749.59C678.817 749.776 677.351 749.776 675.903 749.59C675.786 749.59 675.763 749.753 675.903 749.776C677.239 750.088 678.595 750.307 679.962 750.429C681.289 750.534 682.623 750.534 683.951 750.429C686.773 750.266 689.596 749.963 692.418 749.753C698.11 749.356 703.778 748.937 709.493 748.937C709.726 748.96 709.75 748.517 709.493 748.493Z" fill="#263238"/>
<path d="M722.276 755.771C717.836 754.468 713.327 753.417 708.77 752.622C706.437 752.249 704.104 751.992 701.888 751.805L698.576 751.572C697.363 751.572 696.127 751.572 694.937 751.572C694.797 751.572 694.774 751.759 694.937 751.782C696.08 751.782 697.27 752.179 698.343 752.365L701.748 752.902L708.606 753.975C713.155 754.651 717.704 755.351 722.252 756.191C722.308 756.194 722.363 756.175 722.404 756.138C722.446 756.1 722.471 756.048 722.474 755.993C722.477 755.937 722.458 755.882 722.421 755.841C722.383 755.799 722.331 755.774 722.276 755.771Z" fill="#263238"/>
<path opacity="0.3" d="M728.807 654.348L697.363 656.284L698.483 655.445L727.524 653.672C727.944 653.882 728.387 654.092 728.807 654.348ZM734.499 658.29L692.815 660.856C692.651 661.113 692.441 661.37 692.255 661.673L735.362 659.014C735.091 658.753 734.802 658.512 734.499 658.29ZM739.514 662.956L689.246 666.035C689.106 666.291 688.919 666.571 688.732 666.851L740.05 663.679C739.881 663.453 739.702 663.235 739.514 663.026V662.956ZM743.526 667.761L685.887 671.307C685.723 671.563 685.56 671.843 685.373 672.1L744.109 668.507C743.927 668.271 743.733 668.046 743.526 667.831V667.761ZM747.072 672.566L682.621 676.602C682.481 676.882 682.318 677.138 682.154 677.418L747.468 673.383L747.072 672.566ZM750.244 677.441L679.495 681.78C679.355 682.06 679.192 682.317 679.029 682.596L750.71 678.188C750.574 677.955 750.426 677.729 750.267 677.511L750.244 677.441ZM753.183 682.293L676.463 686.958C676.301 687.223 676.153 687.495 676.02 687.775L753.626 683.11L753.183 682.293ZM755.959 687.168L673.477 692.254C673.343 692.525 673.195 692.79 673.034 693.047L756.355 687.915C756.239 687.728 756.099 687.495 755.959 687.238V687.168ZM758.548 692.044L670.655 697.455C670.497 697.71 670.356 697.975 670.235 698.248L758.875 692.79L758.548 692.044ZM761.044 696.965L667.902 702.68L667.506 703.473L761.417 697.712L761.044 696.965ZM763.377 701.841L665.29 707.882L664.916 708.675L763.727 702.587L763.377 701.841ZM765.709 706.762L662.934 713.084C662.817 713.364 662.7 713.62 662.607 713.877L766.036 707.509C765.919 707.322 765.803 707.089 765.709 706.786V706.762ZM767.879 711.661L660.834 718.239C660.718 718.519 660.624 718.776 660.531 719.032L768.205 712.407C768.108 712.176 767.999 711.951 767.879 711.731V711.661ZM770.001 716.583L659.131 723.417C659.131 723.674 658.991 723.931 658.945 724.187L770.328 717.329C770.231 717.098 770.122 716.873 770.001 716.653V716.583ZM772.077 721.505L658.315 728.503C658.315 728.759 658.315 729.016 658.315 729.272L772.427 722.275L772.077 721.505ZM774.107 726.427L658.595 733.611C658.595 733.868 658.595 734.124 658.712 734.381L774.41 727.243C774.293 726.986 774.2 726.753 774.107 726.497V726.427ZM776.043 731.348L659.691 738.51C659.691 738.743 659.855 738.999 659.948 739.256L776.346 732.095C776.257 731.864 776.156 731.638 776.043 731.418V731.348ZM777.956 736.27L661.627 743.525L661.977 744.271L778.259 737.11L777.956 736.27ZM779.822 741.192L664.077 748.33L664.52 749.076L780.102 742.079C780.032 741.775 779.915 741.542 779.822 741.262V741.192ZM781.664 746.137L667.226 753.135L667.739 753.882L781.921 746.884C781.851 746.72 781.758 746.441 781.664 746.207V746.137ZM783.461 751.059L670.025 758.057V758.827L783.764 751.829C783.651 751.593 783.55 751.352 783.461 751.106V751.059ZM785.187 756.028L669.722 763.026V763.819L785.49 756.681C785.373 756.611 785.257 756.354 785.257 756.098L785.187 756.028ZM786.89 760.95L669.442 768.181V768.974L787.216 761.719L786.89 760.95ZM788.592 765.895L669.138 773.242V774.036L788.896 766.664C788.756 766.478 788.662 766.221 788.592 765.965V765.895ZM790.225 770.84L668.928 778.304V779.097L790.645 771.61L790.225 770.84ZM791.835 775.785L668.625 783.459V784.229L792.255 776.625C792.021 776.368 791.928 776.112 791.835 775.855V775.785ZM793.421 780.73L668.252 788.428V789.221L793.724 781.523C793.608 781.43 793.514 781.057 793.421 780.8V780.73ZM794.984 785.699L667.949 793.513V794.283L795.264 786.445C795.147 786.259 795.077 786.095 794.984 785.769V785.699ZM796.5 790.644L667.645 798.551V799.368L796.78 791.414C796.663 791.227 796.593 790.97 796.5 790.761V790.644ZM798.016 795.589L667.389 803.637V804.406L798.296 796.359C798.156 796.196 798.086 795.916 798.016 795.659V795.589ZM799.462 800.534L667.062 808.698V809.492L799.719 801.327C799.602 801.164 799.532 800.907 799.462 800.604V800.534Z" fill="#37474F"/>
<path d="M751.737 680.754C766.409 713.411 789.922 777.232 783.344 793.234C770.118 825.447 717.027 854.302 701.585 860.88C694.331 863.912 660.391 818.449 666.152 812.385C672.451 805.737 727.944 772.73 728.9 765.265C729.693 759.061 725.914 719.593 723.582 689.292C720.666 650.967 739.327 653.136 751.737 680.754Z" fill="#D3766A"/>
<path d="M682.248 801.654C682.248 801.654 658.315 805.736 642.78 809.142C634.126 811.031 619.57 815.627 613.832 819.919C605.271 826.38 573.571 858.78 581.175 866.571C588.173 873.686 611.849 842.382 611.849 842.382C611.849 842.382 585.14 871.843 595.101 878.888C605.061 885.932 627.151 846.954 627.151 846.954C627.151 846.954 600.373 877.861 611.779 883.483C620.41 887.728 642.407 853.602 642.407 853.602C642.407 853.602 619.57 880.311 628.271 885.069C637.858 890.294 660.134 860.063 660.134 860.063C684.231 868.414 699.136 862.536 709.236 857.078C711.756 855.841 682.248 801.654 682.248 801.654Z" fill="#D3766A"/>
<path d="M619.29 833.098C597.946 853.299 593.631 869.744 593.887 869.347C598.669 859.55 609.026 846.417 611.989 842.778C614.951 839.14 616.491 836.83 619.43 833.191C619.5 833.121 619.36 833.028 619.29 833.098Z" fill="#263238"/>
<path d="M633.799 842.079C624.808 849.871 617.273 859.199 611.546 869.627C611.336 870.047 611.546 870.024 611.849 869.627C615.465 864.962 630.067 846.674 633.916 842.149C633.986 842.079 633.869 842.079 633.799 842.079Z" fill="#263238"/>
<path d="M646.815 849.077C639.981 855.269 634.35 862.671 630.207 870.91C629.997 871.307 630.347 871.283 630.626 870.91C635.992 863.539 640.167 857.731 646.955 849.31C647.165 849.077 646.955 848.867 646.815 849.077Z" fill="#263238"/>
<path d="M720.853 728.363L772.497 722.882C772.497 722.882 758.035 683.367 742.663 665.965C727.291 648.564 721.343 658.198 720.083 675.296C718.823 692.394 720.853 728.363 720.853 728.363Z" fill="#235ADB"/>
<path d="M723.885 719.312C723.535 719.312 723.465 719.592 723.885 719.569C738.418 718.883 752.893 717.286 767.225 714.787V714.6C759.924 714.507 727.617 718.985 723.885 719.312Z" fill="#263238"/>
<path d="M719.406 688.451C719.406 701.84 719.99 715.883 720.48 728.946C720.48 729.179 722.649 728.572 723.535 728.409C723.885 728.409 723.699 727.989 723.372 728.036C722.736 728.094 722.095 728.094 721.459 728.036C720.969 714.833 720.456 701.63 719.57 688.381C719.57 688.358 719.406 688.358 719.406 688.451Z" fill="#263238"/>
<path d="M719.943 658.991C719.383 661.323 708.28 676.182 697.643 675.599C694.214 675.389 694.471 656.565 694.471 656.565L694.167 655.188L689.992 635.664L713.015 621.225L716.327 619.312C716.327 619.312 717.12 624.724 718.03 631.465L718.17 632.422C718.17 632.818 718.17 633.168 718.333 633.518C718.473 634.545 718.637 635.571 718.753 636.597C718.87 637.624 718.963 638.137 719.033 638.93C719.103 639.723 719.196 640.563 719.29 641.379C719.914 647.227 720.132 653.112 719.943 658.991Z" fill="#D3766A"/>
<path d="M718.007 631.465C715.992 636.916 712.814 641.862 708.693 645.959C704.572 650.057 699.607 653.206 694.144 655.188L689.969 635.664L712.992 621.225L716.304 619.312C716.304 619.312 717.097 624.724 718.007 631.465Z" fill="#263238"/>
<path d="M667.249 590.271C648.588 619.872 664.123 634.428 670.515 638.44C676.3 642.102 696.5 653.835 718.194 626.334C739.887 598.832 732.026 580.801 719.22 571.727C706.414 562.653 685.98 560.693 667.249 590.271Z" fill="#D3766A"/>
<path d="M674.9 588.825C675.663 589.096 676.442 589.322 677.232 589.501C678.012 589.863 678.891 589.954 679.728 589.758C679.977 589.645 680.181 589.454 680.312 589.214C680.442 588.974 680.491 588.698 680.451 588.428C680.284 587.903 679.98 587.431 679.57 587.062C679.16 586.693 678.659 586.44 678.119 586.329C677.069 585.92 675.903 585.92 674.853 586.329C674.599 586.428 674.382 586.602 674.23 586.828C674.079 587.054 674 587.321 674.005 587.593C674.01 587.865 674.099 588.13 674.259 588.35C674.419 588.57 674.643 588.736 674.9 588.825Z" fill="#263238"/>
<path d="M694.611 600.185C693.965 599.702 693.35 599.18 692.768 598.622C692.035 598.175 691.475 597.492 691.182 596.686C691.136 596.412 691.183 596.131 691.314 595.886C691.444 595.642 691.652 595.447 691.905 595.333C692.433 595.186 692.992 595.185 693.521 595.328C694.051 595.472 694.532 595.755 694.914 596.149C695.821 596.816 696.445 597.798 696.663 598.902C696.708 599.158 696.675 599.421 696.569 599.659C696.464 599.896 696.289 600.096 696.069 600.234C695.848 600.372 695.592 600.441 695.332 600.432C695.072 600.423 694.821 600.337 694.611 600.185Z" fill="#263238"/>
<path d="M686.306 605.76C686.306 605.76 686.423 605.946 686.306 606.016C685.07 608.069 683.974 610.682 685.467 612.361C683.321 610.845 684.79 607.486 686.306 605.76Z" fill="#263238"/>
<path d="M689.386 604.64C692.861 606.296 689.386 613.108 686.097 611.638C682.808 610.169 686.47 603.264 689.386 604.64Z" fill="#263238"/>
<path d="M690.552 605.69C690.948 606.39 691.158 607.393 691.858 607.836C692.558 608.279 693.631 607.953 694.541 607.556C694.541 607.556 694.657 607.556 694.541 607.696C694.32 608.374 693.851 608.943 693.228 609.289C692.605 609.635 691.874 609.733 691.182 609.562C689.806 609.073 689.502 607.44 689.852 605.947C689.992 605.667 690.389 605.41 690.552 605.69Z" fill="#263238"/>
<path d="M674.83 598.692C674.83 598.692 674.62 598.692 674.573 598.692C673.547 600.838 672.031 603.148 669.745 602.868C669.745 602.868 669.628 602.984 669.745 603.008C672.217 603.987 674.223 600.908 674.83 598.692Z" fill="#263238"/>
<path d="M674.06 595.52C670.771 593.513 667.062 600.185 670.071 602.074C673.08 603.964 676.813 597.152 674.06 595.52Z" fill="#263238"/>
<path d="M672.404 595.17C671.681 595.17 670.794 595.589 670.071 595.17C669.348 594.75 669.162 593.793 669.092 592.837C669.092 592.72 669.092 592.837 668.952 592.837C668.499 593.362 668.249 594.033 668.249 594.726C668.249 595.42 668.499 596.091 668.952 596.616C669.931 597.479 671.284 596.826 672.404 595.73C672.684 595.613 672.707 595.146 672.404 595.17Z" fill="#263238"/>
<path d="M678.119 622.229C677.413 622.633 676.592 622.789 675.786 622.672C674.989 622.276 674.283 621.72 673.71 621.039C673.71 621.039 673.547 621.039 673.57 621.039C673.677 621.609 673.938 622.138 674.325 622.57C674.711 623.002 675.209 623.319 675.763 623.488C676.257 623.575 676.765 623.515 677.225 623.316C677.686 623.117 678.077 622.788 678.352 622.369C678.352 622.369 678.236 622.205 678.119 622.229Z" fill="#263238"/>
<path d="M673.29 609.936C673.29 609.936 671.191 612.851 670.398 614.321C670.398 614.461 670.631 614.718 671.121 615.021C672.267 615.932 673.643 616.508 675.097 616.685C676.55 616.862 678.024 616.633 679.355 616.024C679.542 616.024 679.355 615.697 679.239 615.721C676.658 615.991 674.058 615.427 671.821 614.111C671.938 613.645 675.623 609.259 675.39 609.119C674.185 608.596 672.913 608.242 671.611 608.07C675.833 601.888 680.941 596.406 685.14 590.202C685.28 589.992 684.977 589.735 684.79 589.898C679.06 595.594 673.911 601.845 669.418 608.56C669.022 609.353 672.661 609.866 673.29 609.936Z" fill="#263238"/>
<path d="M671.728 614.577C671.93 616.269 672.574 617.878 673.594 619.242C674.194 619.969 675.012 620.484 675.926 620.712C677.839 621.248 678.772 619.732 679.215 618.239C679.447 617.441 679.588 616.62 679.635 615.79C676.938 616.259 674.161 615.833 671.728 614.577Z" fill="#263238"/>
<path d="M673.594 619.173C674.194 619.9 675.012 620.415 675.926 620.643C677.839 621.179 678.772 619.663 679.215 618.17C678.306 617.666 677.25 617.49 676.226 617.673C675.202 617.856 674.273 618.385 673.594 619.173Z" fill="#FF99BA"/>
<path d="M714.625 626.287C707.137 622.042 717.144 597.456 718.403 594.447C717.517 596.289 712.758 606.11 711.825 606.11C711.569 606.11 710.822 605.48 709.656 604.407C710.261 603.251 710.776 602.05 711.196 600.815C711.406 600.255 710.379 601.888 709.003 603.801L707.79 602.681C709.161 600.256 710.205 597.66 710.892 594.96C711.149 593.934 708.77 597.922 706.017 601.048C700.51 595.728 694.432 591.035 687.893 587.052C686.027 585.979 684.37 585.163 682.877 584.463C684.347 581.617 686.26 578.748 685.723 579.285C684.253 580.707 682.925 582.269 681.758 583.95L679.425 582.97C681.315 578.841 686.586 573.43 685.42 574.06C681.939 576.101 678.869 578.775 676.369 581.944C673.337 581.057 672.311 581.197 672.614 580.451C677.556 572.964 684.996 567.475 693.608 564.962C707.813 560.95 728.014 568.601 731.536 588.032C731.536 588.032 737.368 598.389 733.869 608.396C730.37 618.403 718.963 628.736 714.625 626.287Z" fill="#263238"/>
<path d="M710.449 623.861C710.449 623.861 722.252 617.679 725.401 622.368C728.55 627.056 716.071 638.51 710.006 637.74C709.209 637.699 708.429 637.498 707.713 637.148C706.996 636.797 706.358 636.305 705.837 635.701C705.316 635.097 704.923 634.394 704.681 633.634C704.439 632.874 704.354 632.072 704.431 631.279L710.449 623.861Z" fill="#D3766A"/>
<path d="M721.762 625.564C721.762 625.564 721.762 625.727 721.762 625.704C719.678 625.665 717.609 626.06 715.686 626.863C713.762 627.666 712.027 628.86 710.589 630.369C710.985 630.131 711.428 629.98 711.887 629.925C712.346 629.871 712.812 629.914 713.253 630.053C713.694 630.192 714.1 630.423 714.445 630.731C714.79 631.039 715.066 631.416 715.254 631.839C715.254 631.839 715.254 632.049 715.068 631.979C714.534 631.445 713.849 631.089 713.106 630.96C712.363 630.831 711.598 630.934 710.916 631.256C709.789 631.821 708.719 632.493 707.72 633.262C707.393 633.495 706.88 633.028 707.207 632.702C709.633 628.06 716.561 623.465 721.762 625.564Z" fill="#263238"/>
</svg>
